SplineFontDB: 3.2
FontName: AmericanaStd-Czech
FullName: Americana Std Roman Czech
FamilyName: Americana Std Czech 
Weight: Roman
Copyright: The digitally encoded machine readable software for producing the\n Typefaces licensed to you is copyrighted (c) 1988, 1995, 1999, 2002 Adobe Systems.\n All Rights Reserved. This software is the property of Adobe Systems\n Incorporated and its licensors, and may not be reproduced, used, \n displayed, modified, disclosed or transferred without the express \n written approval of Adobe.\n \n The digitally encoded machine readable outline data for producing the Typefaces \n provided as part of your laser printer is copyrighted (c) 1981, 1999, 2002 Heidelberger Druckmaschinen AG. \n All rights reserved. This data is the property of Heidelberger Druckmaschinen AG, \n and may not be reproduced, used, displayed, modified, disclosed or transferred \n without the express written approval of Heidelberger Druckmaschinen AG. 
Version: 001.004
ItalicAngle: 0
UnderlinePosition: -100
UnderlineWidth: 50
Ascent: 725
Descent: 275
InvalidEm: 0
sfntRevision: 0x00010a3d
LayerCount: 2
Layer: 0 0 "Back" 1
Layer: 1 0 "Fore" 0
XUID: [1021 788 206796744 90397]
BaseHoriz: 2 'ideo' 'romn'
BaseScript: 'latn' 1  -170 0
StyleMap: 0x0040
FSType: 4
OS2Version: 2
OS2_WeightWidthSlopeOnly: 0
OS2_UseTypoMetrics: 0
CreationTime: 1034453748
ModificationTime: 1651005173
PfmFamily: 17
TTFWeight: 400
TTFWidth: 5
LineGap: 200
VLineGap: 0
Panose: 2 2 6 5 6 5 6 2 9 4
OS2TypoAscent: 725
OS2TypoAOffset: 0
OS2TypoDescent: -275
OS2TypoDOffset: 0
OS2TypoLinegap: 200
OS2WinAscent: 883
OS2WinAOffset: 0
OS2WinDescent: 250
OS2WinDOffset: 0
HheadAscent: 725
HheadAOffset: 0
HheadDescent: -275
HheadDOffset: 0
OS2SubXSize: 650
OS2SubYSize: 600
OS2SubXOff: 0
OS2SubYOff: 75
OS2SupXSize: 650
OS2SupYSize: 600
OS2SupXOff: 0
OS2SupYOff: 350
OS2StrikeYSize: 50
OS2StrikeYPos: 312
OS2CapHeight: 640
OS2XHeight: 520
OS2Vendor: 'ADBE'
OS2CodePages: 00000001.00000000

StartChar: exclam
Encoding: -1 33 1
Width: 278
GlyphClass: 1
Flags: MW
HStem: -12 97<125 153> 640 20G<115 163>
VStem: 90 97<23 49> 129 20<112 153>
LayerCount: 2
Fore
SplineSet
149 112 m 1xd0
 129 112 l 1
 129 194 125 254 112 333 c 0
 104 381 88 479 88 532 c 0
 88 563 91 660 139 660 c 0
 187 660 190 563 190 532 c 0
 190 479 174 381 166 333 c 0
 153 254 149 194 149 112 c 1xd0
90 36 m 0xe0
 90 62 111 85 139 85 c 0
 167 85 187 62 187 36 c 0
 187 10 167 -12 139 -12 c 0
 111 -12 90 10 90 36 c 0xe0
EndSplineSet
Validated: 1
EndChar

StartChar: quotedbl
Encoding: -1 34 2
Width: 333
GlyphClass: 1
Flags: MW
HStem: 640 20G<74.5 114 218.5 258>
VStem: 69.5 50 213.5 50
LayerCount: 2
Fore
SplineSet
272 579 m 2
 255 375 l 2
 254 367 254 344 238 344 c 0
 223 344 223 367 222 375 c 2
 205 579 l 2
 203 604 199 660 238 660 c 0
 278 660 274 604 272 579 c 2
128 579 m 2
 111 375 l 2
 110 367 110 344 94 344 c 0
 79 344 79 367 78 375 c 2
 61 579 l 2
 59 604 55 660 94 660 c 0
 134 660 130 604 128 579 c 2
EndSplineSet
Validated: 33
EndChar

StartChar: numbersign
Encoding: -1 35 3
Width: 648
GlyphClass: 1
Flags: MW
HStem: 0 21G<176 225 176 176 344 393 344 344> 197 44<86 204 86 210 258 372 86 252 426 535> 374 44<112 229 112 235 112 277 283 396 451 561> 595 20G<262 311 311 311 430 479 479 479>
VStem: 86 475<197 418 241 418>
LayerCount: 2
Fore
SplineSet
445 374 m 1
 426 241 l 1
 535 241 l 1
 535 197 l 1
 420 197 l 1
 393 0 l 1
 344 0 l 1
 372 197 l 1
 252 197 l 1
 225 0 l 1
 176 0 l 1
 204 197 l 1
 86 197 l 1
 86 241 l 1
 210 241 l 1
 229 374 l 1
 112 374 l 1
 112 418 l 1
 235 418 l 1
 262 615 l 1
 311 615 l 1
 283 418 l 1
 403 418 l 1
 430 615 l 1
 479 615 l 1
 451 418 l 1
 561 418 l 1
 561 374 l 1
 445 374 l 1
396 374 m 1
 277 374 l 1
 258 241 l 1
 378 241 l 1
 396 374 l 1
EndSplineSet
Validated: 1
EndChar

StartChar: dollar
Encoding: -1 36 4
Width: 648
GlyphClass: 1
Flags: MW
HStem: 22 25<283.5 322 356 356> 573 25
VStem: 117 80<423 488> 322 34<-74 22 -74 22 598 690> 488 80<152 215.5>
LayerCount: 2
Fore
SplineSet
322 598 m 1
 322 690 l 1
 356 690 l 1
 356 598 l 1
 419 594 480 580 538 557 c 1
 517 486 l 2
 514 476 510 468 504 468 c 0
 500 468 497 476 493 487 c 0
 468 555 383 571 330 573 c 0
 261 576 197 534 197 470 c 0
 197 376 280 367 352 354 c 0
 443 338 568 327 568 205 c 0
 568 99 451 28 356 22 c 1
 356 -74 l 1
 322 -74 l 1
 322 22 l 1
 245 22 146 36 80 78 c 1
 112 173 l 2
 114 178 116 180 118 180 c 0
 120 180 121 178 122 174 c 0
 145 98 236 47 319 47 c 0
 400 47 488 75 488 171 c 0
 488 260 370 264 297 280 c 0
 196 306 117 333 117 434 c 0
 117 542 228 595 322 598 c 1
EndSplineSet
Validated: 33
EndChar

StartChar: percent
Encoding: -1 37 5
Width: 667
GlyphClass: 1
Flags: MW
HStem: -15 21G<122 166 122 122> 0 19<464.5 542 464.5 552.5> 264 19<125.5 203 125.5 213.5> 332 19<463.5 542.5> 596 19<124.5 203.5> 610 20G<506 550 550 550>
VStem: 21 60<413 468 413 478> 246 60<403.5 465> 360 60<149 204 149 214> 585 60<139.5 201>
LayerCount: 2
Fore
SplineSet
21 435 m 0x7bc0
 21 521 69 615 166 615 c 0
 261 615 306 530 306 444 c 0
 306 352 263 264 164 264 c 0
 71 264 21 356 21 435 c 0x7bc0
164 283 m 0
 242 283 246 371 246 436 c 0
 246 494 243 596 164 596 c 0
 85 596 81 497 81 439 c 0
 81 387 87 283 164 283 c 0
360 171 m 0
 360 257 408 351 505 351 c 0
 600 351 645 266 645 180 c 0
 645 88 602 0 503 0 c 0
 410 0 360 92 360 171 c 0
503 19 m 0
 581 19 585 107 585 172 c 0
 585 230 582 332 503 332 c 0
 424 332 420 233 420 175 c 0
 420 123 426 19 503 19 c 0
506 630 m 1xb7c0
 550 630 l 1
 166 -15 l 1
 122 -15 l 1
 506 630 l 1xb7c0
EndSplineSet
Validated: 1
Ligature2: "Ligature Substitution lookup 7 subtable" zero fraction zero
Ligature2: "Ligature Substitution lookup 7 subtable" zero slash zero
EndChar

StartChar: ampersand
Encoding: -1 38 6
Width: 704
GlyphClass: 1
Flags: MW
HStem: -20 25<287 324> 0 21G<574 719 574 574> 304 21G 590 25<268 291>
VStem: 50 86<129.5 192.5> 146 60<477 503> 383 68<461.5 520>
LayerCount: 2
Fore
SplineSet
136 177 m 0xba
 136 82 230 5 321 5 c 0
 378 5 433 30 475 69 c 1
 386 143 299 220 220 304 c 1
 171 276 136 236 136 177 c 0xba
383 492 m 0
 383 548 351 593 291 590 c 0
 239 590 206 555 206 505 c 0xbe
 206 449 244 394 281 355 c 1
 341 371 383 431 383 492 c 0
467 321 m 2
 623 321 l 1
 629 257 583 158 546 110 c 1
 610 58 657 26 719 14 c 0
 728 13 732 10 732 6 c 0
 732 0 725 0 719 0 c 2
 574 0 l 2x7a
 558 1 510 44 495 54 c 1
 437 8 361 -20 287 -20 c 0
 180 -22 50 27 50 149 c 0xba
 50 236 137 288 206 322 c 1
 172 357 146 408 146 457 c 0xbe
 146 549 226 615 310 615 c 0
 394 615 451 578 451 501 c 0
 451 411 369 367 296 337 c 1
 365 262 441 193 522 132 c 1
 538 156 546 186 546 212 c 0
 546 270 514 302 465 311 c 0
 460 312 458 314 458 316 c 0
 458 321 463 321 467 321 c 2
EndSplineSet
Validated: 33
EndChar

StartChar: quotesingle
Encoding: -1 39 7
Width: 222
GlyphClass: 1
Flags: MW
HStem: 640 20G<91.5 131>
VStem: 86.5 50
LayerCount: 2
Fore
SplineSet
145 579 m 2
 128 375 l 2
 127 367 127 344 111 344 c 0
 96 344 96 367 95 375 c 2
 78 579 l 2
 76 604 72 660 111 660 c 0
 151 660 147 604 145 579 c 2
EndSplineSet
Validated: 33
EndChar

StartChar: parenleft
Encoding: -1 40 8
Width: 259
GlyphClass: 1
Flags: MW
HStem: -190 21G<202 225 202 202> 640 20G<197 220 220 220>
VStem: 39 74<174 303.5 174 318.5>
LayerCount: 2
Fore
SplineSet
197 660 m 1
 220 660 l 1
 132 535 113 370 113 237 c 0
 113 111 150 -102 225 -190 c 1
 202 -190 l 1
 171 -154 39 37 39 237 c 0
 39 400 103 529 197 660 c 1
EndSplineSet
Validated: 1
EndChar

StartChar: parenright
Encoding: -1 41 9
Width: 259
GlyphClass: 1
Flags: MW
HStem: -190 21G<34 57 34 34> 640 20G<39 62 62 62>
VStem: 146 74<174 303.5>
LayerCount: 2
Fore
SplineSet
39 660 m 1
 62 660 l 1
 156 529 220 400 220 237 c 0
 220 37 88 -154 57 -190 c 1
 34 -190 l 1
 109 -102 146 111 146 237 c 0
 146 370 127 535 39 660 c 1
EndSplineSet
Validated: 1
EndChar

StartChar: asterisk
Encoding: -1 42 10
Width: 444
GlyphClass: 1
Flags: MW
HStem: 471 169<181 390>
VStem: 211 25<482 482>
LayerCount: 2
Fore
SplineSet
53 473 m 1
 79 558 l 1
 116 522 160 493 211 482 c 1
 207 536 203 590 181 640 c 1
 267 640 l 1
 246 590 237 536 236 482 c 1
 283 494 326 524 361 558 c 1
 390 471 l 1
 333 471 301 471 244 454 c 1
 274 413 311 375 355 349 c 1
 289 288 l 1
 273 340 251 391 223 438 c 1
 194 393 164 343 159 288 c 1
 89 351 l 1
 135 376 173 412 204 454 c 1
 155 468 104 474 53 473 c 1
EndSplineSet
Validated: 33
EndChar

StartChar: plus
Encoding: -1 43 11
Width: 600
GlyphClass: 1
Flags: MW
HStem: 0 21G<271 329 271 271> 231 58<41 271 41 271 329 559> 500 20G<271 329 329 329>
VStem: 271 58<0 231 0 231 289 520>
LayerCount: 2
Fore
SplineSet
271 289 m 1
 271 520 l 1
 329 520 l 1
 329 289 l 1
 559 289 l 1
 559 231 l 1
 329 231 l 1
 329 0 l 1
 271 0 l 1
 271 231 l 1
 41 231 l 1
 41 289 l 1
 271 289 l 1
EndSplineSet
Validated: 1
EndChar

StartChar: comma
Encoding: 31 44 12
Width: 324
GlyphClass: 1
Flags: MW
HStem: -12 21G<156 171> -12 97<156 171>
VStem: 171 43<-16 -12>
LayerCount: 2
Fore
SplineSet
110 32 m 0xa0
 110 61 126 85 162 85 c 0
 195 85 214 57 214 14 c 0x60
 214 -46 154 -121 134 -121 c 0
 132 -121 129 -119 129 -117 c 0
 129 -115 130 -112 131 -111 c 0
 155 -79 171 -53 171 -12 c 1
 141 -12 110 -2 110 32 c 0xa0
EndSplineSet
Validated: 1
EndChar

StartChar: hyphen
Encoding: -1 45 13
Width: 259
GlyphClass: 1
Flags: MW
HStem: 231 58<24 235 6 253>
VStem: 6 247<231 289>
LayerCount: 2
Fore
SplineSet
235 231 m 1
 6 231 l 1
 24 289 l 1
 253 289 l 1
 235 231 l 1
EndSplineSet
Validated: 1
AlternateSubs2: "'aalt' Access All Alternates in Latin lookup 1 subtable" endash emdash minus
EndChar

StartChar: period
Encoding: -1 46 14
Width: 324
GlyphClass: 1
Flags: MW
HStem: -12 97<148 176>
VStem: 113 97<23 49>
LayerCount: 2
Fore
SplineSet
113 36 m 0
 113 62 134 85 162 85 c 0
 190 85 210 62 210 36 c 0
 210 10 190 -12 162 -12 c 0
 134 -12 113 10 113 36 c 0
EndSplineSet
Validated: 1
Substitution2: "'aalt' Access All Alternates in Latin lookup 0 subtable" ellipsis
EndChar

StartChar: slash
Encoding: -1 47 15
Width: 278
GlyphClass: 1
Flags: MW
HStem: -20 21G<-20 -20 -20 36> 640 20G<241 297 297 297>
VStem: -20 317
LayerCount: 2
Fore
SplineSet
-20 -20 m 1
 241 660 l 1
 297 660 l 1
 36 -20 l 1
 -20 -20 l 1
EndSplineSet
Validated: 1
EndChar

StartChar: zero
Encoding: -1 48 16
Width: 648
GlyphClass: 1
Flags: MW
HStem: -15 25<234 412> 605 25<234 412 234 417>
VStem: 17 104<248.5 365.5 248.5 402> 526 104<248.5 365.5>
LayerCount: 2
Fore
SplineSet
324 605 m 0
 137 605 121 424 121 307 c 0
 121 190 137 10 324 10 c 0
 510 10 526 190 526 307 c 0
 526 424 510 605 324 605 c 0
323 630 m 0
 501 630 630 496 630 308 c 0
 630 119 501 -15 323 -15 c 0
 145 -15 17 119 17 308 c 0
 17 496 145 630 323 630 c 0
EndSplineSet
Validated: 1
EndChar

StartChar: one
Encoding: -1 49 17
Width: 648
GlyphClass: 1
Flags: MW
HStem: -2 21G<218 230.5 403.5 421.5> 620 20G<364 364>
VStem: 284 80<182 475 475 514>
LayerCount: 2
Fore
SplineSet
364 640 m 1
 364 181 l 2
 364 41 382 25 419 11 c 0
 428 8 435 6 434 2 c 0
 434 -1 427 -2 416 -2 c 0
 391 -2 362 0 324 0 c 0
 258 0 236 -2 225 -2 c 0
 211 -2 205 0 205 3 c 0
 205 7 213 10 227 16 c 0
 270 33 284 58 284 182 c 2
 284 475 l 2
 284 553 277 569 232 580 c 0
 223 582 218 582 218 585 c 0
 218 590 225 592 236 596 c 2
 364 640 l 1
EndSplineSet
Validated: 513
Substitution2: "'sups' Superscript in Latin lookup 5 subtable" one.superior
Substitution2: "'aalt' Access All Alternates in Latin lookup 0 subtable" one.superior
EndChar

StartChar: two
Encoding: -1 50 18
Width: 648
GlyphClass: 1
Flags: MW
HStem: 0 75<120 333 333 359 120 516> 605 25<254.5 328.5>
VStem: 445 104<406 501>
LayerCount: 2
Fore
SplineSet
516 0 m 1
 35 0 l 1
 35 11 50 55 83 104 c 0
 119 155 196 204 264 236 c 0
 397 297 445 361 445 451 c 0
 445 551 377 605 280 605 c 0
 201 605 126 559 88 491 c 0
 87 489 85 487 82 487 c 0
 79 487 76 489 76 491 c 2
 53 578 l 1
 126 615 214 630 295 630 c 0
 410 630 549 567 549 435 c 0
 549 339 466 276 382 246 c 2
 278 210 l 2
 179 176 120 104 120 75 c 1
 333 75 l 2
 385 75 458 83 505 109 c 0
 517 116 543 138 550 150 c 0
 553 153 554 155 557 155 c 0
 561 155 563 151 563 148 c 0
 563 143 561 139 557 126 c 2
 516 0 l 1
EndSplineSet
Validated: 513
Substitution2: "'sups' Superscript in Latin lookup 5 subtable" two.superior
Substitution2: "'aalt' Access All Alternates in Latin lookup 0 subtable" two.superior
EndChar

StartChar: three
Encoding: -1 51 19
Width: 648
GlyphClass: 1
Flags: MW
HStem: -15 25<245 332 240.5 348.5> 320 25<281.5 330 275.5 340> 605 25<299 340>
VStem: 454 104<435 521.5> 484 104<112 217>
LayerCount: 2
Fore
SplineSet
220 309 m 1xe8
 220 355 l 1
 242 347 264 345 287 345 c 0
 373 345 454 379 454 477 c 0
 454 566 381 605 299 605 c 0
 213 608 159 577 114 506 c 0
 107 495 100 485 96 485 c 0
 93 485 91 490 89 499 c 2
 68 578 l 1
 150 620 224 630 315 630 c 0
 404 630 558 599 558 485 c 0xf0
 558 385 447 348 366 335 c 1
 366 333 l 1
 456 316 588 283 588 167 c 0
 588 25 404 -15 293 -15 c 0
 197 -15 102 3 19 52 c 1
 43 124 l 2
 51 147 55 157 61 157 c 0
 65 157 67 153 70 139 c 0
 94 46 197 10 284 10 c 0
 380 10 484 58 484 166 c 0
 484 268 386 320 294 320 c 0
 269 320 243 316 220 309 c 1xe8
EndSplineSet
Validated: 545
Substitution2: "'sups' Superscript in Latin lookup 5 subtable" three.superior
Substitution2: "'aalt' Access All Alternates in Latin lookup 0 subtable" three.superior
EndChar

StartChar: four
Encoding: -1 52 20
Width: 648
GlyphClass: 1
Flags: MW
HStem: -2 203<293.5 311.5 81 507.5> 157 44<81 351 81 351> 620 20G<423.5 426.5>
VStem: 351 80<118 155 94 157 94 157 203 524 524 524>
LayerCount: 2
Fore
SplineSet
583 155 m 1x70
 431 155 l 1
 431 118 l 2x70
 431 70 452 24 486 14 c 0
 501 9 514 7 514 3 c 0
 514 -1 513 -2 502 -2 c 0
 458 -2 429 0 391 0 c 0
 353 0 324 -2 299 -2 c 0
 288 -2 283 -2 283 3 c 0
 283 7 289 7 301 11 c 0xb0
 334 23 351 59 351 118 c 2
 351 157 l 1
 19 157 l 1
 19 190 34 204 50 222 c 2
 392 604 l 2
 401 614 409 625 417 634 c 0
 419 637 422 640 425 640 c 0
 428 640 431 637 431 625 c 2
 431 203 l 1
 476 203 555 205 586 246 c 0
 594 257 602 267 607 273 c 0
 612 278 615 280 617 280 c 0
 619 280 620 279 620 277 c 0
 620 276 620 274 618 266 c 2
 583 155 l 1x70
349 524 m 1
 81 201 l 1
 351 201 l 1
 351 524 l 1
 349 524 l 1
EndSplineSet
Validated: 1
EndChar

StartChar: five
Encoding: -1 53 21
Width: 648
GlyphClass: 1
Flags: MW
HStem: -15 25<264.5 354.5 264.5 381> 340 25<265.5 339.5> 540 75<174.5 191 191 484 484 504 110 528> 620 20G<551.5 554>
VStem: 493 104<118 230.5>
LayerCount: 2
Fore
SplineSet
29 49 m 1
 53 118 l 2
 60 137 65 156 71 156 c 0
 77 156 81 141 87 127 c 0
 125 45 222 10 307 10 c 0
 402 10 493 66 493 169 c 0
 493 292 394 340 285 340 c 0
 208 340 154 322 84 291 c 1
 110 615 l 1
 484 615 l 2xe8
 524 615 538 624 547 635 c 0
 549 638 550 640 553 640 c 0
 555 640 556 638 556 636 c 0
 556 633 554 627 553 623 c 2xd8
 528 540 l 1
 191 540 l 2
 158 540 130 516 127 471 c 2
 117 331 l 1
 176 352 234 365 297 365 c 0
 409 365 597 326 597 182 c 0
 597 54 468 -15 294 -15 c 0
 217 -15 96 9 29 49 c 1
EndSplineSet
Validated: 1
EndChar

StartChar: six
Encoding: -1 54 22
Width: 648
GlyphClass: 1
Flags: MW
HStem: -15 25<278 382 278 412> 382 25<312.5 382> 605 25<273.5 385.5 270 402.5>
VStem: 40 96<311 320 311 394> 512 96<142.5 249.5>
LayerCount: 2
Fore
SplineSet
575 546 m 2
 549 476 l 2
 548 474 547 474 545 474 c 0
 543 474 543 476 542 478 c 0
 518 564 446 605 359 605 c 0
 188 605 140 470 136 320 c 0
 136 302 137 287 139 275 c 1
 174 364 267 407 358 407 c 0
 476 407 608 340 608 205 c 0
 608 58 477 -15 347 -15 c 0
 156 -15 40 111 40 301 c 0
 40 487 177 630 363 630 c 0
 408 630 499 612 568 583 c 0
 575 580 581 576 581 572 c 0
 581 563 579 556 575 546 c 2
512 196 m 0
 512 303 434 382 330 382 c 0
 226 382 148 303 148 196 c 0
 148 89 226 10 330 10 c 0
 434 10 512 89 512 196 c 0
EndSplineSet
Validated: 1
EndChar

StartChar: seven
Encoding: -1 55 23
Width: 648
GlyphClass: 1
Flags: MW
HStem: 0 21G<211 338 211 211> 540 75<172.5 206 206 542>
VStem: 65 551<483.5 615>
LayerCount: 2
Fore
SplineSet
109 615 m 1
 616 615 l 1
 613 492 337 358 337 52 c 0
 337 35 337 17 338 0 c 1
 211 0 l 1
 214 274 542 459 542 540 c 1
 206 540 l 2
 139 540 107 520 83 488 c 0
 80 484 72 478 68 478 c 0
 66 478 65 482 65 485 c 0
 65 489 69 495 71 503 c 2
 109 615 l 1
EndSplineSet
Validated: 1
EndChar

StartChar: eight
Encoding: -1 56 24
Width: 648
GlyphClass: 1
Flags: MW
HStem: -15 25<272.5 360 272.5 360.5> 306 21G 306 62 354 14 605 25<292 362.5>
VStem: 35 86<108.5 198.5 108.5 203.5> 79 80<458 535> 488 80<455.5 537.5> 527 86<98 180.5>
LayerCount: 2
Fore
SplineSet
121 162 m 0xdc80
 121 55 227 10 318 10 c 0
 402 10 527 39 527 145 c 0
 527 216 471 244 412 265 c 0
 386 274 277 308 257 306 c 0
 186 298 121 235 121 162 c 0xdc80
488 493 m 0xab
 488 582 399 605 326 605 c 0
 258 605 159 585 159 499 c 0
 159 417 279 368 346 368 c 0
 415 368 488 418 488 493 c 0xab
568 492 m 0
 568 404 469 365 396 354 c 1
 396 353 l 1xdc80
 421 347 613 287 613 176 c 0
 613 20 420 -15 301 -15 c 0
 200 -15 35 25 35 153 c 0xac80
 35 254 143 300 227 315 c 1
 227 317 l 1
 155 333 79 387 79 470 c 0
 79 600 228 630 337 630 c 0
 424 630 568 604 568 492 c 0
EndSplineSet
Validated: 33
EndChar

StartChar: nine
Encoding: -1 57 25
Width: 648
GlyphClass: 1
Flags: MW
HStem: -15 25<264.5 370 250 380> 182 25 605 25
VStem: 35 96<353.5 458.5 353.5 474.5> 517 96<221 279>
LayerCount: 2
Fore
SplineSet
505 406 m 0
 505 511 439 606 318 605 c 0
 197 606 131 511 131 406 c 0
 131 301 197 206 318 207 c 0
 439 206 505 301 505 406 c 0
75 69 m 2
 101 139 l 2
 102 141 103 141 105 141 c 0
 107 141 107 139 108 137 c 0
 132 51 204 10 296 10 c 0
 444 10 517 144 517 272 c 0
 517 286 516 307 513 320 c 1
 511 320 l 1
 483 233 397 182 308 182 c 0
 187 182 35 257 35 395 c 0
 35 554 176 630 303 630 c 0
 494 630 613 504 613 314 c 0
 613 128 473 -15 287 -15 c 0
 242 -15 151 3 82 32 c 0
 75 35 69 39 69 43 c 0
 69 52 71 59 75 69 c 2
EndSplineSet
Validated: 33
EndChar

StartChar: colon
Encoding: -1 58 26
Width: 324
GlyphClass: 1
Flags: MW
HStem: -12 97<148 176> 358 97<148 176>
VStem: 113 97<23 49 393 419>
LayerCount: 2
Fore
SplineSet
113 36 m 0
 113 62 134 85 162 85 c 0
 190 85 210 62 210 36 c 0
 210 10 190 -12 162 -12 c 0
 134 -12 113 10 113 36 c 0
113 406 m 0
 113 432 134 455 162 455 c 0
 190 455 210 432 210 406 c 0
 210 380 190 358 162 358 c 0
 134 358 113 380 113 406 c 0
EndSplineSet
Validated: 1
EndChar

StartChar: semicolon
Encoding: -1 59 27
Width: 324
GlyphClass: 1
Flags: MW
HStem: -12 21G<156 171> -12 97<156 171> 358 97<148 176>
VStem: 113 97<393 419> 171 43<-16 -12>
LayerCount: 2
Fore
SplineSet
110 32 m 0xa8
 110 61 126 85 162 85 c 0
 195 85 214 57 214 14 c 0x68
 214 -46 154 -121 134 -121 c 0
 132 -121 129 -119 129 -117 c 0
 129 -115 130 -112 131 -111 c 0
 155 -79 171 -53 171 -12 c 1
 141 -12 110 -2 110 32 c 0xa8
113 406 m 0xb0
 113 432 134 455 162 455 c 0
 190 455 210 432 210 406 c 0
 210 380 190 358 162 358 c 0
 134 358 113 380 113 406 c 0xb0
EndSplineSet
Validated: 1
EndChar

StartChar: less
Encoding: -1 60 28
Width: 600
GlyphClass: 1
Flags: MW
HStem: -1 21G<554 554> 501 20G<554 554>
VStem: 46 508<-1 289 -1 289>
LayerCount: 2
Fore
SplineSet
554 61 m 1
 554 -1 l 1
 46 231 l 1
 46 289 l 1
 554 521 l 1
 554 459 l 1
 118 260 l 1
 554 61 l 1
EndSplineSet
Validated: 1
EndChar

StartChar: equal
Encoding: -1 61 29
Width: 600
GlyphClass: 1
Flags: MW
HStem: 133 58<41 559 41 559> 329 58<41 559 41 559>
VStem: 41 518<133 191 133 191 329 387 133 387>
LayerCount: 2
Fore
SplineSet
559 387 m 1
 559 329 l 1
 41 329 l 1
 41 387 l 1
 559 387 l 1
559 191 m 1
 559 133 l 1
 41 133 l 1
 41 191 l 1
 559 191 l 1
EndSplineSet
Validated: 1
EndChar

StartChar: greater
Encoding: -1 62 30
Width: 600
GlyphClass: 1
Flags: MW
HStem: -1 21G<46 46> 501 20G<46 46>
VStem: 46 508<-1 289 61 289 231 521 231 521>
LayerCount: 2
Fore
SplineSet
46 61 m 1
 482 260 l 1
 46 459 l 1
 46 521 l 1
 554 289 l 1
 554 231 l 1
 46 -1 l 1
 46 61 l 1
EndSplineSet
Validated: 1
EndChar

StartChar: question
Encoding: -1 63 31
Width: 500
GlyphClass: 1
Flags: MW
HStem: -12 97<200 228> 635 25<176 261.5>
VStem: 165 97<23 49> 202 22<115 115> 360 96<462 536 430 542>
LayerCount: 2
Fore
SplineSet
44 504 m 1xe8
 15 619 l 1
 76 645 140 660 207 660 c 0
 327 660 456 605 456 467 c 0
 456 393 395 344 336 295 c 0
 277 245 219 195 224 115 c 1
 202 115 l 1xd8
 197 190 237 249 277 307 c 0
 318 366 360 425 360 499 c 0
 360 585 304 635 219 635 c 0
 133 635 73 582 44 504 c 1xe8
165 36 m 0xe8
 165 62 186 85 214 85 c 0
 242 85 262 62 262 36 c 0
 262 10 242 -12 214 -12 c 0
 186 -12 165 10 165 36 c 0xe8
EndSplineSet
Validated: 33
EndChar

StartChar: at
Encoding: -1 64 32
Width: 800
GlyphClass: 1
Flags: MW
HStem: -20 35<336.5 466> 136 31<551 575 551 618> 137 39<374.5 375> 453 41<442.5 455 388.5 481.5> 635 25<340 509>
VStem: 57 77<239 404.5 225 411.5> 260 67<228.5 292> 709 34<326.5 438.5>
LayerCount: 2
Fore
SplineSet
510 389 m 0xdf
 510 431 496 453 467 453 c 0
 418 453 327 381 327 258 c 0
 327 199 356 176 393 176 c 0xbf
 433 176 497 249 510 389 c 0xdf
536 482 m 1
 603 482 l 1
 538 227 l 2
 534 216 527 167 575 167 c 0
 656 171 709 283 709 370 c 0
 709 507 598 635 420 635 c 0
 260 635 134 514 134 295 c 0
 134 155 247 15 426 15 c 0
 515 15 567 37 624 61 c 1
 637 37 l 1
 573 8 506 -20 426 -20 c 0
 170 -20 57 173 57 305 c 0
 57 518 223 660 420 660 c 0
 612 660 743 531 743 371 c 0
 743 270 677 136 559 136 c 0xdf
 490 136 470 193 471 204 c 1
 469 206 l 1
 450 174 395 137 355 137 c 0xbf
 329 137 260 144 260 258 c 0
 260 326 322 494 455 494 c 0
 488 493 512 467 526 442 c 1
 536 482 l 1
EndSplineSet
Validated: 33
EndChar

StartChar: A
Encoding: 32 65 33
Width: 778
GlyphClass: 1
Flags: MW
HStem: -2 21G<12.5 29 148 164.5 567.5 584 750.5 769.5> 312 25<242 476 242 486 230 476> 640 20G<393 395 395 396.5>
VStem: -1 776<2 4 2 6>
LayerCount: 2
Fore
SplineSet
476 337 m 1
 363 553 l 1
 242 337 l 1
 476 337 l 1
486 312 m 1
 230 312 l 1
 166 191 l 2
 146 154 122 102 122 63 c 0
 122 46 132 30 147 19 c 0
 159 10 175 8 175 2 c 0
 175 -1 169 -2 160 -2 c 0
 136 -2 113 0 90 0 c 0
 66 0 41 -2 17 -2 c 0
 8 -2 -1 -2 -1 3 c 0
 -1 9 14 16 20 22 c 0
 61 61 99 128 123 170 c 2
 386 654 l 2
 388 658 390 660 393 660 c 2
 395 660 l 2
 398 660 402 656 402 654 c 2
 697 86 l 2
 711 59 735 31 760 14 c 0
 769 8 775 5 775 3 c 0
 775 1 774 -2 765 -2 c 0
 736 -2 702 0 671 0 c 0
 640 0 598 -2 570 -2 c 0
 565 -2 562 -1 562 1 c 0
 562 7 571 8 581 13 c 0
 590 18 599 27 599 49 c 0
 599 76 577 128 551 180 c 2
 486 312 l 1
EndSplineSet
Validated: 1
Substitution2: "'sups' Superscript in Latin lookup 5 subtable" ordfeminine
Substitution2: "'ordn' Ordinals in Latin lookup 4 subtable" ordfeminine
Substitution2: "'aalt' Access All Alternates in Latin lookup 0 subtable" ordfeminine
EndChar

StartChar: B
Encoding: 33 66 34
Width: 759
GlyphClass: 1
Flags: MW
HStem: -3 25<328 387> 0 25<217 249> 331 25<178 337 178 302> 619 25<178 178 178 274 274 336>
VStem: 92 86<186 198 198 331 356 506 506 541> 558 104<437 535.5> 616 107<124 242 120.5 251.5>
LayerCount: 2
Fore
SplineSet
178 619 m 1x7a
 178 356 l 1
 337 356 l 2
 435 356 558 366 558 495 c 0xbc
 558 576 490 619 336 619 c 2
 178 619 l 1x7a
92 186 m 2
 92 506 l 2
 92 576 91 609 51 628 c 0
 43 631 39 633 39 638 c 0
 39 640 44 644 61 644 c 2
 274 644 l 2
 498 644 662 624 662 493 c 0x7c
 662 381 503 345 451 345 c 1
 451 343 l 1
 546 334 723 308 723 176 c 0
 723 65 592 6 505 2 c 0
 456 -1 407 -3 367 -3 c 0xba
 351 -3 333 -2 313 -1 c 0
 293 -1 271 0 249 0 c 2
 108 0 l 2x7a
 83 0 64 -1 51 -1 c 0
 38 -2 30 -3 25 -3 c 0
 19 -3 18 -1 18 1 c 0
 18 4 25 7 40 12 c 0
 66 21 92 62 92 186 c 2
178 331 m 1
 178 198 l 2
 178 58 181 25 253 25 c 0x7a
 283 25 313 22 343 22 c 0
 371 22 397 23 445 26 c 0
 546 32 616 76 616 172 c 0xba
 616 331 427 331 302 331 c 2
 178 331 l 1
EndSplineSet
Validated: 1
EndChar

StartChar: C
Encoding: 34 67 35
Width: 759
GlyphClass: 1
Flags: MW
HStem: -20 25<341 488.5> 635 25<343 485>
VStem: 42 107<239 415 239 423.5>
LayerCount: 2
Fore
SplineSet
718 571 m 1
 699 513 l 2
 691 490 686 476 681 476 c 0
 679 476 675 480 674 485 c 0
 634 601 536 635 434 635 c 0
 252 635 149 504 149 326 c 0
 149 152 245 5 433 5 c 0
 566 5 651 66 686 136 c 0
 690 145 692 152 697 152 c 0
 700 152 702 146 707 128 c 2
 723 66 l 1
 641 7 539 -20 438 -20 c 0
 244 -20 42 95 42 311 c 0
 42 536 228 660 435 660 c 0
 544 660 640 630 718 571 c 1
EndSplineSet
Validated: 1
EndChar

StartChar: D
Encoding: 35 68 36
Width: 796
GlyphClass: 1
Flags: MW
HStem: -4 21G<30 35> 0 22 619 25<178 178 178 346>
VStem: 92 86<166 184 184 506 506 551> 645 107<241.5 413.5 241.5 439>
LayerCount: 2
Fore
SplineSet
178 619 m 1x78
 178 184 l 2
 178 60 197 31 240 27 c 0
 281 23 309 22 333 22 c 0
 358 22 383 23 408 25 c 0
 550 37 645 112 645 334 c 0
 645 544 548 619 346 619 c 2
 178 619 l 1x78
92 166 m 2
 92 506 l 2
 92 596 79 613 54 625 c 0
 48 629 43 631 43 636 c 0
 43 640 46 644 73 644 c 2
 380 644 l 2
 628 644 752 494 752 333 c 0
 752 150 622 16 422 0 c 0
 397 -2 371 -3 345 -3 c 0
 319 -3 274 0 228 0 c 2
 114 0 l 2x78
 93 0 75 -1 61 -2 c 0
 48 -3 38 -4 32 -4 c 0
 28 -4 25 -3 25 -1 c 0
 25 3 29 5 36 9 c 0xb8
 89 39 92 62 92 166 c 2
EndSplineSet
Validated: 1
EndChar

StartChar: E
Encoding: 36 69 37
Width: 704
GlyphClass: 1
Flags: MW
HStem: 0 25<268 367.5 268 644> 252 21G<537 540> 331 25<176 273 176 273> 615 25<176 358 176 176>
VStem: 90 86<189 201 201 331 356 538 538 557>
LayerCount: 2
Fore
SplineSet
176 331 m 1
 176 201 l 2
 176 162 179 124 183 85 c 0
 189 30 217 25 319 25 c 0
 416 25 525 30 612 78 c 0
 644 96 655 111 672 132 c 0
 675 135 678 137 681 137 c 0
 684 137 686 135 686 132 c 0
 686 129 686 125 684 120 c 2
 644 0 l 1
 36 0 l 2
 26 0 22 0 22 3 c 0
 22 7 27 12 40 15 c 0
 87 28 90 142 90 189 c 2
 90 538 l 2
 90 576 88 610 52 628 c 0
 48 630 45 631 45 634 c 0
 45 640 57 640 66 640 c 2
 598 640 l 1
 616 582 l 2
 624 557 635 517 635 513 c 0
 635 510 632 509 629 509 c 0
 626 509 622 514 619 519 c 0
 568 593 480 615 358 615 c 2
 176 615 l 1
 176 356 l 1
 273 356 l 2
 417 356 478 361 502 384 c 0
 517 399 523 410 530 426 c 0
 532 429 534 431 537 431 c 0
 542 431 542 425 542 415 c 2
 542 268 l 2
 542 262 542 252 538 252 c 0
 536 252 534 254 532 257 c 0
 525 272 518 285 498 299 c 0
 450 331 332 331 273 331 c 2
 176 331 l 1
EndSplineSet
Validated: 1
EndChar

StartChar: F
Encoding: 37 70 38
Width: 648
GlyphClass: 1
Flags: MW
HStem: -3 21G<28.5 35.5 223.5 232.5> 331 25<176 337 337 342 176 337> 615 25<176 332 176 176>
VStem: 90 86<170 171 171 331 356 565 565 581.5>
LayerCount: 2
Fore
SplineSet
608 640 m 1
 626 582 l 2
 633 557 645 517 645 513 c 0
 645 510 642 509 639 509 c 0
 636 509 632 514 629 519 c 0
 578 593 462 615 332 615 c 2
 176 615 l 1
 176 356 l 1
 337 356 l 2
 458 356 488 368 513 389 c 0
 524 399 530 411 533 420 c 0
 535 425 538 429 540 429 c 0
 545 429 546 423 546 415 c 2
 546 245 l 2
 546 241 545 240 543 240 c 0
 541 240 536 246 533 255 c 0
 520 293 471 331 342 331 c 2
 176 331 l 1
 176 171 l 2
 176 85 184 29 229 9 c 0
 234 7 239 4 239 1 c 0
 239 -2 236 -3 229 -3 c 0
 218 -3 196 0 134 0 c 0
 75 0 40 -3 31 -3 c 0
 26 -3 24 -2 24 1 c 0
 24 3 29 5 33 6 c 0
 86 24 90 84 90 170 c 2
 90 565 l 2
 90 598 81 614 52 627 c 0
 48 628 42 630 42 635 c 0
 42 638 48 640 65 640 c 2
 608 640 l 1
EndSplineSet
Validated: 1
EndChar

StartChar: G
Encoding: 38 71 39
Width: 815
GlyphClass: 1
Flags: MW
HStem: -20 25<352.5 481.5 352.5 489> 322 10 635 25<333.5 478 333 485>
VStem: 42 107<221.5 406 217.5 438.5> 631 96<111 196 196 247>
LayerCount: 2
Fore
SplineSet
727 265 m 2
 727 71 l 1
 637 9 544 -20 434 -20 c 0
 226 -20 42 114 42 329 c 0
 42 548 264 660 402 660 c 0
 554 660 670 622 726 577 c 1
 698 492 l 2
 696 486 692 478 688 478 c 0
 685 478 685 485 679 499 c 0
 644 582 537 635 433 635 c 0
 234 635 149 497 149 315 c 0
 149 120 261 5 444 5 c 0
 519 5 628 28 631 111 c 2
 631 196 l 2
 631 298 616 299 517 322 c 0
 516 322 514 324 514 326 c 0
 514 332 522 332 534 332 c 0
 582 332 630 328 678 328 c 0
 697 328 726 332 764 332 c 0
 777 332 785 332 785 324 c 0
 785 321 782 319 776 318 c 0
 747 309 727 298 727 265 c 2
EndSplineSet
Validated: 1
EndChar

StartChar: H
Encoding: 39 72 40
Width: 796
GlyphClass: 1
Flags: MW
HStem: -3 21G<40 48.5 219.5 227 570 577.5 748.5 757> 331 25<179 618 179 618> 624 20G<58.5 71 194.5 208 589 602.5 726 738.5>
VStem: 93 86<191 331 356 543> 618 86<191 331 331 331 356 543>
LayerCount: 2
Fore
SplineSet
93 191 m 2
 93 543 l 2
 93 575 91 618 56 631 c 0
 52 633 49 634 49 638 c 0
 49 644 52 644 65 644 c 0
 77 644 99 640 136 640 c 0
 159 640 183 644 206 644 c 0
 210 644 223 644 223 639 c 0
 223 635 221 632 216 631 c 0
 182 621 179 582 179 543 c 2
 179 356 l 1
 618 356 l 1
 618 543 l 2
 618 582 615 621 581 631 c 0
 576 632 574 635 574 639 c 0
 574 644 587 644 591 644 c 0
 614 644 638 640 661 640 c 0
 698 640 720 644 732 644 c 0
 745 644 748 644 748 638 c 0
 748 634 745 633 741 631 c 0
 706 618 704 575 704 543 c 2
 704 191 l 2
 704 127 707 39 751 11 c 0
 758 6 765 3 765 1 c 0
 765 -2 761 -3 753 -3 c 0
 744 -3 717 0 661 0 c 0
 613 0 582 -3 573 -3 c 0
 567 -3 562 -2 562 0 c 0
 562 3 565 6 573 9 c 0
 618 29 618 100 618 191 c 2
 618 331 l 1
 179 331 l 1
 179 191 l 2
 179 100 179 29 224 9 c 0
 232 6 235 3 235 0 c 0
 235 -2 230 -3 224 -3 c 0
 215 -3 184 0 136 0 c 0
 80 0 53 -3 44 -3 c 0
 36 -3 32 -2 32 1 c 0
 32 3 39 6 46 11 c 0
 90 39 93 127 93 191 c 2
EndSplineSet
Validated: 1
EndChar

StartChar: I
Encoding: 40 73 41
Width: 278
GlyphClass: 1
Flags: MW
HStem: -3 21G<43 51.5 222.5 230> 624 20G<61.5 74 197.5 211>
VStem: 96 86<191 543>
LayerCount: 2
Fore
SplineSet
96 191 m 2
 96 543 l 2
 96 575 94 618 59 631 c 0
 55 633 52 634 52 638 c 0
 52 644 55 644 68 644 c 0
 80 644 102 640 139 640 c 0
 162 640 186 644 209 644 c 0
 213 644 226 644 226 639 c 0
 226 635 224 632 219 631 c 0
 185 621 182 582 182 543 c 2
 182 191 l 2
 182 100 182 29 227 9 c 0
 235 6 238 3 238 0 c 0
 238 -2 233 -3 227 -3 c 0
 218 -3 187 0 139 0 c 0
 83 0 56 -3 47 -3 c 0
 39 -3 35 -2 35 1 c 0
 35 3 42 6 49 11 c 0
 93 39 96 127 96 191 c 2
EndSplineSet
Validated: 1
EndChar

StartChar: J
Encoding: 41 74 42
Width: 426
GlyphClass: 1
Flags: MW
HStem: -20 31<110 158.5> 624 20G<212.5 225 351 367>
VStem: 247 86<224 566>
LayerCount: 2
Fore
SplineSet
-5 0 m 1
 20 85 l 2
 21 90 23 95 26 95 c 0
 29 95 30 94 31 91 c 0
 47 37 82 11 138 11 c 0
 241 11 247 151 247 224 c 2
 247 566 l 2
 247 598 237 615 210 631 c 0
 206 634 203 636 203 638 c 0
 203 642 206 644 219 644 c 0
 231 644 253 640 290 640 c 0
 313 640 337 644 365 644 c 0
 369 644 377 644 377 639 c 0
 377 636 374 634 370 632 c 0
 342 616 333 598 333 566 c 2
 333 222 l 2
 333 80 229 -20 88 -20 c 0
 56 -20 23 -15 -5 0 c 1
EndSplineSet
Validated: 1
EndChar

StartChar: K
Encoding: 42 75 43
Width: 722
GlyphClass: 1
Flags: MW
HStem: -3 21G<64.5 76 236.5 249.5 568 574.5 720.5 727.5> 330 23<260 260 260 300> 624 20G<72 80 210.5 226 497.5 511.5 626 652.5>
VStem: 109 86<148 268 338 510 510 543>
LayerCount: 2
Fore
SplineSet
568 -3 m 1
 420 213 l 2
 386 261 333 330 267 330 c 0
 229 330 195 312 195 268 c 2
 195 148 l 2
 195 96 201 28 234 14 c 0
 247 9 256 4 256 1 c 0
 256 -2 253 -3 246 -3 c 0
 227 -3 200 0 152 0 c 0
 104 0 82 -3 70 -3 c 0
 59 -3 53 -2 53 1 c 0
 53 3 59 7 74 13 c 0
 99 23 109 98 109 148 c 2
 109 510 l 2
 109 579 102 616 72 631 c 0
 67 633 65 637 65 639 c 0
 65 641 68 644 76 644 c 0
 84 644 115 640 152 640 c 0
 175 640 199 644 222 644 c 0
 230 644 232 641 232 638 c 0
 232 634 226 630 218 626 c 0
 198 618 195 577 195 543 c 2
 195 338 l 1
 370 469 l 2
 441 524 508 580 508 603 c 0
 508 614 503 621 497 625 c 0
 491 630 485 632 485 636 c 0
 485 642 493 644 502 644 c 0
 521 644 541 640 560 640 c 0
 586 640 613 644 639 644 c 0
 666 644 677 641 677 636 c 0
 677 631 651 623 624 611 c 0
 576 589 555 576 511 544 c 2
 260 355 l 1
 260 353 l 1
 428 346 458 323 547 192 c 0
 587 132 639 58 702 22 c 0
 722 10 737 5 737 1 c 0
 737 -1 730 -3 725 -3 c 0
 716 -3 700 0 644 0 c 0
 619 0 581 -3 568 -3 c 1
EndSplineSet
Validated: 1
EndChar

StartChar: L
Encoding: 43 76 44
Width: 667
GlyphClass: 1
Flags: MW
HStem: -1 21G<57 63> 0 25<252.5 348.5 252.5 613> 624 20G<65.5 78 224.5 237>
VStem: 103 86<183 260 260 534 534 543>
LayerCount: 2
Fore
SplineSet
613 0 m 1x70
 105 0 l 2x70
 84 0 69 -1 57 -1 c 0
 46 -2 40 -3 36 -3 c 0
 28 -3 25 -2 25 3 c 0
 25 7 31 9 39 11 c 0xb0
 89 26 103 64 103 183 c 2
 103 534 l 2
 103 602 90 622 62 630 c 0
 56 632 54 635 54 637 c 0
 54 641 59 644 72 644 c 0
 84 644 106 640 143 640 c 0
 186 640 214 644 235 644 c 0
 239 644 246 644 246 638 c 0
 246 634 242 633 238 631 c 0
 198 620 190 582 189 543 c 2
 189 260 l 2
 189 36 204 25 301 25 c 0
 396 25 564 36 632 119 c 0
 637 127 642 134 648 134 c 0
 652 134 653 131 653 127 c 0
 653 125 652 119 651 115 c 2
 613 0 l 1x70
EndSplineSet
Validated: 1
EndChar

StartChar: M
Encoding: 44 77 45
Width: 870
GlyphClass: 1
Flags: MW
HStem: -8 21G<393.5 401.5> -3 21G 565 79<45.5 118 45.5 116> 572 68<692 692>
VStem: 84 32<189 524 524 557> 692 86<178 218 218 543>
LayerCount: 2
Fore
SplineSet
209 577 m 2x6c
 436 125 l 1
 692 640 l 1
 806 640 l 2
 821 640 823 639 823 635 c 0
 822 630 815 630 808 626 c 0
 781 611 778 587 778 543 c 2
 778 218 l 2
 778 138 789 71 802 40 c 0
 814 12 840 12 840 3 c 0
 840 0 834 -3 827 -3 c 0
 815 -3 784 0 738 0 c 0
 685 0 645 -3 639 -3 c 0
 633 -3 632 1 632 3 c 0
 632 6 652 9 665 23 c 0x5c
 683 41 692 71 692 148 c 2
 692 572 l 1
 690 572 l 1
 420 18 l 2
 412 3 405 -8 398 -8 c 0
 389 -8 385 7 378 22 c 2x9c
 118 565 l 1
 116 565 l 1
 116 160 l 2
 116 58 139 37 170 14 c 0
 178 8 182 5 182 1 c 0
 182 -2 178 -3 163 -3 c 0
 153 -3 136 0 100 0 c 0
 51 0 32 -3 22 -3 c 0
 14 -3 11 -1 11 2 c 0
 11 5 21 10 28 15 c 0
 73 52 84 116 84 189 c 2
 84 524 l 2
 84 590 76 611 44 628 c 0
 37 632 31 634 31 639 c 0
 32 643 44 644 47 644 c 0
 69 644 91 640 113 640 c 0
 128 640 144 644 159 644 c 0
 165 644 171 644 177 641 c 0
 181 638 204 585 209 577 c 2x6c
EndSplineSet
Validated: 1
EndChar

StartChar: N
Encoding: 45 78 46
Width: 759
GlyphClass: 1
Flags: MW
HStem: -20 21G<659 664 664 666> -3 21G<14.5 24 180 188.5> 567 73<122 122> 622 20G 624 20G<34.5 45 576.5 589.5 718.5 736>
VStem: 90 32<181 524 524 524> 644 32<146 480>
LayerCount: 2
Fore
SplineSet
90 181 m 2x4e
 90 524 l 2
 89 577 82 614 36 630 c 0
 31 632 27 635 27 637 c 0
 27 641 29 644 40 644 c 0x4e
 50 644 90 640 114 640 c 0x56
 139 640 168 641 189 642 c 1
 225 591 267 545 311 501 c 2
 644 146 l 1
 644 480 l 2
 644 565 615 607 588 623 c 0
 575 630 565 630 565 635 c 0
 565 640 571 644 582 644 c 0
 597 644 640 640 660 640 c 0
 681 640 708 644 729 644 c 0
 743 644 746 639 746 636 c 0
 746 633 741 630 730 625 c 0x4e
 705 615 676 588 676 480 c 2
 676 75 l 2
 676 22 673 -20 666 -20 c 2
 664 -20 l 2
 654 -20 642 3 580 74 c 0
 458 214 278 416 122 567 c 1xa6
 122 160 l 2
 122 58 151 28 173 15 c 0
 187 6 194 6 194 1 c 0
 194 -2 191 -3 186 -3 c 0
 174 -3 142 0 106 0 c 0
 85 0 30 -3 18 -3 c 0
 11 -3 7 -2 7 1 c 0
 7 7 32 11 47 24 c 0
 79 52 90 92 90 181 c 2x4e
EndSplineSet
Validated: 1
EndChar

StartChar: O
Encoding: 46 79 47
Width: 833
GlyphClass: 1
Flags: MW
HStem: -20 25<322 510> 635 25<322 510 322 511>
VStem: 42 107<226 407 226 428> 683 107<226 407>
LayerCount: 2
Fore
SplineSet
416 5 m 0
 606 5 683 139 683 313 c 0
 683 501 606 635 416 635 c 0
 226 635 149 501 149 313 c 0
 149 139 226 5 416 5 c 0
416 -20 m 0
 228 -20 42 106 42 322 c 0
 42 534 228 660 416 660 c 0
 604 660 790 534 790 322 c 0
 790 106 604 -20 416 -20 c 0
EndSplineSet
Validated: 1
Substitution2: "'sups' Superscript in Latin lookup 5 subtable" ordmasculine
Substitution2: "'ordn' Ordinals in Latin lookup 4 subtable" ordmasculine
Substitution2: "'aalt' Access All Alternates in Latin lookup 0 subtable" ordmasculine
EndChar

StartChar: P
Encoding: 47 80 48
Width: 685
GlyphClass: 1
Flags: MW
HStem: -3 21G<25 32 236.5 245.5> 300 25<271 321.5 252.5 344.5> 619 25<260.5 296>
VStem: 90 86<195 302 332 542 542 558> 569 107<403.5 525 396.5 530>
LayerCount: 2
Fore
SplineSet
176 617 m 1
 176 332 l 1
 206 327 237 325 268 325 c 0
 375 325 569 329 569 478 c 0
 569 582 484 608 385 615 c 0
 350 617 315 619 277 619 c 0
 244 619 208 618 176 617 c 1
90 195 m 2
 90 542 l 2
 90 574 84 615 51 630 c 0
 44 634 42 636 42 638 c 0
 42 642 46 644 56 644 c 2
 348 644 l 2
 568 644 676 572 676 478 c 0
 676 315 399 300 290 300 c 0
 252 300 214 302 176 302 c 1
 176 179 l 2
 176 81 187 25 227 14 c 0
 247 8 252 8 252 1 c 0
 252 -1 250 -3 241 -3 c 0
 232 -3 162 0 134 0 c 0
 71 0 36 -3 28 -3 c 0
 22 -3 18 -1 18 2 c 0
 18 8 33 9 47 17 c 0
 73 33 90 81 90 195 c 2
EndSplineSet
Validated: 1
EndChar

StartChar: Q
Encoding: 48 81 49
Width: 833
GlyphClass: 1
Flags: MW
HStem: -64 69<321 349.5> -19 24<426 426> -18 23<388 388> 635 25<322 510 322 511>
VStem: 42 107<226 407 226 428> 388 38<-21 -19 -24 -18 -24 -18> 683 107<226 407>
LayerCount: 2
Fore
SplineSet
416 5 m 0x5e
 606 5 683 139 683 313 c 0
 683 501 606 635 416 635 c 0
 226 635 149 501 149 313 c 0
 149 139 226 5 416 5 c 0x5e
757 -161 m 2
 681 -198 l 2
 671 -203 662 -208 650 -208 c 0
 645 -208 630 -202 609 -191 c 2
 406 -86 l 2
 378 -73 365 -64 334 -64 c 0
 295 -64 273 -80 246 -105 c 0
 240 -110 236 -113 233 -113 c 0
 228 -113 226 -94 226 -90 c 0
 226 -78 264 -65 274 -61 c 2
 361 -27 l 2x9e
 371 -23 379 -21 388 -21 c 1
 388 -18 l 1x3e
 210 -7 42 117 42 322 c 0
 42 534 228 660 416 660 c 0
 604 660 790 534 790 322 c 0
 790 110 611 -15 426 -19 c 1
 426 -24 l 1
 672 -127 l 2
 698 -137 719 -143 730 -143 c 0
 743 -143 762 -141 773 -135 c 0
 775 -134 777 -133 780 -133 c 0
 782 -133 784 -134 784 -137 c 0
 784 -143 776 -151 757 -161 c 2
EndSplineSet
Validated: 1
EndChar

StartChar: R
Encoding: 49 82 50
Width: 759
GlyphClass: 1
Flags: MW
HStem: -3 12 0 21G<96.5 164 619 630 630 745> 325 25<176 361 176 285> 619 25<176 176 176 350 350 404>
VStem: 90 86<210 325 350 542 542 558> 576 107<431 530.5 423.5 539>
LayerCount: 2
Fore
SplineSet
176 619 m 1xbc
 176 350 l 1
 361 350 l 2
 462 350 576 369 576 493 c 0
 576 585 488 619 404 619 c 2
 176 619 l 1xbc
176 325 m 1
 176 179 l 2
 176 99 185 22 226 9 c 0
 233 7 242 4 242 1 c 0
 242 -1 234 -3 222 -3 c 0
 212 -3 194 0 134 0 c 0
 59 0 36 -3 32 -3 c 0
 28 -3 23 -2 23 1 c 0
 23 3 32 7 39 11 c 0xbc
 73 28 90 81 90 210 c 2
 90 542 l 2
 90 574 84 615 51 628 c 0
 40 632 36 636 36 639 c 0
 36 642 41 644 56 644 c 2
 350 644 l 2
 616 644 683 574 683 487 c 0
 683 360 509 332 446 332 c 1
 446 330 l 1
 561 298 606 277 650 161 c 0
 669 113 689 41 728 16 c 0
 745 5 752 8 752 3 c 0
 752 1 751 0 745 0 c 2
 630 0 l 2
 608 0 603 2 594 27 c 0x7c
 572 88 541 175 520 221 c 0
 480 308 442 325 285 325 c 2
 176 325 l 1
EndSplineSet
Validated: 1
EndChar

StartChar: S
Encoding: 50 83 51
Width: 667
GlyphClass: 1
Flags: MW
HStem: -20 25<269.5 363> 635 25<277.5 350>
VStem: 60 86<456 526.5> 539 86<113.5 196.5>
LayerCount: 2
Fore
SplineSet
388 280 m 2
 262 305 l 2
 180 321 60 358 60 462 c 0
 60 591 188 660 344 660 c 0
 430 660 530 638 606 598 c 1
 578 516 l 2
 574 505 570 495 567 495 c 0
 564 495 562 504 558 516 c 0
 528 608 386 635 314 635 c 0
 241 635 146 604 146 504 c 0
 146 408 269 391 339 377 c 2
 457 355 l 2
 546 338 625 293 625 193 c 0
 625 34 420 -20 306 -20 c 0
 213 -20 95 12 15 50 c 0
 8 53 5 55 5 56 c 0
 5 57 6 60 7 62 c 2
 40 163 l 2
 41 167 44 170 48 170 c 0
 51 170 54 167 55 162 c 0
 68 50 221 5 318 5 c 0
 410 5 539 42 539 153 c 0
 539 240 471 263 388 280 c 2
EndSplineSet
Validated: 1
EndChar

StartChar: T
Encoding: 51 84 52
Width: 704
GlyphClass: 1
Flags: MW
HStem: -3 14 615 25<211.5 266.5 437.5 492.5>
VStem: 309 86<214 574>
LayerCount: 2
Fore
SplineSet
46 640 m 1
 658 640 l 1
 690 529 l 2
 691 525 692 522 692 519 c 0
 692 517 692 515 690 515 c 0
 686 515 682 520 677 526 c 0
 633 592 530 615 455 615 c 0
 420 615 395 612 395 574 c 2
 395 196 l 2
 395 71 408 24 443 12 c 0
 458 7 468 3 468 1 c 0
 468 -2 464 -3 457 -3 c 0
 450 -3 426 0 356 0 c 0
 277 0 250 -3 240 -3 c 0
 232 -3 231 0 231 3 c 0
 231 8 242 8 256 11 c 0
 296 21 309 110 309 214 c 2
 309 574 l 2
 309 612 284 615 249 615 c 0
 174 615 71 592 27 526 c 0
 22 520 18 515 14 515 c 0
 12 515 12 517 12 519 c 0
 12 522 13 525 14 529 c 2
 46 640 l 1
EndSplineSet
Validated: 1
EndChar

StartChar: U
Encoding: 52 85 53
Width: 778
GlyphClass: 1
Flags: MW
HStem: -20 25<322.5 477.5 322.5 486> 622 20G<746 752> 624 20G<50.5 67 198 220.5 594.5 600.5>
VStem: 90 86<214 237 237 488> 659 32<260 277 277 479>
LayerCount: 2
Fore
SplineSet
90 214 m 2xb8
 90 543 l 2
 90 614 72 622 59 628 c 0
 49 632 44 634 44 638 c 0
 44 641 46 644 55 644 c 0
 79 644 105 640 129 640 c 0
 153 640 179 644 217 644 c 0
 224 644 232 642 232 639 c 0
 232 637 229 632 218 628 c 0
 178 614 176 550 176 488 c 2
 176 237 l 2
 176 102 246 5 399 5 c 0
 556 5 659 54 659 260 c 2
 659 479 l 2
 659 566 644 607 604 625 c 0
 589 632 584 635 584 639 c 0
 584 643 593 644 596 644 c 0xb8
 605 644 619 640 677 640 c 0xd8
 690 640 706 641 719 641 c 0
 733 642 744 642 748 642 c 0
 756 642 759 640 759 638 c 0
 759 635 750 631 742 626 c 0
 704 604 691 579 691 479 c 2
 691 277 l 2
 691 32 578 -20 394 -20 c 0
 164 -20 90 62 90 214 c 2xb8
EndSplineSet
Validated: 1
EndChar

StartChar: V
Encoding: 53 86 54
Width: 759
GlyphClass: 1
Flags: MW
HStem: -20 21G<371.5 374 374 376> 624 20G<8.5 24.5 161.5 181 586 602 733 749>
VStem: 2 755<636 639>
LayerCount: 2
Fore
SplineSet
671 534 m 2
 387 -8 l 2
 384 -14 381 -20 376 -20 c 2
 374 -20 l 2
 369 -20 366 -14 363 -8 c 2
 111 501 l 2
 82 560 44 605 23 621 c 0
 10 629 2 631 2 636 c 0
 2 642 6 644 11 644 c 0
 38 644 66 640 94 640 c 0
 120 640 148 644 175 644 c 0
 187 644 198 644 198 637 c 0
 198 633 189 631 181 625 c 0
 172 619 163 610 163 589 c 0
 163 578 172 548 198 500 c 2
 413 109 l 1
 598 468 l 2
 623 516 634 568 634 575 c 0
 634 600 622 615 606 621 c 0
 589 628 577 632 577 637 c 0
 577 641 583 644 589 644 c 0
 615 644 642 640 668 640 c 0
 693 640 720 644 746 644 c 0
 752 644 757 642 757 638 c 0
 757 634 748 633 732 619 c 0
 706 595 687 565 671 534 c 2
EndSplineSet
Validated: 1
EndChar

StartChar: W
Encoding: 54 87 55
Width: 1000
GlyphClass: 1
Flags: MW
HStem: -20 21G<306.5 308 308 310 698.5 700 700 702> 624 20G<28 172 172 181.5 843.5 853 979.5 994.5> 640 20G
VStem: 5 1001<636.5 641 636.5 641>
LayerCount: 2
Fore
SplineSet
194 472 m 2xb0
 340 140 l 1
 518 625 l 2
 526 647 530 660 534 660 c 2
 536 660 l 2
 540 660 544 647 552 625 c 2xb0
 734 140 l 1
 863 478 l 2
 877 514 883 543 882 582 c 0
 882 601 868 619 852 626 c 0
 842 631 832 632 832 637 c 0
 832 643 840 644 847 644 c 0
 859 644 896 640 919 640 c 0
 943 640 968 644 991 644 c 0
 998 644 1006 643 1006 639 c 0
 1006 634 996 626 988 621 c 0
 964 607 922 553 884 452 c 2
 718 15 l 2
 714 3 706 -20 702 -20 c 2
 700 -20 l 2
 697 -20 692 -8 684 15 c 2
 506 507 l 1
 504 507 l 1
 326 15 l 2
 322 3 314 -20 310 -20 c 2
 308 -20 l 2
 305 -20 300 -8 292 15 c 2
 87 520 l 2
 68 568 50 602 26 620 c 0
 10 632 5 633 5 638 c 0
 5 644 17 644 28 644 c 2
 172 644 l 2
 191 644 200 642 200 637 c 0
 200 633 186 630 178 625 c 0
 169 619 160 610 160 589 c 0xd0
 160 562 173 520 194 472 c 2xb0
EndSplineSet
Validated: 33
EndChar

StartChar: X
Encoding: 55 88 56
Width: 704
GlyphClass: 1
Flags: MW
HStem: -4 21G<19.5 26 180 197 477 481.5 666 683.5> 624 20G<56.5 63.5 234 242.5 495.5 502.5 644 659.5>
VStem: 14 680<-0.5 1>
LayerCount: 2
Fore
SplineSet
250 526 m 2
 366 374 l 1
 458 480 l 2
 494 522 525 566 525 592 c 0
 525 607 522 613 512 620 c 0
 501 628 489 631 489 636 c 0
 489 641 493 644 498 644 c 0
 507 644 558 640 580 640 c 0
 608 640 633 644 655 644 c 0
 664 644 666 637 666 634 c 0
 666 631 660 630 653 626 c 0
 641 619 613 599 606 593 c 0
 540 536 482 471 427 403 c 2
 384 351 l 1
 464 252 539 148 625 54 c 0
 642 36 663 20 675 12 c 0
 686 5 694 4 694 0 c 0
 694 -1 693 -4 674 -4 c 0
 658 -4 612 0 582 0 c 0
 512 0 484 -4 479 -4 c 0
 475 -4 472 -3 472 -1 c 0
 472 3 476 5 486 10 c 0
 494 14 497 25 497 34 c 0
 497 54 466 106 426 160 c 2
 333 289 l 1
 314 267 273 219 237 170 c 0
 201 121 169 70 169 43 c 0
 169 25 176 13 186 9 c 0
 195 5 203 1 203 -1 c 0
 203 -3 200 -4 194 -4 c 0
 166 -4 136 0 108 0 c 0
 41 0 30 -4 22 -4 c 0
 17 -4 14 -2 14 0 c 0
 14 2 25 5 41 14 c 0
 95 42 137 106 186 159 c 2
 315 314 l 1
 160 523 l 2
 124 571 95 607 76 617 c 0
 59 627 50 635 50 639 c 0
 50 642 54 644 59 644 c 0
 68 644 101 640 156 640 c 0
 201 640 228 644 240 644 c 0
 245 644 249 642 249 639 c 0
 249 635 243 631 231 626 c 0
 219 621 217 605 217 589 c 0
 217 578 226 558 250 526 c 2
EndSplineSet
Validated: 1
EndChar

StartChar: Y
Encoding: 56 89 57
Width: 704
GlyphClass: 1
Flags: MW
HStem: -2 21G<246.5 256 429 438.5> 624 20G<4 13.5 192 206.5 539 541 541 558.5 686 701 701 701>
VStem: 300 86<148 275 275 275>
LayerCount: 2
Fore
SplineSet
386 285 m 1
 386 148 l 2
 386 71 394 41 412 23 c 0
 429 9 446 4 446 2 c 0
 446 0 442 -2 435 -2 c 0
 423 -2 392 0 346 0 c 0
 293 0 262 -2 250 -2 c 0
 243 -2 241 1 241 2 c 0
 241 6 259 9 273 23 c 0
 291 41 300 71 300 148 c 2
 300 275 l 1
 149 475 l 2
 120 509 63 583 29 614 c 0
 20 622 -1 631 -1 638 c 0
 -1 642 2 644 6 644 c 0
 21 644 66 640 94 640 c 0
 129 640 180 644 204 644 c 0
 209 644 212 641 212 636 c 0
 212 633 204 633 197 630 c 0
 184 626 171 617 171 597 c 0
 171 571 192 537 231 491 c 2
 372 321 l 1
 485 451 l 2
 510 481 575 551 575 593 c 0
 575 616 556 627 543 631 c 0
 540 632 534 634 534 638 c 0
 534 641 535 644 539 644 c 2
 541 644 l 2
 576 644 597 641 616 641 c 0
 641 641 664 644 686 644 c 2
 701 644 l 2
 705 642 706 640 706 637 c 0
 706 634 704 631 699 627 c 0
 638 578 561 500 515 442 c 2
 386 285 l 1
EndSplineSet
Validated: 1
EndChar

StartChar: Z
Encoding: 57 90 58
Width: 630
GlyphClass: 1
Flags: MW
HStem: 0 25<283 366.5 283 574> 615 25<255 391.5>
VStem: 20 595<0 128.5>
LayerCount: 2
Fore
SplineSet
597 640 m 1
 372 334 l 2
 278 206 191 78 191 53 c 0
 191 25 251 25 315 25 c 0
 418 25 514 41 590 116 c 0
 600 127 605 133 610 133 c 0
 614 133 615 130 615 127 c 0
 615 125 615 123 614 121 c 2
 574 0 l 1
 20 0 l 1
 260 312 l 2
 356 442 451 566 451 591 c 0
 451 606 438 615 345 615 c 0
 165 615 110 582 60 531 c 0
 51 522 49 517 44 517 c 0
 42 517 41 519 41 522 c 0
 41 527 46 543 47 547 c 2
 79 640 l 1
 597 640 l 1
EndSplineSet
Validated: 1
EndChar

StartChar: bracketleft
Encoding: -1 91 59
Width: 259
GlyphClass: 1
Flags: MW
HStem: -179 15<174 196 174 196> 645 15<174 196>
VStem: 55 69<9 472 472 544>
LayerCount: 2
Fore
SplineSet
124 545 m 2
 124 -64 l 2
 124 -125 152 -164 196 -164 c 1
 196 -179 l 1
 112 -179 55 -135 55 9 c 2
 55 472 l 2
 55 616 112 660 196 660 c 1
 196 645 l 1
 152 645 124 606 124 545 c 2
EndSplineSet
Validated: 1
EndChar

StartChar: backslash
Encoding: -1 92 60
Width: 278
GlyphClass: 1
Flags: MW
HStem: -20 21G<242 298 242 242> 640 20G<-19 37 37 37>
VStem: -19 317
LayerCount: 2
Fore
SplineSet
37 660 m 1
 298 -20 l 1
 242 -20 l 1
 -19 660 l 1
 37 660 l 1
EndSplineSet
Validated: 1
EndChar

StartChar: bracketright
Encoding: -1 93 61
Width: 259
GlyphClass: 1
Flags: MW
HStem: -179 15<63 85 63 105> 645 15<63 85>
VStem: 135 69<-63 9 9 472>
LayerCount: 2
Fore
SplineSet
135 -64 m 2
 135 545 l 2
 135 606 107 645 63 645 c 1
 63 660 l 1
 147 660 204 616 204 472 c 2
 204 9 l 2
 204 -135 147 -179 63 -179 c 1
 63 -164 l 1
 107 -164 135 -125 135 -64 c 2
EndSplineSet
Validated: 1
EndChar

StartChar: asciicircum
Encoding: -1 94 62
Width: 600
GlyphClass: 1
Flags: MW
HStem: 250 21G<91 153 91 91 447 447 447 509> 545 70<300 300> 595 20G<274 326 326 326>
VStem: 91 418<250 250>
LayerCount: 2
Fore
SplineSet
153 250 m 1xb0
 91 250 l 1
 274 615 l 1
 326 615 l 1
 509 250 l 1
 447 250 l 1
 300 545 l 1xd0
 153 250 l 1xb0
EndSplineSet
Validated: 1
EndChar

StartChar: underscore
Encoding: -1 95 63
Width: 500
GlyphClass: 1
Flags: MW
HStem: -125 50<0 500 0 500>
VStem: 0 500<-125 -75 -125 -75>
LayerCount: 2
Fore
SplineSet
0 -75 m 1
 500 -75 l 1
 500 -125 l 1
 0 -125 l 1
 0 -75 l 1
EndSplineSet
Validated: 1
EndChar

StartChar: grave
Encoding: -1 96 64
Width: 259
GlyphClass: 1
Flags: MW
HStem: 583 172<4.5 163 4.5 205>
VStem: -20 225<583 733>
LayerCount: 2
Fore
SplineSet
163 583 m 1
 15 678 l 2
 -5 693 -20 704 -20 721 c 0
 -20 745 -3 755 12 755 c 0
 29 755 44 744 57 730 c 2
 205 583 l 1
 163 583 l 1
EndSplineSet
Validated: 1
EndChar

StartChar: a
Encoding: 58 97 65
Width: 611
GlyphClass: 1
Flags: MW
HStem: -15 25<240.5 295> -2 21G<487 496.5 565 569.5> 296 25<377 379 379 453> 510 25<258 356.5>
VStem: 36 96<99 209.5 99 221.5> 453 80<252 296 296 296 321 340>
LayerCount: 2
Fore
SplineSet
453 296 m 1xbc
 379 296 l 2
 273 296 132 276 132 143 c 0
 132 55 200 10 281 10 c 0
 431 10 453 130 453 252 c 2
 453 296 l 1xbc
533 340 m 2
 533 150 l 2
 533 87 541 22 568 13 c 0
 573 11 576 8 576 5 c 0
 576 1 572 -2 567 -2 c 0
 563 -2 539 0 528 0 c 0
 515 0 502 -2 491 -2 c 0
 483 -2 479 3 479 6 c 0x7c
 479 31 465 72 462 100 c 1
 460 100 l 1
 417 14 341 -15 249 -15 c 0
 152 -15 36 36 36 145 c 0
 36 298 264 321 377 321 c 2
 453 321 l 1
 453 438 420 510 293 510 c 0
 223 510 110 472 101 393 c 0
 101 390 99 389 96 389 c 0
 94 389 93 389 92 392 c 2
 65 487 l 1
 143 521 225 535 290 535 c 0
 472 535 533 456 533 340 c 2
EndSplineSet
Validated: 1
Substitution2: "'sups' Superscript in Latin lookup 5 subtable" ordfeminine
Substitution2: "'ordn' Ordinals in Latin lookup 4 subtable" ordfeminine
Substitution2: "'aalt' Access All Alternates in Latin lookup 0 subtable" ordfeminine
EndChar

StartChar: b
Encoding: 59 98 66
Width: 667
GlyphClass: 1
Flags: MW
HStem: -15 25<307 412.5 271.5 445.5> 0 21G<22.5 24 24 111> 510 25<306 423> 705 20G<148 148>
VStem: 74 74<242 318 407 599 599 629> 541 96<195.5 323.5>
LayerCount: 2
Fore
SplineSet
352 510 m 0xbc
 201 510 148 384 148 252 c 0
 148 127 198 10 345 10 c 0
 480 10 541 129 541 262 c 0
 541 385 494 510 352 510 c 0xbc
148 725 m 1
 148 407 l 1
 150 407 l 1
 186 489 261 535 351 535 c 0
 508 535 637 430 637 270 c 0
 637 111 527 -15 364 -15 c 0xbc
 250 -15 204 16 144 91 c 1
 111 0 l 1
 24 0 l 2
 21 0 21 1 21 3 c 0
 21 5 25 9 30 14 c 0x7c
 68 49 74 126 74 242 c 2
 74 599 l 2
 74 659 59 677 35 684 c 0
 27 686 23 689 23 691 c 0
 23 694 30 696 37 698 c 2
 148 725 l 1
EndSplineSet
Validated: 1
EndChar

StartChar: c
Encoding: 60 99 67
Width: 593
GlyphClass: 1
Flags: MW
HStem: -15 25<268.5 371> 510 25<255 330>
VStem: 37 96<191 322.5 191 340>
LayerCount: 2
Fore
SplineSet
556 475 m 1
 531 390 l 2
 529 383 527 381 524 381 c 0
 520 381 515 389 501 421 c 0
 480 486 389 508 330 510 c 0
 180 510 133 390 133 255 c 0
 133 127 199 10 338 10 c 0
 458 10 527 107 545 134 c 0
 549 142 553 145 556 145 c 0
 561 145 564 134 564 131 c 0
 564 127 562 123 560 120 c 0
 498 27 422 -15 320 -15 c 0
 166 -15 37 97 37 256 c 0
 37 424 163 535 330 535 c 1
 441 531 533 497 556 475 c 1
EndSplineSet
Validated: 1
EndChar

StartChar: d
Encoding: 61 100 68
Width: 667
GlyphClass: 1
Flags: MW
HStem: -15 25<253 362> 0 21G<550 557 632 643.5> 510 25<249.5 370 245 395> 705 20G<600 600>
VStem: 37 96<196 313.5 196 339> 526 74<110 221 446 585 585 603>
LayerCount: 2
Fore
SplineSet
321 510 m 0xbc
 178 510 133 373 133 254 c 0
 133 138 188 10 318 10 c 0
 471 10 524 130 524 267 c 0
 524 405 469 510 321 510 c 0xbc
483 691 m 2
 600 725 l 1
 600 221 l 2
 600 95 611 37 635 20 c 0
 643 14 649 9 649 6 c 0
 649 2 647 0 640 0 c 0
 624 0 609 4 595 4 c 0
 579 4 564 0 550 0 c 1x7c
 526 110 l 1
 478 31 409 -15 315 -15 c 0
 157 -15 37 97 37 254 c 0
 37 424 162 535 328 535 c 0
 412 535 486 486 526 446 c 1
 526 585 l 2
 526 621 520 666 491 675 c 0
 477 679 474 681 474 683 c 0
 474 687 478 689 483 691 c 2
EndSplineSet
Validated: 1
EndChar

StartChar: e
Encoding: 62 101 69
Width: 630
GlyphClass: 1
Flags: MW
HStem: -15 29<267 374> 330 25<141 490 141 586 139 490> 510 25<272 372>
VStem: 37 96<207.5 289 207.5 332.5> 490 96<330 403.5>
LayerCount: 2
Fore
SplineSet
586 330 m 1
 139 330 l 1
 136 315 133 297 133 281 c 0
 133 134 188 14 346 14 c 0
 497 14 569 159 575 192 c 0
 576 198 580 206 588 206 c 0
 594 206 596 202 596 197 c 0
 596 189 594 180 591 172 c 0
 554 54 441 -15 307 -15 c 0
 152 -15 37 115 37 267 c 0
 37 398 144 535 319 535 c 0
 449 535 574 465 586 330 c 1
141 355 m 1
 490 355 l 1
 490 452 419 510 325 510 c 0
 219 510 163 452 141 355 c 1
EndSplineSet
Validated: 1
EndChar

StartChar: f
Encoding: 63 102 70
Width: 315
GlyphClass: 1
Flags: MW
HStem: -2 21G<62 73 224 230> 465 25<19 100 26 100 26 100 174 259> 705 20G<326 326>
VStem: 100 74<170.5 225 225 465 490 538 538 601>
LayerCount: 2
Fore
SplineSet
19 465 m 1
 26 490 l 1
 100 490 l 1
 100 538 l 2
 100 664 216 709 326 725 c 1
 299 641 l 1
 285 659 264 678 231 678 c 0
 201 678 174 651 174 612 c 2
 174 490 l 1
 266 490 l 1
 259 465 l 1
 174 465 l 1
 174 225 l 2
 174 116 185 42 213 19 c 0
 222 11 237 7 237 2 c 0
 237 -1 233 -2 227 -2 c 0
 221 -2 200 0 137 0 c 0
 108 0 80 -2 66 -2 c 0
 58 -2 55 -1 55 1 c 0
 55 4 62 6 69 12 c 0
 95 33 100 67 100 100 c 2
 100 465 l 1
 19 465 l 1
EndSplineSet
Validated: 1
EndChar

StartChar: g
Encoding: 64 103 71
Width: 630
GlyphClass: 1
Flags: MW
HStem: -198 25<255.5 347> 47 12 170 20<217 361.5> 502 20G 515 20<248.5 312 241.5 353> 553 52
VStem: 12 78<-101.5 -13.5> 53 86<309 402.5 297 413> 103 81<124.5 137> 467 86<301.5 395 294.5 409.5> 527 71<-90.5 -7>
LayerCount: 2
Fore
SplineSet
272 47 m 0xaa20
 199 47 90 38 90 -59 c 0
 90 -148 224 -173 287 -173 c 0
 442 -173 527 -124 527 -57 c 0
 527 43 333 47 272 47 c 0xaa20
301 515 m 0xa940
 196 515 139 455 139 350 c 0
 139 244 204 190 307 190 c 0
 416 190 467 248 467 355 c 0
 467 464 405 515 301 515 c 0xa940
605 605 m 1xb540
 576 520 l 1
 547 541 530 553 493 553 c 0
 463 553 435 538 416 516 c 1
 493 487 553 439 553 351 c 0
 553 238 440 180 341 172 c 0
 303 169 264 170 226 170 c 0
 208 170 184 167 184 144 c 0xacc0
 184 105 354 100 385 97 c 0
 458 93 598 71 598 -28 c 0
 598 -170 417 -198 277 -198 c 0
 163 -198 12 -155 12 -48 c 0xea20
 12 21 122 52 176 59 c 1
 176 61 l 1
 146 66 103 77 103 115 c 0xe8c0
 103 159 169 181 205 182 c 1
 205 184 l 1
 135 200 53 267 53 351 c 0
 53 475 188 535 295 535 c 0xa940
 329 535 363 529 396 522 c 1
 448 586 525 609 605 605 c 1xb540
EndSplineSet
Validated: 33
EndChar

StartChar: h
Encoding: 65 104 72
Width: 648
GlyphClass: 1
Flags: MW
HStem: -2 21G<29.5 40.5 189.5 200.5 446 455 605.5 613> 510 25<308 375.5> 705 20G<152 152>
VStem: 78 74<103.5 140 140 294 405 627 627 640.5> 491 80<106.5 146 146 296 296 342>
LayerCount: 2
Fore
SplineSet
152 725 m 1
 152 405 l 1
 155 405 l 1
 188 490 263 535 353 535 c 0
 458 535 571 486 571 342 c 2
 571 146 l 2
 571 67 578 25 602 13 c 0
 613 7 621 4 621 2 c 0
 621 -1 615 -2 611 -2 c 0
 600 -2 563 0 531 0 c 0
 499 0 462 -2 448 -2 c 0
 444 -2 441 -2 441 2 c 0
 441 7 450 8 458 13 c 0
 486 32 491 67 491 100 c 2
 491 296 l 2
 491 466 418 510 333 510 c 0
 226 510 152 412 152 294 c 2
 152 140 l 2
 152 67 157 33 188 13 c 0
 198 7 206 3 206 1 c 0
 206 -2 203 -2 198 -2 c 0
 181 -2 144 0 115 0 c 0
 86 0 49 -2 32 -2 c 0
 27 -2 23 -1 23 3 c 0
 23 6 32 9 42 15 c 0
 73 33 78 67 78 100 c 2
 78 627 l 2
 78 654 70 676 42 681 c 0
 38 682 33 683 33 687 c 0
 33 689 39 693 42 693 c 2
 152 725 l 1
EndSplineSet
Validated: 1
EndChar

StartChar: i
Encoding: 66 105 73
Width: 259
GlyphClass: 1
Flags: MW
HStem: -2 12 500 20G<170 170> 594 96<122 144>
VStem: 86 94<627 657> 96 74<156 178 178 448 448 458>
LayerCount: 2
Fore
SplineSet
170 520 m 1xe8
 170 178 l 2
 170 67 188 17 212 10 c 0
 221 8 228 7 228 2 c 0
 228 -1 221 -2 216 -2 c 0
 199 -2 162 0 133 0 c 0
 82 0 61 -2 50 -2 c 0
 45 -2 42 -2 42 2 c 0
 42 7 49 10 59 14 c 0
 93 30 96 67 96 156 c 2
 96 448 l 2
 96 468 79 471 63 480 c 0
 58 482 54 483 54 486 c 0
 54 489 57 490 61 491 c 2
 170 520 l 1xe8
133 690 m 0xf0
 155 690 180 672 180 642 c 0
 180 612 155 594 133 594 c 0
 111 594 86 612 86 642 c 0
 86 672 111 690 133 690 c 0xf0
EndSplineSet
Validated: 1
EndChar

StartChar: j
Encoding: 67 106 74
Width: 259
GlyphClass: 1
Flags: MW
HStem: -198 39 -190 21G<-65 -65> 500 20G<179 179> 594 96<131 153>
VStem: 95 94<627 657> 105 74<95 105 105 402 402 435>
LayerCount: 2
Fore
SplineSet
179 520 m 1xb4
 179 105 l 2
 179 31 176 3 170 -27 c 0
 151 -121 67 -195 -30 -198 c 0xb4
 -41 -198 -54 -196 -65 -190 c 1
 -42 -125 l 2
 -40 -121 -36 -115 -33 -115 c 0x74
 -29 -115 -27 -119 -23 -127 c 0
 -15 -141 1 -159 33 -159 c 0
 86 -159 105 -91 105 95 c 2
 105 402 l 2
 105 468 88 473 71 482 c 0
 64 486 59 487 59 490 c 0
 59 492 64 494 67 495 c 2
 179 520 l 1xb4
142 690 m 0xb8
 164 690 189 672 189 642 c 0
 189 612 164 594 142 594 c 0
 120 594 95 612 95 642 c 0
 95 672 120 690 142 690 c 0xb8
EndSplineSet
Validated: 1
EndChar

StartChar: k
Encoding: 68 107 75
Width: 574
GlyphClass: 1
Flags: MW
HStem: -2 21G<39 53.5 202.5 216> 0 21G<113.5 142.5 453 587 453 453> 285 24<230 249> 503 20G<370 381.5 525 538> 705 20G<165 165>
VStem: 91 74<183 185 296 577 577 615.5>
LayerCount: 2
Fore
SplineSet
165 725 m 1x7c
 165 296 l 1
 185 308 240 346 290 386 c 0
 340 426 385 468 385 487 c 0
 385 499 383 507 372 513 c 0
 367 516 361 516 361 518 c 0
 361 522 364 523 376 523 c 0
 387 523 417 520 457 520 c 0
 489 520 517 523 533 523 c 0
 543 523 556 521 556 518 c 0
 556 514 550 513 540 511 c 0
 502 504 440 467 382 424 c 2
 230 311 l 1
 230 309 l 1
 353 309 389 261 447 168 c 0
 473 126 497 89 524 61 c 0
 544 39 564 25 584 16 c 0
 594 11 603 8 603 5 c 0
 603 2 599 0 587 0 c 2
 453 0 l 1x7c
 354 167 l 2
 327 213 279 285 219 285 c 0
 169 285 165 232 165 185 c 2
 165 120 l 2
 165 77 174 23 202 13 c 0
 212 10 225 5 225 1 c 0
 225 -1 221 -2 211 -2 c 0
 194 -2 157 0 128 0 c 0
 99 0 62 -2 45 -2 c 0
 33 -2 28 -1 28 1 c 0
 28 4 40 8 53 17 c 0xbc
 82 36 91 94 91 183 c 2
 91 577 l 2
 91 654 79 677 56 683 c 0
 46 685 41 687 41 690 c 0
 41 695 51 697 55 698 c 2
 165 725 l 1x7c
EndSplineSet
Validated: 1
EndChar

StartChar: l
Encoding: 69 108 76
Width: 259
GlyphClass: 1
Flags: MW
HStem: -2 21G<41 58.5 205 213.5> 705 20G<170 170>
VStem: 96 74<224 579 579 616.5>
LayerCount: 2
Fore
SplineSet
170 725 m 1
 170 145 l 2
 170 87 175 28 207 15 c 0
 217 11 228 7 228 2 c 0
 228 -1 216 -2 211 -2 c 0
 199 -2 162 0 133 0 c 0
 104 0 67 -2 50 -2 c 0
 32 -2 28 -1 28 2 c 0
 28 7 41 11 55 17 c 0
 91 33 96 120 96 224 c 2
 96 579 l 2
 96 654 88 676 61 686 c 0
 54 688 51 690 51 692 c 0
 51 695 56 697 60 698 c 2
 170 725 l 1
EndSplineSet
Validated: 1
EndChar

StartChar: m
Encoding: 70 109 77
Width: 1000
GlyphClass: 1
Flags: MW
HStem: -2 21G<42.5 48.5 187 192.5 417.5 424 574.5 585.5 801.5 807 956 966> 500 20G<147 147> 510 25<289.5 355 661.5 732>
VStem: 81 74<159 284> 464 80<157 256> 844 80<126 141 141 300 300 316>
LayerCount: 2
Fore
SplineSet
46 490 m 2xbc
 147 520 l 1xdc
 147 403 l 1
 149 403 l 1
 185 489 253 535 326 535 c 0
 452 535 494 482 527 394 c 1
 529 394 l 1
 556 490 622 535 701 535 c 0
 872 535 924 441 924 316 c 2
 924 141 l 2
 924 67 927 31 953 12 c 0
 962 6 971 4 971 2 c 0
 971 -1 968 -2 964 -2 c 0
 948 -2 911 0 879 0 c 0
 847 0 810 -2 804 -2 c 0
 799 -2 795 -1 795 2 c 0
 795 4 799 8 806 11 c 0
 835 26 844 67 844 126 c 2
 844 300 l 2
 844 466 766 510 698 510 c 0
 580 510 544 406 544 256 c 2
 544 100 l 2
 544 67 551 26 574 15 c 0
 584 10 593 4 593 2 c 0
 593 -1 588 -2 583 -2 c 0
 566 -2 529 0 497 0 c 0
 465 0 428 -2 420 -2 c 0
 415 -2 412 -1 412 2 c 0
 412 4 419 7 428 13 c 0
 459 33 464 67 464 157 c 2
 464 342 l 2
 464 466 384 510 326 510 c 0
 231 510 155 394 155 284 c 2
 155 116 l 2
 155 67 160 33 188 11 c 0
 193 8 201 7 201 2 c 0
 201 -1 195 -2 190 -2 c 0
 184 -2 173 0 118 0 c 0
 66 0 52 -2 45 -2 c 0
 40 -2 36 -1 36 2 c 0
 36 7 43 8 50 13 c 0
 76 33 81 97 81 159 c 2
 81 404 l 2
 81 460 64 467 53 473 c 0
 43 478 39 479 39 483 c 0
 39 486 41 489 46 490 c 2xbc
EndSplineSet
Validated: 1
EndChar

StartChar: n
Encoding: 71 110 78
Width: 648
GlyphClass: 1
Flags: MW
HStem: -2 21G<29.5 40.5 189.5 200.5 444 455 605.5 613> 500 20G<144 144> 510 25<308 375.5>
VStem: 78 74<158 294> 491 80<160 296 296 342>
LayerCount: 2
Fore
SplineSet
43 494 m 2xb8
 144 520 l 1xd8
 144 405 l 1
 147 405 l 1
 175 490 263 535 353 535 c 0
 458 535 571 486 571 342 c 2
 571 146 l 2
 571 36 578 25 603 14 c 0
 614 9 621 4 621 2 c 0
 621 -1 615 -2 611 -2 c 0
 600 -2 563 0 531 0 c 0
 499 0 462 -2 448 -2 c 0
 440 -2 434 -1 434 1 c 0
 434 7 449 11 454 14 c 0
 486 32 491 86 491 160 c 2
 491 296 l 2
 491 466 418 510 333 510 c 0
 226 510 152 412 152 294 c 2
 152 140 l 2
 152 67 157 33 188 13 c 0
 198 7 206 3 206 1 c 0
 206 -2 203 -2 198 -2 c 0
 181 -2 144 0 115 0 c 0
 86 0 49 -2 32 -2 c 0
 27 -2 23 -1 23 3 c 0
 23 6 32 9 42 15 c 0
 73 33 78 102 78 158 c 2
 78 382 l 2
 78 458 62 472 44 478 c 0
 36 480 31 485 31 488 c 0
 31 492 39 493 43 494 c 2xb8
EndSplineSet
Validated: 1
EndChar

StartChar: o
Encoding: 72 111 79
Width: 667
GlyphClass: 1
Flags: MW
HStem: -15 25<259 407 259 408.5> 510 25<259 407>
VStem: 37 96<260 260> 533 96<260 260>
LayerCount: 2
Fore
SplineSet
133 260 m 0
 132 124 185 10 333 10 c 0
 481 10 534 124 533 260 c 0
 534 396 481 510 333 510 c 0
 185 510 132 396 133 260 c 0
37 260 m 0
 37 425 182 535 333 535 c 0
 484 535 629 425 629 260 c 0
 629 95 484 -15 333 -15 c 0
 182 -15 37 95 37 260 c 0
EndSplineSet
Validated: 33
Substitution2: "'sups' Superscript in Latin lookup 5 subtable" ordmasculine
Substitution2: "'ordn' Ordinals in Latin lookup 4 subtable" ordmasculine
Substitution2: "'aalt' Access All Alternates in Latin lookup 0 subtable" ordmasculine
EndChar

StartChar: p
Encoding: 73 112 80
Width: 667
GlyphClass: 1
Flags: MW
HStem: -196 21G<19 26.5 183.5 193> -15 25<347 417 266 432> 500 20G<133 133> 510 25<356 410>
VStem: 67 74<5 86 199 330> 536 96<201 335>
LayerCount: 2
Fore
SplineSet
343 510 m 0xdc
 198 510 141 390 141 270 c 0
 141 128 189 10 343 10 c 0
 491 10 536 132 536 270 c 0
 536 400 477 510 343 510 c 0xdc
133 520 m 1xec
 133 390 l 1
 136 390 l 1
 175 478 243 534 356 535 c 0xdc
 506 535 632 418 632 267 c 0
 632 112 517 -15 347 -15 c 0
 258 -12 170 40 143 86 c 1
 141 86 l 1
 141 -65 l 2
 141 -115 143 -156 180 -179 c 0
 191 -185 201 -187 201 -191 c 0
 201 -195 198 -196 188 -196 c 0
 179 -196 162 -193 109 -193 c 0
 44 -193 29 -196 24 -196 c 0
 14 -196 8 -194 8 -192 c 0
 8 -188 11 -186 34 -178 c 0
 54 -171 67 -96 67 5 c 2
 67 397 l 2
 67 468 46 478 32 480 c 0
 26 481 22 482 22 485 c 0
 22 488 25 490 33 491 c 0
 71 498 106 509 133 520 c 1xec
EndSplineSet
Validated: 1
EndChar

StartChar: q
Encoding: 74 113 81
Width: 667
GlyphClass: 1
Flags: MW
HStem: -196 21G<465 470.5 630 649.5> -15 25<253 361.5> 500 20G<541 627 627 630> 510 25<265 364 239.5 397>
VStem: 32 96<270 330 270 337> 522 74<-16 22 22 109 109 109>
LayerCount: 2
Fore
SplineSet
330 510 m 0xdc
 200 510 128 390 128 270 c 0
 129 145 176 10 330 10 c 0
 478 10 523 132 523 270 c 0
 523 400 464 510 330 510 c 0xdc
541 520 m 1xec
 627 520 l 2
 633 520 633 520 633 515 c 0
 633 512 631 510 627 507 c 0xec
 601 485 596 452 596 419 c 2
 596 22 l 2
 596 -148 619 -176 648 -184 c 0
 655 -186 659 -187 659 -191 c 0
 659 -196 652 -196 647 -196 c 0
 613 -196 578 -194 544 -194 c 0
 498 -194 474 -196 467 -196 c 0
 463 -196 459 -196 459 -192 c 0
 459 -187 463 -185 473 -182 c 0
 505 -174 522 -121 522 -16 c 2
 522 109 l 1
 520 111 l 1
 484 32 416 -15 307 -15 c 0
 153 -15 32 100 32 257 c 0
 32 417 161 535 318 535 c 0
 410 535 466 504 522 450 c 1xdc
 541 520 l 1xec
EndSplineSet
Validated: 1
EndChar

StartChar: r
Encoding: 75 114 82
Width: 370
GlyphClass: 1
Flags: MW
HStem: -2 21G<38.5 49.5 210.5 221.5> 461 74<230 360> 510 20G<155 155>
VStem: 87 74<159 202 104 449>
LayerCount: 2
Fore
SplineSet
360 535 m 1xd0
 326 435 l 1
 314 445 299 461 272 461 c 0xd0
 188 461 161 360 161 202 c 2
 161 141 l 2
 161 67 170 20 210 15 c 0
 221 14 227 10 227 3 c 0
 227 -2 224 -2 219 -2 c 0
 202 -2 165 0 130 0 c 0
 95 0 58 -2 41 -2 c 0
 36 -2 29 0 29 3 c 0
 29 7 36 12 46 16 c 0
 78 32 87 67 87 159 c 2
 87 449 l 2
 87 469 70 482 53 488 c 0
 45 490 38 494 38 496 c 0
 38 498 44 500 51 502 c 2
 155 530 l 1xb0
 155 390 l 1
 157 390 l 1
 202 488 261 535 360 535 c 1xd0
EndSplineSet
Validated: 1
EndChar

StartChar: s
Encoding: 76 115 83
Width: 574
GlyphClass: 1
Flags: MW
HStem: -15 25<238.5 314 238.5 333> 510 25<254.5 321.5>
VStem: 65 80<356.5 435> 450 80<103.5 174>
LayerCount: 2
Fore
SplineSet
505 493 m 1
 479 413 l 2
 476 404 473 400 470 400 c 0
 465 400 463 407 458 423 c 0
 440 484 354 510 289 510 c 0
 220 510 145 479 145 406 c 0
 145 307 259 304 333 298 c 0
 417 290 530 279 530 168 c 0
 530 39 387 -15 279 -15 c 0
 191 -15 100 -6 22 38 c 1
 43 103 l 2
 51 129 55 137 61 137 c 0
 66 137 68 129 73 116 c 0
 101 33 200 10 277 10 c 0
 351 10 450 33 450 125 c 0
 450 223 338 224 258 229 c 0
 176 237 65 274 65 374 c 0
 65 496 205 535 304 535 c 0
 372 535 443 520 505 493 c 1
EndSplineSet
Validated: 1
EndChar

StartChar: t
Encoding: 77 116 84
Width: 315
GlyphClass: 1
Flags: MW
HStem: 2 8 465 25<179 267 179 267 267 272 179 277> 621 20G<171.5 176>
VStem: 105 74<218 290 290 465>
LayerCount: 2
Fore
SplineSet
105 465 m 1
 47 465 l 2
 33 465 28 465 28 471 c 0
 28 475 31 478 44 485 c 0
 97 512 146 560 163 627 c 0
 165 635 169 641 174 641 c 0
 178 641 179 639 179 628 c 2
 179 490 l 1
 267 490 l 2
 277 490 281 489 281 486 c 0
 281 485 280 483 280 481 c 2
 277 465 l 1
 179 465 l 1
 179 290 l 2
 179 146 188 26 250 10 c 0
 256 9 257 8 257 6 c 0
 257 3 253 2 240 2 c 0
 219 1 198 0 177 0 c 0
 126 0 105 9 105 113 c 2
 105 465 l 1
EndSplineSet
Validated: 1
EndChar

StartChar: u
Encoding: 78 117 85
Width: 648
GlyphClass: 1
Flags: MW
HStem: -15 25<258.5 335.5> 0 21G<526 599 526 526> 500 20G<159 159 569 569>
VStem: 79 80<172 185 185 398 398 427> 495 74<272 370 370 407>
LayerCount: 2
Fore
SplineSet
43 489 m 2xb8
 159 520 l 1
 159 185 l 2
 159 93 201 10 316 10 c 0xb8
 440 10 495 131 495 272 c 2
 495 370 l 2
 495 444 487 461 463 473 c 0
 456 476 447 478 447 484 c 0
 447 486 449 487 456 489 c 2
 569 520 l 1
 569 185 l 2
 569 137 572 44 604 16 c 0
 611 9 615 7 615 4 c 0
 615 1 610 0 599 0 c 2
 526 0 l 1x78
 496 104 l 1
 443 20 389 -15 282 -15 c 0
 154 -15 79 62 79 172 c 2
 79 398 l 2
 79 456 70 468 50 472 c 0
 38 475 32 477 32 483 c 0
 32 486 37 488 43 489 c 2xb8
EndSplineSet
Validated: 1
EndChar

StartChar: v
Encoding: 79 118 86
Width: 611
GlyphClass: 1
Flags: MW
HStem: -15 21G<301.5 303 303 305> 505 20G<15 26.5 157 169.5 452.5 459.5 594.5 602>
VStem: 4 604<516.5 520.5>
LayerCount: 2
Fore
SplineSet
188 375 m 2
 336 93 l 1
 429 275 l 2
 467 348 500 421 500 450 c 0
 500 475 492 494 474 503 c 0
 461 510 449 515 449 518 c 0
 449 521 450 525 455 525 c 0
 464 525 500 520 529 520 c 0
 568 520 590 525 599 525 c 0
 605 525 608 523 608 519 c 0
 608 514 603 512 598 508 c 0
 564 484 523 412 476 318 c 2
 331 29 l 2
 311 -12 308 -15 305 -15 c 2
 303 -15 l 2
 300 -15 290 9 280 29 c 2
 97 388 l 2
 65 451 43 491 17 507 c 0
 9 512 4 515 4 518 c 0
 4 523 10 525 20 525 c 0
 33 525 63 520 93 520 c 0
 124 520 151 525 163 525 c 0
 176 525 183 523 183 519 c 0
 183 515 177 512 167 505 c 0
 154 497 151 488 151 471 c 0
 151 455 168 415 188 375 c 2
EndSplineSet
Validated: 1
EndChar

StartChar: w
Encoding: 80 119 87
Width: 926
GlyphClass: 1
Flags: MW
HStem: -15 21G<281 282 282 284 639 640 640 642> 505 20G<16 27.5 158 170.5 482 482 490 490 771 775.5 908.5 916> 509 20G<486 487 487 487.5>
VStem: 4 918<517.5 521>
LayerCount: 2
Fore
SplineSet
218 288 m 2xb0
 309 108 l 1
 482 525 l 2
 483 527 484 529 486 529 c 2
 487 529 l 2
 488 529 489 527 490 525 c 2xb0
 677 111 l 1
 801 390 l 2
 811 416 815 431 815 459 c 0
 815 477 805 494 790 504 c 0
 778 512 766 513 766 519 c 0
 766 523 769 525 773 525 c 0
 778 525 814 520 843 520 c 0
 882 520 904 525 913 525 c 0
 919 525 922 523 922 519 c 0
 922 514 917 512 912 508 c 0
 878 474 854 426 826 367 c 2
 650 -8 l 2
 649 -11 644 -15 642 -15 c 2
 640 -15 l 2
 638 -15 635 -12 632 -6 c 2
 462 399 l 1
 292 -6 l 2
 289 -12 286 -15 284 -15 c 2
 282 -15 l 2
 280 -15 275 -11 274 -8 c 2
 110 340 l 2
 77 410 38 486 16 505 c 0
 11 509 4 516 4 519 c 0
 4 523 11 525 21 525 c 0
 34 525 64 520 94 520 c 0
 125 520 152 525 164 525 c 0
 177 525 184 523 184 519 c 0
 184 516 176 511 168 506 c 0
 158 500 150 487 149 473 c 0xd0
 148 434 200 324 218 288 c 2xb0
EndSplineSet
Validated: 33
EndChar

StartChar: x
Encoding: 81 120 88
Width: 574
GlyphClass: 1
Flags: MW
HStem: -2 21G<14 19.5 138 153> 0 21G<383 385 385 560> 251 21G<256 256> 505 20G<38 51.5 185 193 401 413 535.5 541>
VStem: 9 558<0 3.5>
LayerCount: 2
Fore
SplineSet
315 286 m 1x78
 405 178 l 2
 453 120 502 54 562 8 c 0
 564 6 567 4 567 3 c 0
 567 1 566 0 560 0 c 2
 385 0 l 2
 381 0 380 0 380 1 c 0
 380 2 387 6 393 10 c 0
 403 15 410 22 410 33 c 0x78
 410 47 395 70 365 109 c 2
 271 234 l 1
 182 129 l 2
 162 106 138 68 138 39 c 0
 138 27 139 17 148 10 c 0
 155 4 161 2 161 1 c 0
 161 0 159 -2 147 -2 c 0
 129 -2 107 -1 84 -1 c 0
 44 -1 23 -2 16 -2 c 0
 12 -2 9 -1 9 1 c 0
 9 3 17 6 23 9 c 0xb8
 59 29 89 64 143 125 c 2
 256 251 l 1
 136 406 l 2
 107 443 76 487 41 509 c 0
 38 512 28 517 28 520 c 0
 28 522 30 525 46 525 c 0
 57 525 83 520 120 520 c 0
 151 520 180 525 190 525 c 0
 196 525 201 523 201 519 c 0
 201 516 197 513 193 510 c 0
 185 505 177 492 178 481 c 0
 178 461 209 418 223 400 c 2
 300 306 l 1
 372 387 l 2
 402 421 422 457 422 480 c 0
 422 493 416 500 409 507 c 0
 403 512 398 514 397 516 c 0
 394 522 399 525 403 525 c 0
 423 525 446 520 469 520 c 0
 511 520 532 525 539 525 c 0
 543 525 546 520 546 516 c 0
 546 513 543 510 538 508 c 0
 497 483 442 424 412 391 c 2
 315 286 l 1x78
EndSplineSet
Validated: 33
EndChar

StartChar: y
Encoding: 82 121 89
Width: 611
GlyphClass: 1
Flags: MW
HStem: -198 21G<60 60> -198 65 502 20G<460.5 465.5 592 598> 503 20G<17 27 158.5 172>
VStem: 8 597<514.5 517 514.5 518.5>
LayerCount: 2
Fore
SplineSet
476 318 m 2x98
 313 -13 l 2
 286 -64 263 -100 224 -138 c 0
 176 -184 126 -199 60 -198 c 1
 87 -111 l 2
 89 -105 91 -101 93 -101 c 0
 96 -101 97 -102 98 -103 c 0
 110 -124 133 -133 157 -133 c 0
 215 -133 278 -58 278 -2 c 0
 278 21 272 45 262 66 c 2
 102 390 l 2
 71 454 43 491 23 502 c 0
 15 506 8 513 8 516 c 0
 8 521 13 523 21 523 c 0
 33 523 55 520 93 520 c 0
 124 520 153 523 164 523 c 0
 180 523 183 519 183 516 c 0
 183 512 175 507 167 502 c 0
 160 496 151 488 151 471 c 0x58
 151 455 168 415 190 373 c 2
 336 93 l 1
 429 275 l 2
 467 348 502 421 502 457 c 0
 502 475 491 493 474 502 c 0
 468 506 455 513 455 515 c 0
 455 517 458 522 463 522 c 0
 468 522 502 520 529 520 c 0
 568 520 588 522 596 522 c 0
 600 522 605 518 605 516 c 0
 605 513 601 510 598 508 c 0xa8
 564 484 523 412 476 318 c 2x98
EndSplineSet
Validated: 33
EndChar

StartChar: z
Encoding: 83 122 90
Width: 556
GlyphClass: 1
Flags: MW
HStem: 0 25<188 341 341 365.5 188 507> 495 25<208.5 256 256 386>
VStem: 30 515<1.5 119>
LayerCount: 2
Fore
SplineSet
80 65 m 2
 392 457 l 2
 397 464 406 475 406 483 c 0
 406 495 399 495 386 495 c 2
 256 495 l 2
 161 495 112 456 69 407 c 0
 68 405 66 404 64 404 c 0
 61 404 59 407 59 409 c 0
 59 411 60 413 60 414 c 2
 96 520 l 1
 504 520 l 2
 517 520 520 517 520 513 c 0
 520 510 517 504 511 496 c 2
 181 63 l 2
 170 49 169 43 169 38 c 0
 169 27 176 25 188 25 c 2
 341 25 l 2
 390 25 478 58 530 115 c 0
 534 119 537 123 540 123 c 0
 543 123 545 120 545 118 c 0
 545 115 544 112 543 109 c 2
 507 0 l 1
 34 0 l 2
 31 0 30 1 30 2 c 0
 30 7 41 21 44 24 c 0
 56 38 68 51 80 65 c 2
EndSplineSet
Validated: 1
EndChar

StartChar: braceleft
Encoding: -1 123 91
Width: 333
GlyphClass: 1
Flags: MW
HStem: -190 15<258.5 273 258.5 273> 645 15<258.5 273>
VStem: 129 69<-52 110 350 364 364 526 526 532>
LayerCount: 2
Fore
SplineSet
129 350 m 2
 129 526 l 2
 129 644 190 660 273 660 c 1
 273 645 l 1
 244 645 198 630 198 532 c 2
 198 364 l 2
 198 294 181 255 112 238 c 1
 112 236 l 1
 181 219 198 180 198 110 c 2
 198 -62 l 2
 198 -160 244 -175 273 -175 c 1
 273 -190 l 1
 190 -190 129 -170 129 -52 c 2
 129 124 l 2
 129 188 121 219 59 237 c 1
 121 255 129 286 129 350 c 2
EndSplineSet
Validated: 1
EndChar

StartChar: bar
Encoding: -1 124 92
Width: 222
GlyphClass: 1
Flags: MW
HStem: -250 1000<82 140 82 140>
VStem: 82 58<-250 750 -250 750>
LayerCount: 2
Fore
SplineSet
82 750 m 1
 140 750 l 1
 140 -250 l 1
 82 -250 l 1
 82 750 l 1
EndSplineSet
Validated: 1
EndChar

StartChar: braceright
Encoding: -1 125 93
Width: 333
GlyphClass: 1
Flags: MW
HStem: -190 15<60 74.5 60 101.5> 645 15<60 74.5>
VStem: 135 69<-62 -52 -52 110 110 124 364 526>
LayerCount: 2
Fore
SplineSet
204 526 m 2
 204 350 l 2
 204 286 212 255 274 237 c 1
 212 219 204 188 204 124 c 2
 204 -52 l 2
 204 -170 143 -190 60 -190 c 1
 60 -175 l 1
 89 -175 135 -160 135 -62 c 2
 135 110 l 2
 135 180 152 219 221 236 c 1
 221 238 l 1
 152 255 135 294 135 364 c 2
 135 532 l 2
 135 630 89 645 60 645 c 1
 60 660 l 1
 143 660 204 644 204 526 c 2
EndSplineSet
Validated: 1
EndChar

StartChar: asciitilde
Encoding: -1 126 94
Width: 600
GlyphClass: 1
Flags: MW
HStem: 198 56<394.5 427 394.5 437> 266 56<167 212>
VStem: 69 462<236 284>
LayerCount: 2
Fore
SplineSet
495 326 m 1
 531 284 l 1
 501 242 468 198 406 198 c 0xe0
 366 198 335 215 302 232 c 0
 269 249 235 266 189 266 c 0
 145 266 121 229 105 194 c 1
 69 236 l 1
 91 278 127 322 194 322 c 0x60
 231 322 272 305 309 288 c 0
 347 271 382 254 407 254 c 0
 447 254 472 291 495 326 c 1
EndSplineSet
Validated: 1
EndChar

StartChar: exclamdown
Encoding: -1 161 96
Width: 278
GlyphClass: 1
Flags: MW
HStem: 438 97<125 153>
VStem: 90 97<473 499> 129 20<370 411>
LayerCount: 2
Fore
SplineSet
90 486 m 0xc0
 90 512 111 535 139 535 c 0
 167 535 187 512 187 486 c 0
 187 460 167 438 139 438 c 0
 111 438 90 460 90 486 c 0xc0
129 411 m 1xa0
 149 411 l 1
 149 329 153 269 166 190 c 0
 174 142 190 44 190 -9 c 0
 190 -40 187 -137 139 -137 c 0
 91 -137 88 -40 88 -9 c 0
 88 44 104 142 112 190 c 0
 125 269 129 329 129 411 c 1xa0
EndSplineSet
Validated: 1
EndChar

StartChar: cent
Encoding: -1 162 97
Width: 648
GlyphClass: 1
Flags: MW
HStem: -15 121<296 330 296 296> 81 25<296 296 330 330> 504 26<257.5 330> 504 126<296 317>
VStem: 77 86<248.5 356.5 248.5 367.5> 296 34<-15 81 -15 81 530 630>
LayerCount: 2
Fore
SplineSet
502 482 m 1x6c
 482 412 l 2
 480 406 479 405 476 405 c 0
 473 405 469 411 457 438 c 0
 440 491 365 502 317 504 c 0
 198 504 163 412 163 301 c 0
 163 196 214 106 313 106 c 0
 429 106 479 180 493 202 c 0
 497 209 500 211 502 211 c 0
 506 211 509 206 509 200 c 0
 509 196 507 193 506 191 c 0
 459 120 411 86 330 81 c 1x6c
 330 -15 l 1
 296 -15 l 1xac
 296 81 l 1
 176 86 77 176 77 302 c 0
 77 433 170 522 296 529 c 1
 296 630 l 1
 330 630 l 1x5c
 330 530 l 1
 416 525 484 499 502 482 c 1x6c
EndSplineSet
Validated: 1
EndChar

StartChar: sterling
Encoding: -1 163 98
Width: 648
GlyphClass: 1
Flags: MW
HStem: -15 80<498.5 509.5> -11 35<42 155> 143 25<132 164.5> 302 34<314 458 314 314> 304 32<125 215 134 215 134 223> 595 25<335.5 381.5>
VStem: -12 71<57 75.5> 197 60<464 491.5> 243 83<163 239>
LayerCount: 2
Fore
SplineSet
128 24 m 0x6e80
 182 24 231 70 238 124 c 1
 211 138 180 143 149 143 c 0
 115 143 59 116 59 77 c 0
 59 37 93 24 128 24 c 0x6e80
125 304 m 1
 134 336 l 1
 215 336 l 1
 207 367 197 407 197 436 c 0
 197 547 281 620 390 620 c 0
 435 620 501 594 538 569 c 1
 517 499 l 2
 512 483 511 475 506 475 c 0
 499 475 499 485 495 496 c 0
 468 569 405 595 358 595 c 0
 292 595 257 555 257 491 c 0
 257 437 284 386 301 336 c 1x77
 469 336 l 1
 458 302 l 1
 314 302 l 1
 321 279 326 252 326 226 c 0
 326 200 322 174 310 149 c 1
 337 140 375 121 411 100 c 0
 448 82 485 65 512 65 c 0
 564 65 609 106 625 154 c 0
 626 158 630 162 634 162 c 0
 639 162 641 158 641 154 c 0
 641 145 637 136 633 127 c 0
 613 75 542 -15 477 -15 c 0
 434 -15 402 4 372 28 c 0xb680
 342 52 315 81 280 101 c 1
 227 31 150 -11 61 -11 c 0
 23 -11 -12 -2 -12 43 c 0
 -12 108 82 168 151 168 c 0
 182 168 212 166 243 163 c 1
 243 218 236 252 223 304 c 1
 125 304 l 1
EndSplineSet
Validated: 1
EndChar

StartChar: currency
Encoding: -1 164 99
Width: 648
GlyphClass: 1
Flags: MW
HStem: 59 57<295 351.5> 498 57<296.5 351 296.5 375.5>
VStem: 75 61<279 334> 510 61<280 335 280 358>
LayerCount: 2
Fore
SplineSet
74 98 m 1
 128 155 l 1
 92 200 75 251 75 307 c 0
 75 361 90 417 128 461 c 1
 74 516 l 1
 114 557 l 1
 169 501 l 1
 213 537 270 555 323 555 c 0
 379 555 433 537 478 501 c 1
 535 557 l 1
 574 516 l 1
 519 461 l 1
 555 419 571 363 571 307 c 0
 571 253 555 199 519 155 c 1
 574 98 l 1
 534 58 l 1
 478 116 l 1
 435 77 380 59 323 59 c 0
 267 59 213 76 169 116 c 1
 114 58 l 1
 74 98 l 1
323 498 m 0
 220 498 136 412 136 307 c 0
 136 201 221 116 323 116 c 0
 429 116 510 205 510 307 c 0
 510 409 428 498 323 498 c 0
EndSplineSet
Validated: 1
EndChar

StartChar: yen
Encoding: -1 165 100
Width: 648
GlyphClass: 1
Flags: MW
HStem: -4 198<220 240 389 408> 160 34<125 273 125 273 353 504> 265 34<125 248 125 273 125 248 380 504> 599 20G<-8.5 6.5 144.5 167 501.5 516.5 641.5 656.5>
VStem: 273 80<118 160 92 160 194 265>
LayerCount: 2
Fore
SplineSet
504 299 m 1x78
 504 265 l 1
 353 265 l 1
 353 194 l 1
 504 194 l 1
 504 160 l 1
 353 160 l 1
 353 118 l 2x78
 353 66 364 23 415 11 c 0
 422 9 426 7 426 1 c 0
 426 -4 415 -4 401 -4 c 0
 377 -4 354 0 315 0 c 0
 275 0 252 -4 228 -4 c 0
 212 -4 203 -4 203 1 c 0
 203 4 207 6 214 11 c 0xb8
 255 37 273 70 273 118 c 2
 273 160 l 1
 125 160 l 1
 125 194 l 1
 273 194 l 1
 273 265 l 1
 125 265 l 1
 125 299 l 1
 248 299 l 1
 35 565 l 2
 21 585 6 597 -2 603 c 0
 -11 609 -15 611 -15 614 c 0
 -15 619 -10 619 -7 619 c 0
 20 619 48 615 76 615 c 0
 103 615 131 619 158 619 c 0
 176 619 185 620 185 612 c 0
 185 608 175 606 166 600 c 0
 156 594 146 585 146 567 c 0
 146 554 155 542 167 526 c 2
 340 308 l 1
 511 513 l 2
 522 526 534 546 534 563 c 0
 534 583 524 593 515 599 c 0
 505 605 495 608 495 613 c 0
 495 617 499 619 504 619 c 0
 529 619 554 615 579 615 c 0
 604 615 629 619 654 619 c 0
 659 619 665 619 665 615 c 0
 665 612 661 607 654 601 c 0
 616 572 609 566 577 532 c 2
 380 299 l 1
 504 299 l 1x78
EndSplineSet
Validated: 1
EndChar

StartChar: brokenbar
Encoding: -1 166 101
Width: 222
GlyphClass: 1
Flags: MW
HStem: -175 850<82 140 82 140>
VStem: 82 58<-175 175 -175 175 325 675>
LayerCount: 2
Fore
SplineSet
82 675 m 1
 140 675 l 1
 140 325 l 1
 82 325 l 1
 82 675 l 1
82 175 m 1
 140 175 l 1
 140 -175 l 1
 82 -175 l 1
 82 175 l 1
EndSplineSet
Validated: 1
EndChar

StartChar: section
Encoding: -1 167 102
Width: 556
GlyphClass: 1
Flags: MW
HStem: -156 25<227 300 227 300.5> 635 25<245 309>
VStem: 66 40<279 313.5> 101 50<485 547.5> 424 50<-36.5 28> 449 40<223 245>
LayerCount: 2
Fore
SplineSet
146 394 m 1xe4
 123 379 106 347 106 320 c 0
 106 238 178 214 244 193 c 0
 303 174 365 165 420 134 c 1
 439 157 449 184 449 214 c 0
 449 276 390 303 322 324 c 0
 255 345 179 359 146 394 c 1xe4
78 -115 m 1
 90 -28 l 1
 125 -85 193 -131 261 -131 c 0
 339 -131 424 -96 424 -6 c 0
 424 62 365 85 309 101 c 2
 223 124 l 2
 139 143 66 194 66 287 c 0xe8
 66 340 92 379 132 411 c 1
 114 430 101 456 101 502 c 0
 101 593 190 660 291 660 c 0
 349 660 418 644 460 602 c 1
 444 584 434 563 427 540 c 1
 400 600 342 635 276 635 c 0
 214 635 151 596 151 529 c 0
 151 441 251 419 272 413 c 2
 395 377 l 2
 454 360 489 308 489 246 c 0xd4
 489 200 467 156 435 124 c 1
 462 99 474 69 474 32 c 0xd8
 474 -105 355 -156 246 -156 c 0
 187 -156 120 -141 78 -115 c 1
EndSplineSet
Validated: 1
EndChar

StartChar: dieresis
Encoding: -1 168 103
Width: 259
GlyphClass: 1
Flags: MW
HStem: 603 97<17 45 216 244>
VStem: -18 97<638 664> 181 97<638 664>
LayerCount: 2
Fore
SplineSet
-18 651 m 0
 -18 677 3 700 31 700 c 0
 59 700 79 677 79 651 c 0
 79 625 59 603 31 603 c 0
 3 603 -18 625 -18 651 c 0
181 651 m 0
 181 677 202 700 230 700 c 0
 258 700 278 677 278 651 c 0
 278 625 258 603 230 603 c 0
 202 603 181 625 181 651 c 0
EndSplineSet
Validated: 1
EndChar

StartChar: copyright
Encoding: -1 169 104
Width: 800
GlyphClass: 1
Flags: MW
HStem: -20 39<318 482.5 318 498.5> 129 19<376.5 446.5> 497 19<373 455.5 350 467> 621 39<317.5 483>
VStem: 46 53<237 397.5 237 411.5> 201 72 543 16<409 409> 701 53<237 397.5>
LayerCount: 2
Fore
SplineSet
400 660 m 0
 597 660 754 507 754 317 c 0
 754 129 597 -20 400 -20 c 0
 204 -20 46 129 46 317 c 0
 46 506 204 660 400 660 c 0
400 621 m 0
 235 621 99 478 99 317 c 0
 99 157 236 19 400 19 c 0
 565 19 701 157 701 317 c 0
 701 478 566 621 400 621 c 0
560 233 m 1
 576 233 l 1
 559 165 l 2
 559 154 548 151 532 146 c 0
 511 139 471 129 422 129 c 0
 303 129 201 185 201 326 c 0
 201 408 272 516 428 516 c 0
 483 516 509 507 536 498 c 0
 552 494 559 486 559 478 c 2
 559 409 l 1
 543 409 l 1
 539 451 510 497 424 497 c 0
 322 497 274 427 273 330 c 0
 272 225 321 148 432 148 c 0
 505 148 541 190 560 233 c 1
EndSplineSet
Validated: 33
EndChar

StartChar: ordfeminine
Encoding: -1 170 105
Width: 367
GlyphClass: 1
Flags: MW
HStem: 300 25<141.5 177> 477 25<230 231 231 271> 605 25<152.5 216.5>
VStem: 8 72<368.5 430 368.5 442> 271 60<460 477 477 477 502 513>
LayerCount: 2
Fore
SplineSet
271 477 m 1
 231 477 l 2
 162 477 80 465 80 395 c 0
 80 342 115 325 168 325 c 0
 265 325 271 387 271 460 c 2
 271 477 l 1
331 513 m 2
 331 401 l 2
 331 361 337 322 354 317 c 0
 357 316 359 313 359 312 c 0
 359 311 357 310 354 310 c 0
 351 310 335 311 328 311 c 0
 320 311 311 310 304 310 c 0
 299 310 297 311 296 313 c 0
 296 328 287 352 284 369 c 1
 283 369 l 1
 256 317 207 300 147 300 c 0
 84 300 8 331 8 396 c 0
 8 488 157 502 230 502 c 2
 271 502 l 1
 271 572 258 605 175 605 c 0
 130 605 57 592 51 545 c 0
 51 543 49 542 47 542 c 0
 46 542 45 542 45 544 c 2
 27 601 l 1
 78 622 131 630 174 630 c 0
 292 630 331 583 331 513 c 2
EndSplineSet
Validated: 1
EndChar

StartChar: guillemotleft
Encoding: -1 171 106
Width: 556
GlyphClass: 1
Flags: MW
HStem: 65 389
VStem: 105 347
LayerCount: 2
Fore
SplineSet
159 261 m 1
 281 97 l 1
 261 93 243 81 231 65 c 1
 195 134 152 199 105 261 c 1
 156 319 195 387 234 454 c 1
 248 441 265 426 285 424 c 1
 159 261 l 1
326 261 m 1
 448 97 l 1
 428 93 410 81 398 65 c 1
 362 134 319 199 272 261 c 1
 323 319 362 387 401 454 c 1
 415 441 432 426 452 424 c 1
 326 261 l 1
EndSplineSet
Validated: 1
EndChar

StartChar: logicalnot
Encoding: -1 172 107
Width: 600
GlyphClass: 1
Flags: MW
HStem: 329 58<41 559 41 501>
VStem: 501 58<115 329 329 329>
LayerCount: 2
Fore
SplineSet
41 329 m 1
 41 387 l 1
 559 387 l 1
 559 115 l 1
 501 115 l 1
 501 329 l 1
 41 329 l 1
EndSplineSet
Validated: 1
EndChar

StartChar: uni00AD
Encoding: -1 173 108
Width: 259
GlyphClass: 1
Flags: MW
HStem: 231 58<24 235 6 253>
VStem: 6 247<231 289>
LayerCount: 2
Fore
SplineSet
235 231 m 1
 6 231 l 1
 24 289 l 1
 253 289 l 1
 235 231 l 1
EndSplineSet
Validated: 1
EndChar

StartChar: registered
Encoding: -1 174 109
Width: 800
GlyphClass: 1
Flags: MW
HStem: -20 39<318 482.5 318 498.5> 139 15<232 398 232 232> 300 19<346 395 395 401 346 395> 486 19<346 346 346 392> 621 39<317.5 483>
VStem: 46 53<237 397.5 237 411.5> 283 63<203 300 319 442 442 465> 473 63<390 440> 701 53<237 397.5>
LayerCount: 2
Fore
SplineSet
400 660 m 0
 597 660 754 507 754 317 c 0
 754 129 597 -20 400 -20 c 0
 204 -20 46 129 46 317 c 0
 46 506 204 660 400 660 c 0
400 621 m 0
 235 621 99 478 99 317 c 0
 99 157 236 19 400 19 c 0
 565 19 701 157 701 317 c 0
 701 478 566 621 400 621 c 0
232 492 m 1
 232 505 l 1
 413 505 l 2
 476 505 536 478 536 416 c 0
 536 364 499 327 451 312 c 1
 512 232 l 2
 540 196 574 160 595 148 c 1
 595 139 l 1
 533 139 l 2
 497 139 473 202 401 300 c 1
 346 300 l 1
 346 203 l 2
 346 158 344 160 398 154 c 1
 398 139 l 1
 232 139 l 1
 232 154 l 1
 285 160 283 158 283 203 c 2
 283 442 l 2
 283 488 285 486 232 492 c 1
346 486 m 1
 346 319 l 1
 395 319 l 2
 447 319 473 355 473 412 c 0
 473 468 435 486 392 486 c 2
 346 486 l 1
EndSplineSet
Validated: 33
EndChar

StartChar: macron
Encoding: -1 175 110
Width: 259
GlyphClass: 1
Flags: MW
HStem: 624 53<-26 286 -26 286>
VStem: -26 312<624 677 624 677>
LayerCount: 2
Fore
SplineSet
286 624 m 1
 -26 624 l 1
 -26 677 l 1
 286 677 l 1
 286 624 l 1
EndSplineSet
Validated: 1
EndChar

StartChar: degree
Encoding: -1 176 111
Width: 400
GlyphClass: 1
Flags: MW
HStem: 344 37<170.5 229.5 170.5 240> 593 37<170.5 229.5>
VStem: 57 42<457.5 516.5 457.5 527> 301 42<457.5 516.5>
LayerCount: 2
Fore
SplineSet
200 593 m 0
 141 593 99 546 99 487 c 0
 99 428 141 381 200 381 c 0
 259 381 301 428 301 487 c 0
 301 546 259 593 200 593 c 0
200 344 m 0
 120 344 57 407 57 487 c 0
 57 567 120 630 200 630 c 0
 280 630 343 567 343 487 c 0
 343 407 280 344 200 344 c 0
EndSplineSet
Validated: 1
EndChar

StartChar: plusminus
Encoding: -1 177 112
Width: 600
GlyphClass: 1
Flags: MW
HStem: 0 58<41 559 41 559> 287 58<41 271 41 271 329 559> 500 20G<271 329 329 329>
VStem: 271 58<111 287 111 287 345 520>
LayerCount: 2
Fore
SplineSet
271 345 m 1
 271 520 l 1
 329 520 l 1
 329 345 l 1
 559 345 l 1
 559 287 l 1
 329 287 l 1
 329 111 l 1
 271 111 l 1
 271 287 l 1
 41 287 l 1
 41 345 l 1
 271 345 l 1
41 0 m 1
 41 58 l 1
 559 58 l 1
 559 0 l 1
 41 0 l 1
EndSplineSet
Validated: 1
EndChar

StartChar: uni00B2
Encoding: -1 178 113
Width: 388
GlyphClass: 1
Flags: MW
HStem: 252 50<78 216 216 233 78 335> 605 25<165.5 213.5>
VStem: 49 8<546 547> 283 74<496 552.5 484 553>
LayerCount: 2
Fore
SplineSet
335 252 m 1
 23 252 l 1
 23 259 33 285 54 314 c 0
 77 345 127 374 172 394 c 0
 258 430 283 469 283 523 c 0
 283 583 245 605 182 605 c 0
 131 605 82 587 57 547 c 0
 57 545 55 544 53 544 c 0
 51 544 49 545 49 547 c 2
 34 599 l 1
 82 621 139 630 192 630 c 0
 267 630 357 592 357 513 c 0
 357 455 303 418 248 400 c 2
 181 378 l 2
 116 358 78 314 78 302 c 1
 216 302 l 2
 250 302 298 304 328 317 c 0
 336 322 353 335 358 342 c 0
 359 344 360 345 362 345 c 0
 365 345 366 343 366 341 c 0
 366 338 365 335 362 328 c 2
 335 252 l 1
EndSplineSet
Validated: 1
EndChar

StartChar: uni00B3
Encoding: -1 179 114
Width: 388
GlyphClass: 1
Flags: MW
HStem: 243 25<156 213 153.5 223.5> 439 25<180 211.5 176.5 218> 605 25<191 218>
VStem: 140 95<451 453 451 465 451 465> 286 74<513 565> 305 74<352 382.5>
LayerCount: 2
Fore
SplineSet
140 437 m 1xf4
 140 465 l 1
 154 464 169 464 184 464 c 0
 239 464 286 479 286 538 c 0
 286 592 245 605 191 605 c 0
 135 607 100 598 71 556 c 0
 67 549 62 543 59 543 c 0
 57 543 56 546 55 551 c 2
 41 599 l 1
 95 624 143 630 202 630 c 0
 260 630 360 611 360 543 c 0xf8
 360 483 288 461 235 453 c 1
 235 451 l 1
 293 442 379 422 379 352 c 0
 379 267 260 243 187 243 c 0
 125 243 63 254 9 283 c 1
 25 326 l 2
 30 340 33 346 37 346 c 0
 39 346 41 344 43 335 c 0
 58 280 125 268 182 268 c 0
 244 268 306 287 305 352 c 0
 305 413 248 439 188 439 c 0
 172 439 155 439 140 437 c 1xf4
EndSplineSet
Validated: 33
EndChar

StartChar: acute
Encoding: 29 180 115
Width: 259
GlyphClass: 1
Flags: MW
HStem: 583 172<54 254.5>
VStem: 54 225<583 733>
LayerCount: 2
Fore
SplineSet
96 583 m 1
 54 583 l 1
 202 730 l 2
 215 744 230 755 247 755 c 0
 262 755 279 745 279 721 c 0
 279 704 264 693 244 678 c 2
 96 583 l 1
EndSplineSet
Validated: 1
EndChar

StartChar: mu
Encoding: -1 181 116
Width: 648
GlyphClass: 1
Flags: MW
HStem: -194 21G<22 32.5> -190 21G<106.5 114 114 153> -15 25<258.5 335.5> 0 21G<526 599 526 526> 500 20G<159 159 569 569>
VStem: 79 80<139 185 185 398 398 427> 495 74<272 370 370 407>
LayerCount: 2
Fore
SplineSet
159 520 m 1x6e
 159 185 l 2
 159 93 201 10 316 10 c 0x6e
 440 10 495 131 495 272 c 2
 495 370 l 2
 495 444 487 461 463 473 c 0
 456 476 447 478 447 484 c 0
 447 486 449 487 456 489 c 2
 569 520 l 1
 569 185 l 2
 569 137 572 44 604 16 c 0
 611 9 615 7 615 4 c 0
 615 1 610 0 599 0 c 2
 526 0 l 1x5e
 496 104 l 1
 443 20 389 -15 282 -15 c 0
 229 -15 185 -2 153 22 c 1
 153 -190 l 1
 114 -190 l 2x6e
 99 -190 84 -191 70 -192 c 0
 55 -193 40 -194 25 -194 c 0
 19 -194 14 -194 14 -190 c 0
 14 -186 18 -183 24 -180 c 0xae
 70 -157 79 -113 79 -65 c 2
 79 398 l 2
 79 456 70 468 50 472 c 0
 38 475 32 477 32 483 c 0
 32 486 37 488 43 489 c 2
 159 520 l 1x6e
EndSplineSet
Validated: 1
EndChar

StartChar: paragraph
Encoding: -1 182 117
Width: 600
GlyphClass: 1
Flags: MW
HStem: 610 30<340 401 340 340> 617 23<293 541>
VStem: 282 58<-133 229 229 229> 401 58<-133 571 -133 610 -133 610>
LayerCount: 2
Fore
SplineSet
541 640 m 1xb0
 541 617 l 1
 472 611 459 598 459 571 c 2x70
 459 -133 l 1
 401 -133 l 1
 401 610 l 1
 340 610 l 1
 340 -133 l 1
 282 -133 l 1
 282 229 l 1
 145 229 84 316 84 442 c 0
 83 560 143 642 293 640 c 2
 541 640 l 1xb0
EndSplineSet
Validated: 33
EndChar

StartChar: periodcentered
Encoding: -1 183 118
Width: 324
GlyphClass: 1
Flags: MW
HStem: 212 97<148 176>
VStem: 113 97<247 273>
LayerCount: 2
Fore
SplineSet
113 260 m 0
 113 286 134 309 162 309 c 0
 190 309 210 286 210 260 c 0
 210 234 190 212 162 212 c 0
 134 212 113 234 113 260 c 0
EndSplineSet
Validated: 1
EndChar

StartChar: cedilla
Encoding: -1 184 119
Width: 259
GlyphClass: 1
Flags: MW
HStem: -216 36<102 117 91 143> -199 21G<26 26> -100 38<100 172.5>
VStem: 159 75<-152.5 -119>
LayerCount: 2
Fore
SplineSet
71 -99 m 1x70
 113 0 l 1
 147 0 l 1
 122 -65 l 1
 132 -64 141 -62 151 -62 c 0
 194 -62 234 -84 234 -131 c 0
 234 -192 169 -216 117 -216 c 0xb0
 87 -216 53 -212 26 -199 c 1x70
 40 -168 l 1
 59 -174 81 -180 101 -180 c 0xb0
 133 -180 159 -171 159 -134 c 0
 159 -104 129 -100 106 -100 c 0
 94 -100 80 -108 71 -99 c 1x70
EndSplineSet
Validated: 33
EndChar

StartChar: uni00B9
Encoding: -1 185 120
Width: 388
GlyphClass: 1
Flags: MW
HStem: 251 21G<130.5 142 245 256.5>
VStem: 164 60<323 537 537 549>
LayerCount: 2
Fore
SplineSet
224 636 m 1
 224 323 l 2
 224 294 232 276 257 264 c 0
 262 262 264 258 264 255 c 0
 264 251 260 251 253 251 c 0
 237 251 218 252 193 252 c 0
 169 252 150 251 134 251 c 0
 127 251 115 251 115 255 c 0
 115 258 126 262 130 264 c 0
 155 276 164 294 164 323 c 2
 164 537 l 2
 164 561 163 588 133 594 c 0
 127 595 118 596 118 600 c 0
 118 606 129 608 136 610 c 2
 224 636 l 1
EndSplineSet
Validated: 1
EndChar

StartChar: ordmasculine
Encoding: -1 186 121
Width: 400
GlyphClass: 1
Flags: MW
HStem: 300 25<152 246.5 152 248.5> 605 25<152 246.5>
VStem: 7 74<465 465> 318 74<465 465>
LayerCount: 2
Fore
SplineSet
318 465 m 0
 319 547 294 605 199 605 c 0
 105 605 80 547 81 465 c 0
 80 383 105 325 199 325 c 0
 294 325 319 383 318 465 c 0
7 465 m 0
 7 564 101 630 199 630 c 0
 298 630 392 564 392 465 c 0
 392 366 298 300 199 300 c 0
 101 300 7 366 7 465 c 0
EndSplineSet
Validated: 33
EndChar

StartChar: guillemotright
Encoding: -1 187 122
Width: 556
GlyphClass: 1
Flags: MW
HStem: 65 389
VStem: 104 347
LayerCount: 2
Fore
SplineSet
230 258 m 1
 108 422 l 1
 128 426 146 438 158 454 c 1
 194 385 237 320 284 258 c 1
 233 200 194 132 155 65 c 1
 141 78 124 93 104 95 c 1
 230 258 l 1
397 258 m 1
 275 422 l 1
 295 426 313 438 325 454 c 1
 361 385 404 320 451 258 c 1
 400 200 361 132 322 65 c 1
 308 78 291 93 271 95 c 1
 397 258 l 1
EndSplineSet
Validated: 1
EndChar

StartChar: onequarter
Encoding: -1 188 123
Width: 972
GlyphClass: 1
Flags: MW
HStem: -15 21G<169 219 169 169> -1 122<590.5 594 594 628 453 734> 94 27<453 628 453 628> 251 21G<138.5 150 253 264.5> 610 20G
VStem: 172 60<323 537 537 549> 628 60<71 93 56.5 94 56.5 94 56.5 122 122 315 315 315>
LayerCount: 2
Fore
SplineSet
627 315 m 1xbe
 453 121 l 1
 628 121 l 1
 628 315 l 1
 627 315 l 1xbe
779 93 m 1
 688 93 l 1
 688 71 l 2
 688 42 702 14 724 8 c 0xbe
 734 5 742 4 742 2 c 0
 742 -1 741 -1 734 -1 c 0
 706 -1 687 0 594 -1 c 0
 587 -1 584 -1 584 4 c 0
 584 6 588 9 596 12 c 0
 617 19 628 35 628 71 c 2x5e
 628 94 l 1
 412 94 l 1
 412 114 422 122 432 133 c 2
 655 362 l 2
 661 368 666 375 671 380 c 0
 674 383 676 383 680 383 c 0
 682 383 688 381 688 375 c 2
 688 122 l 1
 709 122 761 123 781 148 c 0
 786 154 791 160 794 164 c 0
 798 167 800 168 801 168 c 0
 802 168 803 167 803 166 c 2
 803 166 803 164 802 160 c 2
 779 93 l 1
617 630 m 1
 667 630 l 1
 219 -15 l 1
 169 -15 l 1
 617 630 l 1
232 636 m 1
 232 323 l 2
 232 294 240 276 265 264 c 0
 270 262 272 258 272 255 c 0
 272 251 268 251 261 251 c 0
 245 251 226 252 201 252 c 0
 177 252 158 251 142 251 c 0
 135 251 123 251 123 255 c 0
 123 258 134 262 138 264 c 0
 163 276 172 294 172 323 c 2
 172 537 l 2
 172 561 171 588 141 594 c 0
 135 595 126 596 126 600 c 0
 126 606 137 608 144 610 c 2
 232 636 l 1
EndSplineSet
Validated: 33
Ligature2: "Ligature Substitution lookup 6 subtable" one fraction four
Ligature2: "Ligature Substitution lookup 6 subtable" one slash four
EndChar

StartChar: onehalf
Encoding: -1 189 124
Width: 972
GlyphClass: 1
Flags: MW
HStem: -15 21G<154 204 154 154> 0 50<554 692 692 709 554 811> 251 21G<136.5 148 251 262.5> 353 25<641.5 689.5> 610 20G
VStem: 170 60<323 537 537 549> 525 8<294 295> 759 74<244 300.5 232 301>
LayerCount: 2
Fore
SplineSet
605 630 m 1x7d
 655 630 l 1
 204 -15 l 1
 154 -15 l 1xbd
 605 630 l 1x7d
811 0 m 1x7f
 499 0 l 1
 499 7 509 33 530 62 c 0
 553 93 603 122 648 142 c 0
 734 178 759 217 759 271 c 0
 759 331 721 353 658 353 c 0
 607 353 558 335 533 295 c 0
 533 293 531 292 529 292 c 0
 527 292 525 293 525 295 c 2
 510 347 l 1
 558 369 615 378 668 378 c 0
 743 378 833 340 833 261 c 0
 833 203 779 166 724 148 c 2
 657 126 l 2
 592 106 554 62 554 50 c 1
 692 50 l 2
 726 50 774 52 804 65 c 0
 812 70 829 83 834 90 c 0
 835 92 836 93 838 93 c 0
 841 93 842 91 842 89 c 0
 842 86 841 83 838 76 c 2
 811 0 l 1x7f
230 636 m 1
 230 323 l 2
 230 294 238 276 263 264 c 0
 268 262 270 258 270 255 c 0
 270 251 266 251 259 251 c 0
 243 251 224 252 199 252 c 0
 175 252 156 251 140 251 c 0
 133 251 121 251 121 255 c 0
 121 258 132 262 136 264 c 0
 161 276 170 294 170 323 c 2
 170 537 l 2
 170 561 169 588 139 594 c 0
 133 595 124 596 124 600 c 0
 124 606 135 608 142 610 c 2
 230 636 l 1
EndSplineSet
Validated: 1
Ligature2: "Ligature Substitution lookup 6 subtable" one fraction two
Ligature2: "Ligature Substitution lookup 6 subtable" one slash two
EndChar

StartChar: threequarters
Encoding: -1 190 125
Width: 972
GlyphClass: 1
Flags: MW
HStem: -15 21G<274 324 274 274> -1 122<670.5 674 674 708 533 814> 94 27<533 708 533 708> 243 25<207 264 204.5 274.5> 439 25<231 262.5 227.5 269> 605 25<242 269>
VStem: 191 95<451 453 451 465 451 465> 337 74<513 565> 356 74<352 382.5> 708 60<71 93 56.5 94 56.5 94 56.5 122 122 314 314 314>
LayerCount: 2
Fore
SplineSet
859 93 m 1xbcc0
 768 93 l 1
 768 71 l 2
 768 42 782 14 804 8 c 0xbec0
 814 5 822 4 822 2 c 0
 822 -1 821 -1 814 -1 c 0
 786 -1 767 0 674 -1 c 0
 667 -1 664 -1 664 4 c 0
 664 6 668 9 676 12 c 0
 697 19 708 35 708 71 c 2x5cc0
 708 94 l 1
 492 94 l 1
 492 114 502 122 512 133 c 2
 735 362 l 2
 741 368 746 375 751 380 c 0
 754 383 756 383 760 383 c 0
 762 383 768 381 768 375 c 2
 768 122 l 1
 789 122 841 123 861 148 c 0
 866 154 871 160 874 164 c 0
 878 167 880 168 881 168 c 0
 882 168 883 167 883 166 c 2
 883 166 883 164 882 160 c 2
 859 93 l 1xbcc0
708 314 m 1
 533 121 l 1
 708 121 l 1
 708 314 l 1
725 630 m 1
 775 630 l 1
 324 -15 l 1
 274 -15 l 1
 725 630 l 1
191 437 m 1
 191 465 l 1
 205 464 220 464 235 464 c 0
 290 464 337 479 337 538 c 0
 337 592 296 605 242 605 c 0
 186 607 151 598 122 556 c 0
 118 549 113 543 110 543 c 0
 108 543 107 546 106 551 c 2
 92 599 l 1
 146 624 194 630 253 630 c 0
 311 630 411 611 411 543 c 0xbf40
 411 483 339 461 286 453 c 1
 286 451 l 1
 344 442 430 422 430 352 c 0
 430 267 311 243 238 243 c 0
 176 243 114 254 60 283 c 1
 76 326 l 2
 81 340 84 346 88 346 c 0
 90 346 92 344 94 335 c 0
 109 280 176 268 233 268 c 0
 295 268 357 287 356 352 c 0
 356 413 299 439 239 439 c 0
 223 439 206 439 191 437 c 1
EndSplineSet
Validated: 33
Ligature2: "Ligature Substitution lookup 6 subtable" three fraction four
Ligature2: "Ligature Substitution lookup 6 subtable" three slash four
EndChar

StartChar: questiondown
Encoding: -1 191 126
Width: 500
GlyphClass: 1
Flags: MW
HStem: -137 25<238.5 324 238.5 326.5> 438 97<272 300>
VStem: 44 96<-13 61.5 -19 93.5> 238 97<474 500> 276 22<408 408>
LayerCount: 2
Fore
SplineSet
456 19 m 1xf0
 485 -96 l 1
 424 -122 360 -137 293 -137 c 0
 173 -137 44 -82 44 56 c 0
 44 131 105 179 164 228 c 0
 224 278 282 329 276 408 c 1
 298 408 l 1xe8
 303 333 264 274 223 216 c 0
 182 157 140 99 140 24 c 0
 140 -62 196 -112 281 -112 c 0
 367 -112 427 -59 456 19 c 1xf0
335 487 m 0xf0
 335 461 314 438 286 438 c 0
 258 438 238 461 238 487 c 0
 238 513 258 535 286 535 c 0
 314 535 335 513 335 487 c 0xf0
EndSplineSet
Validated: 33
EndChar

StartChar: Agrave
Encoding: -1 192 127
Width: 778
GlyphClass: 1
Flags: MW
HStem: -2 21G<12.5 29 148 164.5 567.5 584 750.5 769.5> 312 25<242 476 242 486 230 476> 640 20G<393 395 395 396.5>
VStem: -1 776<2 4 2 6>
LayerCount: 2
Fore
SplineSet
476 337 m 1
 363 553 l 1
 242 337 l 1
 476 337 l 1
486 312 m 1
 230 312 l 1
 166 191 l 2
 146 154 122 102 122 63 c 0
 122 46 132 30 147 19 c 0
 159 10 175 8 175 2 c 0
 175 -1 169 -2 160 -2 c 0
 136 -2 113 0 90 0 c 0
 66 0 41 -2 17 -2 c 0
 8 -2 -1 -2 -1 3 c 0
 -1 9 14 16 20 22 c 0
 61 61 99 128 123 170 c 2
 386 654 l 2
 388 658 390 660 393 660 c 2
 395 660 l 2
 398 660 402 656 402 654 c 2
 697 86 l 2
 711 59 735 31 760 14 c 0
 769 8 775 5 775 3 c 0
 775 1 774 -2 765 -2 c 0
 736 -2 702 0 671 0 c 0
 640 0 598 -2 570 -2 c 0
 565 -2 562 -1 562 1 c 0
 562 7 571 8 581 13 c 0
 590 18 599 27 599 49 c 0
 599 76 577 128 551 180 c 2
 486 312 l 1
431 684 m 1
 283 779 l 2
 263 794 248 805 248 822 c 0
 248 846 265 856 280 856 c 0
 297 856 312 845 325 831 c 2
 473 684 l 1
 431 684 l 1
EndSplineSet
Validated: 1
EndChar

StartChar: Aacute
Encoding: 0 193 128
Width: 778
GlyphClass: 1
Flags: MW
HStem: -2 21G<12.5 29 148 164.5 567.5 584 750.5 769.5> 312 25<242 476 242 486 230 476> 640 20G<393 395 395 396.5>
VStem: -1 776<2 4 2 6>
LayerCount: 2
Fore
SplineSet
476 337 m 1
 363 553 l 1
 242 337 l 1
 476 337 l 1
486 312 m 1
 230 312 l 1
 166 191 l 2
 146 154 122 102 122 63 c 0
 122 46 132 30 147 19 c 0
 159 10 175 8 175 2 c 0
 175 -1 169 -2 160 -2 c 0
 136 -2 113 0 90 0 c 0
 66 0 41 -2 17 -2 c 0
 8 -2 -1 -2 -1 3 c 0
 -1 9 14 16 20 22 c 0
 61 61 99 128 123 170 c 2
 386 654 l 2
 388 658 390 660 393 660 c 2
 395 660 l 2
 398 660 402 656 402 654 c 2
 697 86 l 2
 711 59 735 31 760 14 c 0
 769 8 775 5 775 3 c 0
 775 1 774 -2 765 -2 c 0
 736 -2 702 0 671 0 c 0
 640 0 598 -2 570 -2 c 0
 565 -2 562 -1 562 1 c 0
 562 7 571 8 581 13 c 0
 590 18 599 27 599 49 c 0
 599 76 577 128 551 180 c 2
 486 312 l 1
364 684 m 1
 322 684 l 1
 470 831 l 2
 483 845 498 856 515 856 c 0
 530 856 547 846 547 822 c 0
 547 805 532 794 512 779 c 2
 364 684 l 1
EndSplineSet
Validated: 1
EndChar

StartChar: Acircumflex
Encoding: -1 194 129
Width: 778
GlyphClass: 1
Flags: MW
HStem: -2 21G<12.5 29 148 164.5 567.5 584 750.5 769.5> 312 25<242 476 242 486 230 476> 640 20G<393 395 395 396.5> 684 167<242 429 242 429 366 519 366 554>
VStem: -1 776<2 4 2 6>
LayerCount: 2
Fore
SplineSet
476 337 m 1
 363 553 l 1
 242 337 l 1
 476 337 l 1
486 312 m 1
 230 312 l 1
 166 191 l 2
 146 154 122 102 122 63 c 0
 122 46 132 30 147 19 c 0
 159 10 175 8 175 2 c 0
 175 -1 169 -2 160 -2 c 0
 136 -2 113 0 90 0 c 0
 66 0 41 -2 17 -2 c 0
 8 -2 -1 -2 -1 3 c 0
 -1 9 14 16 20 22 c 0
 61 61 99 128 123 170 c 2
 386 654 l 2
 388 658 390 660 393 660 c 2
 395 660 l 2
 398 660 402 656 402 654 c 2
 697 86 l 2
 711 59 735 31 760 14 c 0
 769 8 775 5 775 3 c 0
 775 1 774 -2 765 -2 c 0
 736 -2 702 0 671 0 c 0
 640 0 598 -2 570 -2 c 0
 565 -2 562 -1 562 1 c 0
 562 7 571 8 581 13 c 0
 590 18 599 27 599 49 c 0
 599 76 577 128 551 180 c 2
 486 312 l 1
398 787 m 1
 277 684 l 1
 242 684 l 1
 366 851 l 1
 429 851 l 1
 554 684 l 1
 519 684 l 1xf8
 398 787 l 1
EndSplineSet
Validated: 1
EndChar

StartChar: Atilde
Encoding: -1 195 130
Width: 778
GlyphClass: 1
Flags: MW
HStem: -2 21G<12.5 29 148 164.5 567.5 584 750.5 769.5> 312 25<242 476 242 486 230 476> 640 20G<393 395 395 396.5> 710 55<468.5 486.5> 755 55<306 327.5>
VStem: -1 776<2 4 2 6>
LayerCount: 2
Fore
SplineSet
476 337 m 1xec
 363 553 l 1
 242 337 l 1
 476 337 l 1xec
486 312 m 1
 230 312 l 1
 166 191 l 2
 146 154 122 102 122 63 c 0
 122 46 132 30 147 19 c 0
 159 10 175 8 175 2 c 0
 175 -1 169 -2 160 -2 c 0
 136 -2 113 0 90 0 c 0
 66 0 41 -2 17 -2 c 0
 8 -2 -1 -2 -1 3 c 0
 -1 9 14 16 20 22 c 0
 61 61 99 128 123 170 c 2
 386 654 l 2
 388 658 390 660 393 660 c 2
 395 660 l 2
 398 660 402 656 402 654 c 2
 697 86 l 2
 711 59 735 31 760 14 c 0
 769 8 775 5 775 3 c 0
 775 1 774 -2 765 -2 c 0
 736 -2 702 0 671 0 c 0
 640 0 598 -2 570 -2 c 0
 565 -2 562 -1 562 1 c 0
 562 7 571 8 581 13 c 0
 590 18 599 27 599 49 c 0
 599 76 577 128 551 180 c 2
 486 312 l 1
534 815 m 1xf4
 563 815 l 1
 551 754 520 710 453 710 c 0xf4
 426 710 402 721 379 733 c 0
 357 744 337 755 318 755 c 0
 290 755 270 736 263 710 c 1
 233 710 l 1
 246 765 275 810 337 810 c 0xec
 363 810 389 799 413 788 c 0
 437 776 459 765 478 765 c 0
 506 765 527 789 534 815 c 1xf4
EndSplineSet
Validated: 1
EndChar

StartChar: Adieresis
Encoding: -1 196 131
Width: 778
GlyphClass: 1
Flags: MW
HStem: -2 21G<12.5 29 148 164.5 567.5 584 750.5 769.5> 312 25<242 476 242 486 230 476> 640 20G<393 395 395 396.5> 704 97<285 313 484 512>
VStem: 250 97<739 765> 449 97<739 765>
LayerCount: 2
Fore
SplineSet
476 337 m 1
 363 553 l 1
 242 337 l 1
 476 337 l 1
486 312 m 1
 230 312 l 1
 166 191 l 2
 146 154 122 102 122 63 c 0
 122 46 132 30 147 19 c 0
 159 10 175 8 175 2 c 0
 175 -1 169 -2 160 -2 c 0
 136 -2 113 0 90 0 c 0
 66 0 41 -2 17 -2 c 0
 8 -2 -1 -2 -1 3 c 0
 -1 9 14 16 20 22 c 0
 61 61 99 128 123 170 c 2
 386 654 l 2
 388 658 390 660 393 660 c 2
 395 660 l 2
 398 660 402 656 402 654 c 2
 697 86 l 2
 711 59 735 31 760 14 c 0
 769 8 775 5 775 3 c 0
 775 1 774 -2 765 -2 c 0
 736 -2 702 0 671 0 c 0
 640 0 598 -2 570 -2 c 0
 565 -2 562 -1 562 1 c 0
 562 7 571 8 581 13 c 0
 590 18 599 27 599 49 c 0
 599 76 577 128 551 180 c 2
 486 312 l 1
250 752 m 0
 250 778 271 801 299 801 c 0
 327 801 347 778 347 752 c 0
 347 726 327 704 299 704 c 0
 271 704 250 726 250 752 c 0
449 752 m 0
 449 778 470 801 498 801 c 0
 526 801 546 778 546 752 c 0
 546 726 526 704 498 704 c 0
 470 704 449 726 449 752 c 0
EndSplineSet
Validated: 1
EndChar

StartChar: Aring
Encoding: -1 197 132
Width: 778
GlyphClass: 1
Flags: MW
HStem: -2 21G<12.5 29 148 164.5 567.5 584 750.5 769.5> 312 25<242 476 242 486 230 476> 640 20G<393 395 395 396.5> 684 39<380.5 415 380.5 424.5> 844 39<380.5 415>
VStem: 298 39<765.5 802 765.5 811.5> 458 39<765.5 802>
LayerCount: 2
Fore
SplineSet
476 337 m 1
 363 553 l 1
 242 337 l 1
 476 337 l 1
486 312 m 1
 230 312 l 1
 166 191 l 2
 146 154 122 102 122 63 c 0
 122 46 132 30 147 19 c 0
 159 10 175 8 175 2 c 0
 175 -1 169 -2 160 -2 c 0
 136 -2 113 0 90 0 c 0
 66 0 41 -2 17 -2 c 0
 8 -2 -1 -2 -1 3 c 0
 -1 9 14 16 20 22 c 0
 61 61 99 128 123 170 c 2
 386 654 l 2
 388 658 390 660 393 660 c 2
 395 660 l 2
 398 660 402 656 402 654 c 2
 697 86 l 2
 711 59 735 31 760 14 c 0
 769 8 775 5 775 3 c 0
 775 1 774 -2 765 -2 c 0
 736 -2 702 0 671 0 c 0
 640 0 598 -2 570 -2 c 0
 565 -2 562 -1 562 1 c 0
 562 7 571 8 581 13 c 0
 590 18 599 27 599 49 c 0
 599 76 577 128 551 180 c 2
 486 312 l 1
397 883 m 0
 452 883 497 839 497 784 c 0
 497 729 452 684 397 684 c 0xfe
 343 684 298 729 298 784 c 0
 298 839 343 883 397 883 c 0
398 844 m 0
 363 844 337 820 337 784 c 0
 337 747 363 723 398 723 c 0xfe
 432 723 458 747 458 784 c 0
 458 820 432 844 398 844 c 0
EndSplineSet
Validated: 1
EndChar

StartChar: AE
Encoding: -1 198 133
Width: 963
GlyphClass: 1
Flags: MW
HStem: -3 21G<-59.5 -51 93.5 99.5> 0 25<605 651 651 695> 331 25<237 438 237 438 218 438 524 553> 615 25<524 628 524 524> 623 17<415.5 423>
VStem: 438 86<148 157 157 331 356 604 604 609>
LayerCount: 2
Fore
SplineSet
237 356 m 1x74
 438 356 l 1
 438 604 l 2
 438 614 433 624 423 623 c 0
 408 623 397 605 377 574 c 2x6c
 237 356 l 1x74
910 0 m 1
 381 0 l 2
 375 0 373 1 373 4 c 0
 373 9 392 16 409 30 c 0x74
 426 45 438 77 438 148 c 2
 438 331 l 1
 218 331 l 1
 127 193 l 2
 91 138 59 84 59 61 c 0
 59 38 71 27 83 16 c 0
 93 8 106 7 106 2 c 0
 106 -2 102 -3 97 -3 c 0
 90 -3 75 0 27 0 c 0
 3 0 -46 -3 -56 -3 c 0
 -63 -3 -66 -2 -66 3 c 0
 -66 7 -40 27 -24 44 c 0
 4 73 46 122 66 152 c 2
 342 558 l 2
 360 584 361 594 361 602 c 0
 361 614 354 620 342 623 c 0
 331 626 323 628 323 633 c 0
 323 638 328 640 346 640 c 2
 868 640 l 1
 886 582 l 2
 894 557 903 532 903 521 c 0
 903 517 900 515 897 515 c 0
 893 515 891 517 889 519 c 0
 838 593 750 615 628 615 c 2
 524 615 l 1xb4
 524 356 l 1
 553 356 l 2
 679 356 744 357 776 380 c 0
 795 394 802 410 810 426 c 0
 812 429 814 431 817 431 c 0
 822 431 824 425 824 416 c 2
 824 268 l 2
 824 259 822 255 819 255 c 0
 816 255 812 257 811 260 c 0
 805 272 797 290 783 300 c 0
 748 324 700 331 553 331 c 2
 524 331 l 1
 524 157 l 2
 524 46 538 25 605 25 c 2
 651 25 l 2
 739 25 809 40 877 79 c 0
 899 91 920 111 932 128 c 0
 937 134 944 139 947 139 c 0
 950 139 953 136 953 134 c 0
 953 131 949 122 947 116 c 2
 910 0 l 1
EndSplineSet
Validated: 1
EndChar

StartChar: Ccedilla
Encoding: -1 199 134
Width: 759
GlyphClass: 1
Flags: MW
HStem: -216 36<404 419 393 445> -199 21G<328 328> -100 38<402 474.5> -20 25<441 490.5> -18 23<408 408> 635 25<343 485>
VStem: 42 107<239 415 239 423.5> 461 75<-152.5 -119>
LayerCount: 2
Fore
SplineSet
718 571 m 1x76
 699 513 l 2
 691 490 686 476 681 476 c 0
 679 476 675 480 674 485 c 0
 634 601 536 635 434 635 c 0
 252 635 149 504 149 326 c 0
 149 152 245 5 433 5 c 0
 566 5 651 66 686 136 c 0
 690 145 692 152 697 152 c 0
 700 152 702 146 707 128 c 2
 723 66 l 1
 642 7 540 -20 441 -20 c 1
 424 -65 l 1
 434 -64 443 -62 453 -62 c 0
 496 -62 536 -84 536 -131 c 0
 536 -192 471 -216 419 -216 c 0xb7
 389 -216 355 -212 328 -199 c 1x76
 342 -168 l 1
 361 -174 383 -180 403 -180 c 0
 435 -180 461 -171 461 -134 c 0
 461 -104 431 -100 408 -100 c 0
 396 -100 382 -108 373 -99 c 1
 408 -18 l 1xaf
 224 -8 42 106 42 311 c 0
 42 536 228 660 435 660 c 0
 544 660 640 630 718 571 c 1x76
EndSplineSet
Validated: 33
EndChar

StartChar: Egrave
Encoding: -1 200 135
Width: 704
GlyphClass: 1
Flags: MW
HStem: 0 25<268 367.5 268 644> 252 21G<537 540> 331 25<176 273 176 273> 615 25<176 358 176 176>
VStem: 90 86<189 201 201 331 356 538 538 557>
LayerCount: 2
Fore
SplineSet
176 331 m 1
 176 201 l 2
 176 162 179 124 183 85 c 0
 189 30 217 25 319 25 c 0
 416 25 525 30 612 78 c 0
 644 96 655 111 672 132 c 0
 675 135 678 137 681 137 c 0
 684 137 686 135 686 132 c 0
 686 129 686 125 684 120 c 2
 644 0 l 1
 36 0 l 2
 26 0 22 0 22 3 c 0
 22 7 27 12 40 15 c 0
 87 28 90 142 90 189 c 2
 90 538 l 2
 90 576 88 610 52 628 c 0
 48 630 45 631 45 634 c 0
 45 640 57 640 66 640 c 2
 598 640 l 1
 616 582 l 2
 624 557 635 517 635 513 c 0
 635 510 632 509 629 509 c 0
 626 509 622 514 619 519 c 0
 568 593 480 615 358 615 c 2
 176 615 l 1
 176 356 l 1
 273 356 l 2
 417 356 478 361 502 384 c 0
 517 399 523 410 530 426 c 0
 532 429 534 431 537 431 c 0
 542 431 542 425 542 415 c 2
 542 268 l 2
 542 262 542 252 538 252 c 0
 536 252 534 254 532 257 c 0
 525 272 518 285 498 299 c 0
 450 331 332 331 273 331 c 2
 176 331 l 1
380 684 m 1
 232 779 l 2
 212 794 197 805 197 822 c 0
 197 846 214 856 229 856 c 0
 246 856 261 845 274 831 c 2
 422 684 l 1
 380 684 l 1
EndSplineSet
Validated: 1
EndChar

StartChar: Eacute
Encoding: 3 201 136
Width: 704
GlyphClass: 1
Flags: MW
HStem: 0 25<268 367.5 268 644> 252 21G<537 540> 331 25<176 273 176 273> 615 25<176 358 176 176>
VStem: 90 86<189 201 201 331 356 538 538 557>
LayerCount: 2
Fore
SplineSet
176 331 m 1
 176 201 l 2
 176 162 179 124 183 85 c 0
 189 30 217 25 319 25 c 0
 416 25 525 30 612 78 c 0
 644 96 655 111 672 132 c 0
 675 135 678 137 681 137 c 0
 684 137 686 135 686 132 c 0
 686 129 686 125 684 120 c 2
 644 0 l 1
 36 0 l 2
 26 0 22 0 22 3 c 0
 22 7 27 12 40 15 c 0
 87 28 90 142 90 189 c 2
 90 538 l 2
 90 576 88 610 52 628 c 0
 48 630 45 631 45 634 c 0
 45 640 57 640 66 640 c 2
 598 640 l 1
 616 582 l 2
 624 557 635 517 635 513 c 0
 635 510 632 509 629 509 c 0
 626 509 622 514 619 519 c 0
 568 593 480 615 358 615 c 2
 176 615 l 1
 176 356 l 1
 273 356 l 2
 417 356 478 361 502 384 c 0
 517 399 523 410 530 426 c 0
 532 429 534 431 537 431 c 0
 542 431 542 425 542 415 c 2
 542 268 l 2
 542 262 542 252 538 252 c 0
 536 252 534 254 532 257 c 0
 525 272 518 285 498 299 c 0
 450 331 332 331 273 331 c 2
 176 331 l 1
313 684 m 1
 271 684 l 1
 419 831 l 2
 432 845 447 856 464 856 c 0
 479 856 496 846 496 822 c 0
 496 805 481 794 461 779 c 2
 313 684 l 1
EndSplineSet
Validated: 1
EndChar

StartChar: Ecircumflex
Encoding: -1 202 137
Width: 704
GlyphClass: 1
Flags: MW
HStem: 0 25<268 367.5 268 644> 252 21G<537 540> 331 25<176 273 176 273> 615 25<176 358 176 176> 684 167<191 378 191 378 315 468 315 503>
VStem: 90 86<189 201 201 331 356 538 538 557>
LayerCount: 2
Fore
SplineSet
176 331 m 1
 176 201 l 2
 176 162 179 124 183 85 c 0
 189 30 217 25 319 25 c 0
 416 25 525 30 612 78 c 0
 644 96 655 111 672 132 c 0
 675 135 678 137 681 137 c 0
 684 137 686 135 686 132 c 0
 686 129 686 125 684 120 c 2
 644 0 l 1
 36 0 l 2
 26 0 22 0 22 3 c 0
 22 7 27 12 40 15 c 0
 87 28 90 142 90 189 c 2
 90 538 l 2
 90 576 88 610 52 628 c 0
 48 630 45 631 45 634 c 0
 45 640 57 640 66 640 c 2
 598 640 l 1
 616 582 l 2
 624 557 635 517 635 513 c 0
 635 510 632 509 629 509 c 0
 626 509 622 514 619 519 c 0
 568 593 480 615 358 615 c 2
 176 615 l 1
 176 356 l 1
 273 356 l 2
 417 356 478 361 502 384 c 0
 517 399 523 410 530 426 c 0
 532 429 534 431 537 431 c 0
 542 431 542 425 542 415 c 2
 542 268 l 2
 542 262 542 252 538 252 c 0
 536 252 534 254 532 257 c 0
 525 272 518 285 498 299 c 0
 450 331 332 331 273 331 c 2
 176 331 l 1
347 787 m 1
 226 684 l 1
 191 684 l 1
 315 851 l 1
 378 851 l 1
 503 684 l 1
 468 684 l 1
 347 787 l 1
EndSplineSet
Validated: 1
EndChar

StartChar: Edieresis
Encoding: -1 203 138
Width: 704
GlyphClass: 1
Flags: MW
HStem: 0 25<268 367.5 268 644> 252 21G<537 540> 331 25<176 273 176 273> 615 25<176 358 176 176> 704 97<234 262 433 461>
VStem: 90 86<189 201 201 331 356 538 538 557> 199 97<739 765> 398 97<739 765>
LayerCount: 2
Fore
SplineSet
176 331 m 1
 176 201 l 2
 176 162 179 124 183 85 c 0
 189 30 217 25 319 25 c 0
 416 25 525 30 612 78 c 0
 644 96 655 111 672 132 c 0
 675 135 678 137 681 137 c 0
 684 137 686 135 686 132 c 0
 686 129 686 125 684 120 c 2
 644 0 l 1
 36 0 l 2
 26 0 22 0 22 3 c 0
 22 7 27 12 40 15 c 0
 87 28 90 142 90 189 c 2
 90 538 l 2
 90 576 88 610 52 628 c 0
 48 630 45 631 45 634 c 0
 45 640 57 640 66 640 c 2
 598 640 l 1
 616 582 l 2
 624 557 635 517 635 513 c 0
 635 510 632 509 629 509 c 0
 626 509 622 514 619 519 c 0
 568 593 480 615 358 615 c 2
 176 615 l 1
 176 356 l 1
 273 356 l 2
 417 356 478 361 502 384 c 0
 517 399 523 410 530 426 c 0
 532 429 534 431 537 431 c 0
 542 431 542 425 542 415 c 2
 542 268 l 2
 542 262 542 252 538 252 c 0
 536 252 534 254 532 257 c 0
 525 272 518 285 498 299 c 0
 450 331 332 331 273 331 c 2
 176 331 l 1
199 752 m 0xff
 199 778 220 801 248 801 c 0
 276 801 296 778 296 752 c 0
 296 726 276 704 248 704 c 0
 220 704 199 726 199 752 c 0xff
398 752 m 0
 398 778 419 801 447 801 c 0
 475 801 495 778 495 752 c 0
 495 726 475 704 447 704 c 0
 419 704 398 726 398 752 c 0
EndSplineSet
Validated: 1
EndChar

StartChar: Igrave
Encoding: -1 204 139
Width: 278
GlyphClass: 1
Flags: MW
HStem: -3 21G<43 51.5 222.5 230> 624 20G<61.5 74 197.5 211>
VStem: 96 86<191 543>
LayerCount: 2
Fore
SplineSet
96 191 m 2
 96 543 l 2
 96 575 94 618 59 631 c 0
 55 633 52 634 52 638 c 0
 52 644 55 644 68 644 c 0
 80 644 102 640 139 640 c 0
 162 640 186 644 209 644 c 0
 213 644 226 644 226 639 c 0
 226 635 224 632 219 631 c 0
 185 621 182 582 182 543 c 2
 182 191 l 2
 182 100 182 29 227 9 c 0
 235 6 238 3 238 0 c 0
 238 -2 233 -3 227 -3 c 0
 218 -3 187 0 139 0 c 0
 83 0 56 -3 47 -3 c 0
 39 -3 35 -2 35 1 c 0
 35 3 42 6 49 11 c 0
 93 39 96 127 96 191 c 2
167 684 m 1
 19 779 l 2
 -1 794 -16 805 -16 822 c 0
 -16 846 1 856 16 856 c 0
 33 856 48 845 61 831 c 2
 209 684 l 1
 167 684 l 1
EndSplineSet
Validated: 1
EndChar

StartChar: Iacute
Encoding: 5 205 140
Width: 278
GlyphClass: 1
Flags: MW
HStem: -3 21G<43 51.5 222.5 230> 624 20G<61.5 74 197.5 211>
VStem: 96 86<191 543>
LayerCount: 2
Fore
SplineSet
96 191 m 2
 96 543 l 2
 96 575 94 618 59 631 c 0
 55 633 52 634 52 638 c 0
 52 644 55 644 68 644 c 0
 80 644 102 640 139 640 c 0
 162 640 186 644 209 644 c 0
 213 644 226 644 226 639 c 0
 226 635 224 632 219 631 c 0
 185 621 182 582 182 543 c 2
 182 191 l 2
 182 100 182 29 227 9 c 0
 235 6 238 3 238 0 c 0
 238 -2 233 -3 227 -3 c 0
 218 -3 187 0 139 0 c 0
 83 0 56 -3 47 -3 c 0
 39 -3 35 -2 35 1 c 0
 35 3 42 6 49 11 c 0
 93 39 96 127 96 191 c 2
100 684 m 1
 58 684 l 1
 206 831 l 2
 219 845 234 856 251 856 c 0
 266 856 283 846 283 822 c 0
 283 805 268 794 248 779 c 2
 100 684 l 1
EndSplineSet
Validated: 1
EndChar

StartChar: Icircumflex
Encoding: -1 206 141
Width: 278
GlyphClass: 1
Flags: MW
HStem: -3 21G<43 51.5 222.5 230> 624 20G<61.5 74 197.5 211> 684 167<-22 165 -22 165 102 255 102 290>
VStem: 96 86<191 543>
LayerCount: 2
Fore
SplineSet
96 191 m 2
 96 543 l 2
 96 575 94 618 59 631 c 0
 55 633 52 634 52 638 c 0
 52 644 55 644 68 644 c 0
 80 644 102 640 139 640 c 0
 162 640 186 644 209 644 c 0
 213 644 226 644 226 639 c 0
 226 635 224 632 219 631 c 0
 185 621 182 582 182 543 c 2
 182 191 l 2
 182 100 182 29 227 9 c 0
 235 6 238 3 238 0 c 0
 238 -2 233 -3 227 -3 c 0
 218 -3 187 0 139 0 c 0
 83 0 56 -3 47 -3 c 0
 39 -3 35 -2 35 1 c 0
 35 3 42 6 49 11 c 0
 93 39 96 127 96 191 c 2
134 787 m 1
 13 684 l 1
 -22 684 l 1
 102 851 l 1
 165 851 l 1
 290 684 l 1
 255 684 l 1
 134 787 l 1
EndSplineSet
Validated: 1
EndChar

StartChar: Idieresis
Encoding: -1 207 142
Width: 278
GlyphClass: 1
Flags: MW
HStem: -3 21G<43 51.5 222.5 230> 624 20G<61.5 74 197.5 211> 704 97<21 49 220 248>
VStem: -14 97<739 765> 96 86<191 543> 185 97<739 765>
LayerCount: 2
Fore
SplineSet
96 191 m 2
 96 543 l 2
 96 575 94 618 59 631 c 0
 55 633 52 634 52 638 c 0
 52 644 55 644 68 644 c 0
 80 644 102 640 139 640 c 0
 162 640 186 644 209 644 c 0
 213 644 226 644 226 639 c 0
 226 635 224 632 219 631 c 0
 185 621 182 582 182 543 c 2
 182 191 l 2
 182 100 182 29 227 9 c 0
 235 6 238 3 238 0 c 0
 238 -2 233 -3 227 -3 c 0
 218 -3 187 0 139 0 c 0
 83 0 56 -3 47 -3 c 0
 39 -3 35 -2 35 1 c 0
 35 3 42 6 49 11 c 0
 93 39 96 127 96 191 c 2
-14 752 m 0xf4
 -14 778 7 801 35 801 c 0
 63 801 83 778 83 752 c 0
 83 726 63 704 35 704 c 0
 7 704 -14 726 -14 752 c 0xf4
185 752 m 0
 185 778 206 801 234 801 c 0
 262 801 282 778 282 752 c 0
 282 726 262 704 234 704 c 0
 206 704 185 726 185 752 c 0
EndSplineSet
Validated: 1
EndChar

StartChar: Eth
Encoding: -1 208 143
Width: 796
GlyphClass: 1
Flags: MW
HStem: -4 21G<30 35> 0 22 331 25<14 92 14 92 178 358> 619 25<178 346 178 178>
VStem: 92 86<166 184 184 331 356 506 506 551> 645 107<241.5 413.5 241.5 439>
LayerCount: 2
Fore
SplineSet
358 356 m 1x7c
 358 331 l 1
 178 331 l 1
 178 184 l 2
 178 60 197 31 240 27 c 0
 281 23 309 22 333 22 c 0
 358 22 383 23 408 25 c 0
 552 37 645 112 645 334 c 0
 645 544 548 619 346 619 c 2
 178 619 l 1
 178 356 l 1
 358 356 l 1x7c
14 331 m 1
 14 356 l 1
 92 356 l 1
 92 506 l 2
 92 596 79 613 54 625 c 0
 48 629 43 631 43 636 c 0
 43 640 46 644 73 644 c 2
 380 644 l 2
 628 644 752 494 752 333 c 0
 752 150 622 16 422 0 c 0
 397 -2 371 -3 345 -3 c 0
 319 -3 274 0 228 0 c 2
 114 0 l 2x7c
 93 0 75 -1 61 -2 c 0
 48 -3 38 -4 32 -4 c 0
 28 -4 25 -3 25 -1 c 0
 25 3 29 5 36 9 c 0xbc
 89 39 92 62 92 166 c 2
 92 331 l 1
 14 331 l 1
EndSplineSet
Validated: 1
EndChar

StartChar: Ntilde
Encoding: -1 209 144
Width: 759
GlyphClass: 1
Flags: MW
HStem: -20 21G<659 664 664 666> -3 21G<14.5 24 180 188.5> 567 73<122 122> 622 20G 624 20G<34.5 45 576.5 589.5 718.5 736> 710 55<465.5 483.5> 755 55<303 324.5>
VStem: 90 32<181 524 524 524> 644 32<146 480>
LayerCount: 2
Fore
SplineSet
90 181 m 2x4b80
 90 524 l 2
 89 577 82 614 36 630 c 0
 31 632 27 635 27 637 c 0
 27 641 29 644 40 644 c 0x4d80
 50 644 90 640 114 640 c 0x5380
 139 640 168 641 189 642 c 1
 225 591 267 545 311 501 c 2
 644 146 l 1
 644 480 l 2
 644 565 615 607 588 623 c 0
 575 630 565 630 565 635 c 0
 565 640 571 644 582 644 c 0
 597 644 640 640 660 640 c 0
 681 640 708 644 729 644 c 0
 743 644 746 639 746 636 c 0
 746 633 741 630 730 625 c 0x4b80
 705 615 676 588 676 480 c 2
 676 75 l 2
 676 22 673 -20 666 -20 c 2
 664 -20 l 2
 654 -20 642 3 580 74 c 0
 458 214 278 416 122 567 c 1xa380
 122 160 l 2
 122 58 151 28 173 15 c 0
 187 6 194 6 194 1 c 0
 194 -2 191 -3 186 -3 c 0
 174 -3 142 0 106 0 c 0
 85 0 30 -3 18 -3 c 0
 11 -3 7 -2 7 1 c 0
 7 7 32 11 47 24 c 0
 79 52 90 92 90 181 c 2x4b80
531 815 m 1
 560 815 l 1
 548 754 517 710 450 710 c 0x4d80
 423 710 399 721 376 733 c 0
 354 744 334 755 315 755 c 0
 287 755 267 736 260 710 c 1
 230 710 l 1
 243 765 272 810 334 810 c 0x4b80
 360 810 386 799 410 788 c 0
 434 776 456 765 475 765 c 0
 503 765 524 789 531 815 c 1
EndSplineSet
Validated: 1
EndChar

StartChar: Ograve
Encoding: -1 210 145
Width: 833
GlyphClass: 1
Flags: MW
HStem: -20 25<322 510> 635 25<322 510 322 511>
VStem: 42 107<226 407 226 428> 683 107<226 407>
LayerCount: 2
Fore
SplineSet
416 5 m 0
 606 5 683 139 683 313 c 0
 683 501 606 635 416 635 c 0
 226 635 149 501 149 313 c 0
 149 139 226 5 416 5 c 0
416 -20 m 0
 228 -20 42 106 42 322 c 0
 42 534 228 660 416 660 c 0
 604 660 790 534 790 322 c 0
 790 106 604 -20 416 -20 c 0
450 684 m 1
 302 779 l 2
 282 794 267 805 267 822 c 0
 267 846 284 856 299 856 c 0
 316 856 331 845 344 831 c 2
 492 684 l 1
 450 684 l 1
EndSplineSet
Validated: 1
EndChar

StartChar: Oacute
Encoding: 7 211 146
Width: 833
GlyphClass: 1
Flags: MW
HStem: -20 25<322 510> 635 25<322 510 322 511>
VStem: 42 107<226 407 226 428> 683 107<226 407>
LayerCount: 2
Fore
SplineSet
416 5 m 0
 606 5 683 139 683 313 c 0
 683 501 606 635 416 635 c 0
 226 635 149 501 149 313 c 0
 149 139 226 5 416 5 c 0
416 -20 m 0
 228 -20 42 106 42 322 c 0
 42 534 228 660 416 660 c 0
 604 660 790 534 790 322 c 0
 790 106 604 -20 416 -20 c 0
383 684 m 1
 341 684 l 1
 489 831 l 2
 502 845 517 856 534 856 c 0
 549 856 566 846 566 822 c 0
 566 805 551 794 531 779 c 2
 383 684 l 1
EndSplineSet
Validated: 1
EndChar

StartChar: Ocircumflex
Encoding: -1 212 147
Width: 833
GlyphClass: 1
Flags: MW
HStem: -20 25<322 510> 635 25<322 510 322 511> 684 167<261 448 261 448 385 538 385 573>
VStem: 42 107<226 407 226 428> 683 107<226 407>
LayerCount: 2
Fore
SplineSet
416 5 m 0
 606 5 683 139 683 313 c 0
 683 501 606 635 416 635 c 0
 226 635 149 501 149 313 c 0
 149 139 226 5 416 5 c 0
416 -20 m 0
 228 -20 42 106 42 322 c 0
 42 534 228 660 416 660 c 0
 604 660 790 534 790 322 c 0
 790 106 604 -20 416 -20 c 0
417 787 m 1
 296 684 l 1
 261 684 l 1
 385 851 l 1
 448 851 l 1
 573 684 l 1
 538 684 l 1xf8
 417 787 l 1
EndSplineSet
Validated: 1
EndChar

StartChar: Otilde
Encoding: -1 213 148
Width: 833
GlyphClass: 1
Flags: MW
HStem: -20 25<322 510> 635 25<322 510 322 511> 710 55<487.5 505.5> 755 55<325 346.5>
VStem: 42 107<226 407 226 428> 683 107<226 407>
LayerCount: 2
Fore
SplineSet
416 5 m 0xec
 606 5 683 139 683 313 c 0
 683 501 606 635 416 635 c 0
 226 635 149 501 149 313 c 0
 149 139 226 5 416 5 c 0xec
416 -20 m 0
 228 -20 42 106 42 322 c 0
 42 534 228 660 416 660 c 0
 604 660 790 534 790 322 c 0
 790 106 604 -20 416 -20 c 0
553 815 m 1
 582 815 l 1
 570 754 539 710 472 710 c 0xec
 445 710 421 721 398 733 c 0
 376 744 356 755 337 755 c 0
 309 755 289 736 282 710 c 1
 252 710 l 1
 265 765 294 810 356 810 c 0xdc
 382 810 408 799 432 788 c 0
 456 776 478 765 497 765 c 0
 525 765 546 789 553 815 c 1
EndSplineSet
Validated: 1
EndChar

StartChar: Odieresis
Encoding: -1 214 149
Width: 833
GlyphClass: 1
Flags: MW
HStem: -20 25<322 510> 635 25<322 510 322 511> 704 97<304 332 503 531>
VStem: 42 107<226 407 226 428> 269 97<739 765> 468 97<739 765> 683 107<226 407>
LayerCount: 2
Fore
SplineSet
416 5 m 0
 606 5 683 139 683 313 c 0
 683 501 606 635 416 635 c 0
 226 635 149 501 149 313 c 0
 149 139 226 5 416 5 c 0
416 -20 m 0
 228 -20 42 106 42 322 c 0
 42 534 228 660 416 660 c 0
 604 660 790 534 790 322 c 0
 790 106 604 -20 416 -20 c 0
269 752 m 0
 269 778 290 801 318 801 c 0
 346 801 366 778 366 752 c 0
 366 726 346 704 318 704 c 0
 290 704 269 726 269 752 c 0
468 752 m 0
 468 778 489 801 517 801 c 0
 545 801 565 778 565 752 c 0
 565 726 545 704 517 704 c 0
 489 704 468 726 468 752 c 0
EndSplineSet
Validated: 1
EndChar

StartChar: multiply
Encoding: -1 215 150
Width: 600
GlyphClass: 1
Flags: MW
HStem: 1 21G<82 82 518 518> 499 20G<82 82 518 518>
VStem: 41 518<42 42 42 478>
LayerCount: 2
Fore
SplineSet
259 260 m 1
 41 478 l 1
 82 519 l 1
 300 301 l 1
 518 519 l 1
 559 478 l 1
 341 260 l 1
 559 42 l 1
 518 1 l 1
 300 219 l 1
 82 1 l 1
 41 42 l 1
 259 260 l 1
EndSplineSet
Validated: 1
EndChar

StartChar: Oslash
Encoding: -1 216 151
Width: 833
GlyphClass: 1
Flags: MW
HStem: -20 25<374.5 510> 635 25<322 456 322 459.5>
VStem: 42 107<275.5 407 275.5 428> 683 107<226 355.5>
LayerCount: 2
Fore
SplineSet
630 530 m 1
 217 87 l 1
 260 36 325 5 416 5 c 0
 606 5 683 139 683 313 c 0
 683 398 667 473 630 530 c 1
745 707 m 1
 796 708 l 1
 670 573 l 1
 742 516 790 430 790 322 c 0
 790 106 604 -20 416 -20 c 0
 333 -20 250 5 184 52 c 1
 74 -66 l 1
 24 -66 l 1
 155 74 l 1
 87 132 42 216 42 322 c 0
 42 534 228 660 416 660 c 0
 496 660 575 637 640 595 c 1
 745 707 l 1
195 117 m 1
 608 560 l 1
 566 607 503 635 416 635 c 0
 226 635 149 501 149 313 c 0
 149 238 163 170 195 117 c 1
EndSplineSet
Validated: 1
EndChar

StartChar: Ugrave
Encoding: -1 217 152
Width: 778
GlyphClass: 1
Flags: MW
HStem: -20 25<322.5 477.5 322.5 486> 622 20G<746 752> 624 20G<50.5 67 198 220.5 594.5 600.5>
VStem: 90 86<214 237 237 488> 659 32<260 277 277 479>
LayerCount: 2
Fore
SplineSet
90 214 m 2xb8
 90 543 l 2
 90 614 72 622 59 628 c 0
 49 632 44 634 44 638 c 0
 44 641 46 644 55 644 c 0
 79 644 105 640 129 640 c 0
 153 640 179 644 217 644 c 0
 224 644 232 642 232 639 c 0
 232 637 229 632 218 628 c 0
 178 614 176 550 176 488 c 2
 176 237 l 2
 176 102 246 5 399 5 c 0
 556 5 659 54 659 260 c 2
 659 479 l 2
 659 566 644 607 604 625 c 0
 589 632 584 635 584 639 c 0
 584 643 593 644 596 644 c 0xb8
 605 644 619 640 677 640 c 0xd8
 690 640 706 641 719 641 c 0
 733 642 744 642 748 642 c 0
 756 642 759 640 759 638 c 0
 759 635 750 631 742 626 c 0
 704 604 691 579 691 479 c 2
 691 277 l 2
 691 32 578 -20 394 -20 c 0
 164 -20 90 62 90 214 c 2xb8
443 684 m 1
 295 779 l 2
 275 794 260 805 260 822 c 0
 260 846 277 856 292 856 c 0
 309 856 324 845 337 831 c 2
 485 684 l 1
 443 684 l 1
EndSplineSet
Validated: 1
EndChar

StartChar: Uacute
Encoding: 12 218 153
Width: 778
GlyphClass: 1
Flags: MW
HStem: -20 25<322.5 477.5 322.5 486> 622 20G<746 752> 624 20G<50.5 67 198 220.5 594.5 600.5>
VStem: 90 86<214 237 237 488> 659 32<260 277 277 479>
LayerCount: 2
Fore
SplineSet
90 214 m 2xb8
 90 543 l 2
 90 614 72 622 59 628 c 0
 49 632 44 634 44 638 c 0
 44 641 46 644 55 644 c 0
 79 644 105 640 129 640 c 0
 153 640 179 644 217 644 c 0
 224 644 232 642 232 639 c 0
 232 637 229 632 218 628 c 0
 178 614 176 550 176 488 c 2
 176 237 l 2
 176 102 246 5 399 5 c 0
 556 5 659 54 659 260 c 2
 659 479 l 2
 659 566 644 607 604 625 c 0
 589 632 584 635 584 639 c 0
 584 643 593 644 596 644 c 0xb8
 605 644 619 640 677 640 c 0xd8
 690 640 706 641 719 641 c 0
 733 642 744 642 748 642 c 0
 756 642 759 640 759 638 c 0
 759 635 750 631 742 626 c 0
 704 604 691 579 691 479 c 2
 691 277 l 2
 691 32 578 -20 394 -20 c 0
 164 -20 90 62 90 214 c 2xb8
376 684 m 1
 334 684 l 1
 482 831 l 2
 495 845 510 856 527 856 c 0
 542 856 559 846 559 822 c 0
 559 805 544 794 524 779 c 2
 376 684 l 1
EndSplineSet
Validated: 1
EndChar

StartChar: Ucircumflex
Encoding: -1 219 154
Width: 778
GlyphClass: 1
Flags: MW
HStem: -20 25<322.5 477.5 322.5 486> 622 20G<746 752> 624 20G<50.5 67 198 220.5 594.5 600.5> 684 167<254 441 254 441 378 531 378 566>
VStem: 90 86<214 237 237 488> 659 32<260 277 277 479>
LayerCount: 2
Fore
SplineSet
90 214 m 2xbc
 90 543 l 2
 90 614 72 622 59 628 c 0
 49 632 44 634 44 638 c 0
 44 641 46 644 55 644 c 0
 79 644 105 640 129 640 c 0
 153 640 179 644 217 644 c 0
 224 644 232 642 232 639 c 0
 232 637 229 632 218 628 c 0
 178 614 176 550 176 488 c 2
 176 237 l 2
 176 102 246 5 399 5 c 0
 556 5 659 54 659 260 c 2
 659 479 l 2
 659 566 644 607 604 625 c 0
 589 632 584 635 584 639 c 0
 584 643 593 644 596 644 c 0xbc
 605 644 619 640 677 640 c 0xdc
 690 640 706 641 719 641 c 0
 733 642 744 642 748 642 c 0
 756 642 759 640 759 638 c 0
 759 635 750 631 742 626 c 0
 704 604 691 579 691 479 c 2
 691 277 l 2
 691 32 578 -20 394 -20 c 0
 164 -20 90 62 90 214 c 2xbc
410 787 m 1
 289 684 l 1
 254 684 l 1
 378 851 l 1
 441 851 l 1
 566 684 l 1
 531 684 l 1
 410 787 l 1
EndSplineSet
Validated: 1
EndChar

StartChar: Udieresis
Encoding: -1 220 155
Width: 778
GlyphClass: 1
Flags: MW
HStem: -20 25<322.5 477.5 322.5 486> 622 20G<746 752> 624 20G<50.5 67 198 220.5 594.5 600.5> 704 97<297 325 496 524>
VStem: 90 86<214 237 237 488> 262 97<739 765> 461 97<739 765> 659 32<260 277 277 479>
LayerCount: 2
Fore
SplineSet
90 214 m 2xb9
 90 543 l 2
 90 614 72 622 59 628 c 0
 49 632 44 634 44 638 c 0
 44 641 46 644 55 644 c 0
 79 644 105 640 129 640 c 0
 153 640 179 644 217 644 c 0
 224 644 232 642 232 639 c 0
 232 637 229 632 218 628 c 0
 178 614 176 550 176 488 c 2
 176 237 l 2
 176 102 246 5 399 5 c 0
 556 5 659 54 659 260 c 2
 659 479 l 2
 659 566 644 607 604 625 c 0
 589 632 584 635 584 639 c 0
 584 643 593 644 596 644 c 0xbf
 605 644 619 640 677 640 c 0xd9
 690 640 706 641 719 641 c 0
 733 642 744 642 748 642 c 0
 756 642 759 640 759 638 c 0
 759 635 750 631 742 626 c 0
 704 604 691 579 691 479 c 2
 691 277 l 2
 691 32 578 -20 394 -20 c 0
 164 -20 90 62 90 214 c 2xb9
262 752 m 0
 262 778 283 801 311 801 c 0
 339 801 359 778 359 752 c 0
 359 726 339 704 311 704 c 0
 283 704 262 726 262 752 c 0
461 752 m 0
 461 778 482 801 510 801 c 0
 538 801 558 778 558 752 c 0
 558 726 538 704 510 704 c 0
 482 704 461 726 461 752 c 0
EndSplineSet
Validated: 1
EndChar

StartChar: Yacute
Encoding: 13 221 156
Width: 704
GlyphClass: 1
Flags: MW
HStem: -2 21G<246.5 256 429 438.5> 624 20G<4 13.5 192 206.5 539 541 541 558.5 686 701 701 701>
VStem: 300 86<148 275 275 275>
LayerCount: 2
Fore
SplineSet
386 285 m 1
 386 148 l 2
 386 71 394 41 412 23 c 0
 429 9 446 4 446 2 c 0
 446 0 442 -2 435 -2 c 0
 423 -2 392 0 346 0 c 0
 293 0 262 -2 250 -2 c 0
 243 -2 241 1 241 2 c 0
 241 6 259 9 273 23 c 0
 291 41 300 71 300 148 c 2
 300 275 l 1
 149 475 l 2
 120 509 63 583 29 614 c 0
 20 622 -1 631 -1 638 c 0
 -1 642 2 644 6 644 c 0
 21 644 66 640 94 640 c 0
 129 640 180 644 204 644 c 0
 209 644 212 641 212 636 c 0
 212 633 204 633 197 630 c 0
 184 626 171 617 171 597 c 0
 171 571 192 537 231 491 c 2
 372 321 l 1
 485 451 l 2
 510 481 575 551 575 593 c 0
 575 616 556 627 543 631 c 0
 540 632 534 634 534 638 c 0
 534 641 535 644 539 644 c 2
 541 644 l 2
 576 644 597 641 616 641 c 0
 641 641 664 644 686 644 c 2
 701 644 l 2
 705 642 706 640 706 637 c 0
 706 634 704 631 699 627 c 0
 638 578 561 500 515 442 c 2
 386 285 l 1
321 684 m 1
 279 684 l 1
 427 831 l 2
 440 845 455 856 472 856 c 0
 487 856 504 846 504 822 c 0
 504 805 489 794 469 779 c 2
 321 684 l 1
EndSplineSet
Validated: 1
EndChar

StartChar: Thorn
Encoding: -1 222 157
Width: 685
GlyphClass: 1
Flags: MW
HStem: -3 194<37 90 90 224> 166 25<245 287.5> 485 25<232 262> 485 159
VStem: 90 86<127 194 194 484 510 543> 535 107<269.5 391 262.5 396>
LayerCount: 2
Fore
SplineSet
90 191 m 2x6c
 90 543 l 2
 90 575 88 618 53 631 c 0
 49 633 46 634 46 638 c 0
 46 644 49 644 62 644 c 0
 74 644 96 640 133 640 c 0
 156 640 180 644 203 644 c 0
 207 644 220 644 220 639 c 0
 220 635 218 632 213 631 c 0x5c
 179 621 176 582 176 543 c 2
 176 510 l 1
 314 510 l 2
 534 510 642 438 642 344 c 0
 642 181 365 166 256 166 c 0
 234 166 211 167 176 167 c 1x6c
 176 87 180 27 221 9 c 0
 229 6 232 3 232 0 c 0
 232 -2 227 -3 221 -3 c 0
 212 -3 181 0 133 0 c 0
 77 0 50 -3 41 -3 c 0
 33 -3 29 -2 29 1 c 0
 29 3 36 6 43 11 c 0xac
 87 39 90 127 90 191 c 2x6c
176 484 m 1x6c
 176 194 l 1
 195 192 214 191 234 191 c 0
 341 191 535 195 535 344 c 0
 535 448 450 474 351 481 c 0
 316 483 281 485 243 485 c 0
 221 485 198 485 176 484 c 1x6c
EndSplineSet
Validated: 1
EndChar

StartChar: germandbls
Encoding: -1 223 158
Width: 630
GlyphClass: 1
Flags: MW
HStem: -15 25<360.5 428 350 439.5> -2 21G<36 47 198 204> 374 25<330 334> 700 25<232.5 346>
VStem: 74 74<170.5 225 225 468 468 468> 308 67 442 86<508 591> 495 96<155 241>
LayerCount: 2
Fore
SplineSet
148 507 m 2xbe
 148 225 l 2
 148 116 159 42 187 19 c 0
 196 11 211 7 211 2 c 0
 211 -1 207 -2 201 -2 c 0
 195 -2 174 0 111 0 c 0
 82 0 54 -2 40 -2 c 0
 32 -2 29 -1 29 1 c 0
 29 4 36 6 43 12 c 0
 69 33 74 67 74 100 c 2
 74 468 l 2
 72 622 152 725 293 725 c 0
 410 725 528 689 528 549 c 0x7e
 528 454 463 404 375 393 c 1
 375 391 l 1
 489 379 591 320 591 194 c 0
 591 68 502 -15 377 -15 c 0
 344 -15 311 -10 281 3 c 1
 270 78 l 2
 269 86 269 89 269 93 c 0
 269 97 271 100 275 100 c 0
 277 100 278 99 279 98 c 0
 299 49 318 10 382 10 c 0
 474 10 495 120 495 190 c 0xbd
 495 292 448 376 334 374 c 0
 326 374 315 372 308 372 c 0
 298 372 291 376 291 387 c 0
 291 396 298 400 308 400 c 0
 315 400 326 399 334 399 c 0
 418 399 442 473 442 543 c 0
 442 639 397 700 295 700 c 0
 170 700 148 612 148 507 c 2xbe
EndSplineSet
Validated: 33
EndChar

StartChar: agrave
Encoding: -1 224 159
Width: 611
GlyphClass: 1
Flags: MW
HStem: -15 25<240.5 295> -2 21G<487 496.5 565 569.5> 296 25<377 379 379 453> 510 25<258 356.5>
VStem: 36 96<99 209.5 99 221.5> 453 80<252 296 296 296 321 340>
LayerCount: 2
Fore
SplineSet
453 296 m 1xbc
 379 296 l 2
 273 296 132 276 132 143 c 0
 132 55 200 10 281 10 c 0
 431 10 453 130 453 252 c 2
 453 296 l 1xbc
533 340 m 2
 533 150 l 2
 533 87 541 22 568 13 c 0
 573 11 576 8 576 5 c 0
 576 1 572 -2 567 -2 c 0
 563 -2 539 0 528 0 c 0
 515 0 502 -2 491 -2 c 0
 483 -2 479 3 479 6 c 0x7c
 479 31 465 72 462 100 c 1
 460 100 l 1
 417 14 341 -15 249 -15 c 0
 152 -15 36 36 36 145 c 0
 36 298 264 321 377 321 c 2
 453 321 l 1
 453 438 420 510 293 510 c 0
 223 510 110 472 101 393 c 0
 101 390 99 389 96 389 c 0
 94 389 93 389 92 392 c 2
 65 487 l 1
 143 521 225 535 290 535 c 0
 472 535 533 456 533 340 c 2
339 583 m 1
 191 678 l 2
 171 693 156 704 156 721 c 0
 156 745 173 755 188 755 c 0
 205 755 220 744 233 730 c 2
 381 583 l 1
 339 583 l 1
EndSplineSet
Validated: 1
EndChar

StartChar: aacute
Encoding: 14 225 160
Width: 611
GlyphClass: 1
Flags: HMW
HStem: 583 172<54 254.5>
VStem: 54 225<583 733>
LayerCount: 2
Fore
SplineSet
250 583 m 1
 208 583 l 1
 356 730 l 2
 369 744 384 755 401 755 c 0
 416 755 433 745 433 721 c 0
 433 704 418 693 398 678 c 2
 250 583 l 1
453 296 m 1xbc
 379 296 l 2
 273 296 132 276 132 143 c 0
 132 55 200 10 281 10 c 0
 431 10 453 130 453 252 c 2
 453 296 l 1xbc
533 340 m 2
 533 150 l 2
 533 87 541 22 568 13 c 0
 573 11 576 8 576 5 c 0
 576 1 572 -2 567 -2 c 0
 563 -2 539 0 528 0 c 0
 515 0 502 -2 491 -2 c 0
 483 -2 479 3 479 6 c 0x7c
 479 31 465 72 462 100 c 1
 460 100 l 1
 417 14 341 -15 249 -15 c 0
 152 -15 36 36 36 145 c 0
 36 298 264 321 377 321 c 2
 453 321 l 1
 453 438 420 510 293 510 c 0
 223 510 110 472 101 393 c 0
 101 390 99 389 96 389 c 0
 94 389 93 389 92 392 c 2
 65 487 l 1
 143 521 225 535 290 535 c 0
 472 535 533 456 533 340 c 2
EndSplineSet
Validated: 1
EndChar

StartChar: acircumflex
Encoding: -1 226 161
Width: 611
GlyphClass: 1
Flags: MW
HStem: -15 25<240.5 295> -2 21G<487 496.5 565 569.5> 296 25<377 379 379 453> 510 25<258 356.5> 583 167<150 337 150 337 274 427 274 462>
VStem: 36 96<99 209.5 99 221.5> 453 80<252 296 296 296 321 340>
LayerCount: 2
Fore
SplineSet
453 296 m 1xb6
 379 296 l 2
 273 296 132 276 132 143 c 0
 132 55 200 10 281 10 c 0
 431 10 453 130 453 252 c 2
 453 296 l 1xb6
533 340 m 2
 533 150 l 2
 533 87 541 22 568 13 c 0
 573 11 576 8 576 5 c 0
 576 1 572 -2 567 -2 c 0
 563 -2 539 0 528 0 c 0
 515 0 502 -2 491 -2 c 0
 483 -2 479 3 479 6 c 0x7e
 479 31 465 72 462 100 c 1
 460 100 l 1
 417 14 341 -15 249 -15 c 0
 152 -15 36 36 36 145 c 0
 36 298 264 321 377 321 c 2
 453 321 l 1
 453 438 420 510 293 510 c 0
 223 510 110 472 101 393 c 0
 101 390 99 389 96 389 c 0
 94 389 93 389 92 392 c 2
 65 487 l 1
 143 521 225 535 290 535 c 0
 472 535 533 456 533 340 c 2
306 686 m 1
 185 583 l 1
 150 583 l 1
 274 750 l 1
 337 750 l 1
 462 583 l 1
 427 583 l 1
 306 686 l 1
EndSplineSet
Validated: 1
EndChar

StartChar: atilde
Encoding: -1 227 162
Width: 611
GlyphClass: 1
Flags: MW
HStem: -15 25<240.5 295> -2 21G<487 496.5 565 569.5> 296 25<377 379 379 453> 510 25<258 356.5> 609 55<376.5 394.5> 654 55<214 235.5>
VStem: 36 96<99 209.5 99 221.5> 453 80<252 296 296 296 321 340>
LayerCount: 2
Fore
SplineSet
453 296 m 1xb3
 379 296 l 2
 273 296 132 276 132 143 c 0
 132 55 200 10 281 10 c 0
 431 10 453 130 453 252 c 2
 453 296 l 1xb3
533 340 m 2
 533 150 l 2
 533 87 541 22 568 13 c 0
 573 11 576 8 576 5 c 0
 576 1 572 -2 567 -2 c 0
 563 -2 539 0 528 0 c 0
 515 0 502 -2 491 -2 c 0
 483 -2 479 3 479 6 c 0x7b
 479 31 465 72 462 100 c 1
 460 100 l 1
 417 14 341 -15 249 -15 c 0
 152 -15 36 36 36 145 c 0
 36 298 264 321 377 321 c 2
 453 321 l 1
 453 438 420 510 293 510 c 0
 223 510 110 472 101 393 c 0
 101 390 99 389 96 389 c 0
 94 389 93 389 92 392 c 2
 65 487 l 1
 143 521 225 535 290 535 c 0
 472 535 533 456 533 340 c 2
442 714 m 1
 471 714 l 1
 459 653 428 609 361 609 c 0xbb
 334 609 310 620 287 632 c 0
 265 643 245 654 226 654 c 0
 198 654 178 635 171 609 c 1
 141 609 l 1
 154 664 183 709 245 709 c 0xb7
 271 709 297 698 321 687 c 0
 345 675 367 664 386 664 c 0
 414 664 435 688 442 714 c 1
EndSplineSet
Validated: 1
EndChar

StartChar: adieresis
Encoding: -1 228 163
Width: 611
GlyphClass: 1
Flags: MW
HStem: -15 25<240.5 295> -2 21G<487 496.5 565 569.5> 296 25<377 379 379 453> 510 25<258 356.5> 603 97<193 221 392 420>
VStem: 36 96<99 209.5 99 221.5> 158 97<638 664> 357 97<638 664> 453 80<252 296 296 296 321 340>
LayerCount: 2
Fore
SplineSet
453 296 m 1xb480
 379 296 l 2
 273 296 132 276 132 143 c 0
 132 55 200 10 281 10 c 0
 431 10 453 130 453 252 c 2
 453 296 l 1xb480
533 340 m 2
 533 150 l 2
 533 87 541 22 568 13 c 0
 573 11 576 8 576 5 c 0
 576 1 572 -2 567 -2 c 0
 563 -2 539 0 528 0 c 0
 515 0 502 -2 491 -2 c 0
 483 -2 479 3 479 6 c 0x7e80
 479 31 465 72 462 100 c 1
 460 100 l 1
 417 14 341 -15 249 -15 c 0
 152 -15 36 36 36 145 c 0
 36 298 264 321 377 321 c 2
 453 321 l 1
 453 438 420 510 293 510 c 0
 223 510 110 472 101 393 c 0
 101 390 99 389 96 389 c 0
 94 389 93 389 92 392 c 2
 65 487 l 1
 143 521 225 535 290 535 c 0
 472 535 533 456 533 340 c 2
158 651 m 0
 158 677 179 700 207 700 c 0
 235 700 255 677 255 651 c 0
 255 625 235 603 207 603 c 0
 179 603 158 625 158 651 c 0
357 651 m 0xbd
 357 677 378 700 406 700 c 0
 434 700 454 677 454 651 c 0
 454 625 434 603 406 603 c 0
 378 603 357 625 357 651 c 0xbd
EndSplineSet
Validated: 1
EndChar

StartChar: aring
Encoding: -1 229 164
Width: 611
GlyphClass: 1
Flags: MW
HStem: -15 25<240.5 295> -2 21G<487 496.5 565 569.5> 296 25<377 379 379 453> 510 25<258 356.5> 583 39<288.5 323 288.5 332.5> 743 39<288.5 323>
VStem: 36 96<99 209.5 99 221.5> 206 39<664.5 701 664.5 710.5> 366 39<664.5 701> 453 80<252 296 296 296 321 340>
LayerCount: 2
Fore
SplineSet
453 296 m 1xbfc0
 379 296 l 2
 273 296 132 276 132 143 c 0
 132 55 200 10 281 10 c 0
 431 10 453 130 453 252 c 2
 453 296 l 1xbfc0
533 340 m 2
 533 150 l 2
 533 87 541 22 568 13 c 0
 573 11 576 8 576 5 c 0
 576 1 572 -2 567 -2 c 0
 563 -2 539 0 528 0 c 0
 515 0 502 -2 491 -2 c 0
 483 -2 479 3 479 6 c 0x7fc0
 479 31 465 72 462 100 c 1
 460 100 l 1
 417 14 341 -15 249 -15 c 0
 152 -15 36 36 36 145 c 0
 36 298 264 321 377 321 c 2
 453 321 l 1
 453 438 420 510 293 510 c 0
 223 510 110 472 101 393 c 0
 101 390 99 389 96 389 c 0
 94 389 93 389 92 392 c 2
 65 487 l 1
 143 521 225 535 290 535 c 0
 472 535 533 456 533 340 c 2
305 782 m 0
 360 782 405 738 405 683 c 0
 405 628 360 583 305 583 c 0
 251 583 206 628 206 683 c 0
 206 738 251 782 305 782 c 0
306 743 m 0
 271 743 245 719 245 683 c 0
 245 646 271 622 306 622 c 0
 340 622 366 646 366 683 c 0
 366 719 340 743 306 743 c 0
EndSplineSet
Validated: 1
EndChar

StartChar: ae
Encoding: -1 230 165
Width: 1000
GlyphClass: 1
Flags: MW
HStem: -15 25<226.5 303> -15 29<643 760.5> 296 25<303.5 434 351 434 351 434> 330 25<517 866 517 962 515 866> 510 25<246.5 304 663.5 748>
VStem: 30 96<105 204 105 211> 434 74<228 289 207 296 207 296 207 344 207 411.5> 866 96<330 403.5>
LayerCount: 2
Fore
SplineSet
517 355 m 1x5f
 866 355 l 1
 866 452 795 510 701 510 c 0
 595 510 539 452 517 355 c 1x5f
434 296 m 1xbf
 348 296 l 2
 259 296 126 259 126 149 c 0
 126 61 183 10 270 10 c 0
 386 10 434 120 434 228 c 2
 434 296 l 1xbf
962 330 m 1x5f
 515 330 l 1x5f
 512 315 508 297 508 281 c 0
 508 133 564 14 722 14 c 0
 873 14 942 159 944 185 c 0
 945 194 947 201 954 201 c 0
 959 201 965 197 965 187 c 0
 965 184 964 173 962 167 c 0
 921 57 838 -15 683 -15 c 0
 601 -15 481 40 455 123 c 1
 453 123 l 1
 424 30 352 -15 254 -15 c 0
 147 -15 30 27 30 140 c 0
 30 282 250 321 351 321 c 2
 434 321 l 1x7f
 434 344 l 2
 434 479 338 510 270 510 c 0
 199 510 106 468 96 394 c 0
 95 389 93 387 88 387 c 0
 85 387 82 394 80 402 c 2
 57 485 l 1
 133 512 206 535 287 535 c 0
 369 535 442 514 495 448 c 1
 558 512 632 535 695 535 c 0
 825 535 956 444 962 330 c 1x5f
EndSplineSet
Validated: 1
EndChar

StartChar: ccedilla
Encoding: -1 231 166
Width: 593
GlyphClass: 1
Flags: MW
HStem: -216 36<304 319 293 345> -199 21G<228 228> -100 38<302 374.5> -14 24<309 309 344 344> 510 25<255 330>
VStem: 37 96<191 322.5 191 340> 361 75<-152.5 -119>
LayerCount: 2
Fore
SplineSet
556 475 m 1x7e
 531 390 l 2
 529 383 527 381 524 381 c 0
 520 381 515 389 501 421 c 0
 480 486 389 508 330 510 c 0
 180 510 133 390 133 255 c 0
 133 127 199 10 338 10 c 0
 458 10 527 107 545 134 c 0
 549 142 553 145 556 145 c 0
 561 145 564 134 564 131 c 0
 564 127 562 123 560 120 c 0
 503 34 434 -8 344 -14 c 1
 324 -65 l 1
 334 -64 343 -62 353 -62 c 0
 396 -62 436 -84 436 -131 c 0
 436 -192 371 -216 319 -216 c 0xbe
 289 -216 255 -212 228 -199 c 1x7e
 242 -168 l 1
 261 -174 283 -180 303 -180 c 0xbe
 335 -180 361 -171 361 -134 c 0
 361 -104 331 -100 308 -100 c 0
 296 -100 282 -108 273 -99 c 1
 309 -14 l 1
 159 -9 37 101 37 256 c 0
 37 424 163 535 330 535 c 1
 441 531 533 497 556 475 c 1x7e
EndSplineSet
Validated: 33
EndChar

StartChar: egrave
Encoding: -1 232 167
Width: 630
GlyphClass: 1
Flags: MW
HStem: -15 29<267 374> 330 25<141 490 141 586 139 490> 510 25<272 372>
VStem: 37 96<207.5 289 207.5 332.5> 490 96<330 403.5>
LayerCount: 2
Fore
SplineSet
586 330 m 1
 139 330 l 1
 136 315 133 297 133 281 c 0
 133 134 188 14 346 14 c 0
 497 14 569 159 575 192 c 0
 576 198 580 206 588 206 c 0
 594 206 596 202 596 197 c 0
 596 189 594 180 591 172 c 0
 554 54 441 -15 307 -15 c 0
 152 -15 37 115 37 267 c 0
 37 398 144 535 319 535 c 0
 449 535 574 465 586 330 c 1
141 355 m 1
 490 355 l 1
 490 452 419 510 325 510 c 0
 219 510 163 452 141 355 c 1
361 583 m 1
 213 678 l 2
 193 693 178 704 178 721 c 0
 178 745 195 755 210 755 c 0
 227 755 242 744 255 730 c 2
 403 583 l 1
 361 583 l 1
EndSplineSet
Validated: 1
EndChar

StartChar: eacute
Encoding: 17 233 168
Width: 630
GlyphClass: 1
Flags: MW
HStem: -15 29<267 374> 330 25<141 490 141 586 139 490> 510 25<272 372>
VStem: 37 96<207.5 289 207.5 332.5> 490 96<330 403.5>
LayerCount: 2
Fore
SplineSet
586 330 m 1
 139 330 l 1
 136 315 133 297 133 281 c 0
 133 134 188 14 346 14 c 0
 497 14 569 159 575 192 c 0
 576 198 580 206 588 206 c 0
 594 206 596 202 596 197 c 0
 596 189 594 180 591 172 c 0
 554 54 441 -15 307 -15 c 0
 152 -15 37 115 37 267 c 0
 37 398 144 535 319 535 c 0
 449 535 574 465 586 330 c 1
141 355 m 1
 490 355 l 1
 490 452 419 510 325 510 c 0
 219 510 163 452 141 355 c 1
294 583 m 1
 252 583 l 1
 400 730 l 2
 413 744 428 755 445 755 c 0
 460 755 477 745 477 721 c 0
 477 704 462 693 442 678 c 2
 294 583 l 1
EndSplineSet
Validated: 1
EndChar

StartChar: ecircumflex
Encoding: -1 234 169
Width: 630
GlyphClass: 1
Flags: MW
HStem: -15 29<267 374> 330 25<141 490 141 586 139 490> 510 25<272 372> 583 167<172 359 172 359 296 449 296 484>
VStem: 37 96<207.5 289 207.5 332.5> 490 96<330 403.5>
LayerCount: 2
Fore
SplineSet
586 330 m 1
 139 330 l 1
 136 315 133 297 133 281 c 0
 133 134 188 14 346 14 c 0
 497 14 569 159 575 192 c 0
 576 198 580 206 588 206 c 0
 594 206 596 202 596 197 c 0
 596 189 594 180 591 172 c 0
 554 54 441 -15 307 -15 c 0
 152 -15 37 115 37 267 c 0
 37 398 144 535 319 535 c 0
 449 535 574 465 586 330 c 1
141 355 m 1
 490 355 l 1
 490 452 419 510 325 510 c 0
 219 510 163 452 141 355 c 1
328 686 m 1
 207 583 l 1
 172 583 l 1
 296 750 l 1
 359 750 l 1
 484 583 l 1
 449 583 l 1
 328 686 l 1
EndSplineSet
Validated: 1
EndChar

StartChar: edieresis
Encoding: -1 235 170
Width: 630
GlyphClass: 1
Flags: MW
HStem: -15 29<267 374> 330 25<141 490 141 586 139 490> 510 25<272 372> 603 97<215 243 414 442>
VStem: 37 96<207.5 289 207.5 332.5> 180 97<638 664> 379 97<638 664> 490 96<330 403.5>
LayerCount: 2
Fore
SplineSet
586 330 m 1
 139 330 l 1
 136 315 133 297 133 281 c 0
 133 134 188 14 346 14 c 0
 497 14 569 159 575 192 c 0
 576 198 580 206 588 206 c 0
 594 206 596 202 596 197 c 0
 596 189 594 180 591 172 c 0
 554 54 441 -15 307 -15 c 0
 152 -15 37 115 37 267 c 0
 37 398 144 535 319 535 c 0
 449 535 574 465 586 330 c 1
141 355 m 1
 490 355 l 1
 490 452 419 510 325 510 c 0
 219 510 163 452 141 355 c 1
180 651 m 0
 180 677 201 700 229 700 c 0
 257 700 277 677 277 651 c 0
 277 625 257 603 229 603 c 0
 201 603 180 625 180 651 c 0
379 651 m 0xff
 379 677 400 700 428 700 c 0
 456 700 476 677 476 651 c 0
 476 625 456 603 428 603 c 0
 400 603 379 625 379 651 c 0xff
EndSplineSet
Validated: 1
EndChar

StartChar: igrave
Encoding: -1 236 171
Width: 259
GlyphClass: 1
Flags: MW
HStem: -2 12 500 20G<170 170>
VStem: 96 74<156 178 178 448 448 458>
LayerCount: 2
Fore
SplineSet
170 520 m 1
 170 178 l 2
 170 67 188 17 212 10 c 0
 221 8 228 7 228 2 c 0
 228 -1 221 -2 216 -2 c 0
 199 -2 162 0 133 0 c 0
 82 0 61 -2 50 -2 c 0
 45 -2 42 -2 42 2 c 0
 42 7 49 10 59 14 c 0
 93 30 96 67 96 156 c 2
 96 448 l 2
 96 468 79 471 63 480 c 0
 58 482 54 483 54 486 c 0
 54 489 57 490 61 491 c 2
 170 520 l 1
151 583 m 1
 3 678 l 2
 -17 693 -32 704 -32 721 c 0
 -32 745 -15 755 0 755 c 0
 17 755 32 744 45 730 c 2
 193 583 l 1
 151 583 l 1
EndSplineSet
Validated: 1
EndChar

StartChar: iacute
Encoding: 19 237 172
Width: 259
GlyphClass: 1
Flags: MW
HStem: -2 12 500 20G<170 170>
VStem: 96 74<156 178 178 448 448 458>
LayerCount: 2
Fore
SplineSet
170 520 m 1
 170 178 l 2
 170 67 188 17 212 10 c 0
 221 8 228 7 228 2 c 0
 228 -1 221 -2 216 -2 c 0
 199 -2 162 0 133 0 c 0
 82 0 61 -2 50 -2 c 0
 45 -2 42 -2 42 2 c 0
 42 7 49 10 59 14 c 0
 93 30 96 67 96 156 c 2
 96 448 l 2
 96 468 79 471 63 480 c 0
 58 482 54 483 54 486 c 0
 54 489 57 490 61 491 c 2
 170 520 l 1
84 583 m 1
 42 583 l 1
 190 730 l 2
 203 744 218 755 235 755 c 0
 250 755 267 745 267 721 c 0
 267 704 252 693 232 678 c 2
 84 583 l 1
EndSplineSet
Validated: 1
EndChar

StartChar: icircumflex
Encoding: -1 238 173
Width: 259
GlyphClass: 1
Flags: MW
HStem: -2 12 500 20G<170 170> 583 167<-38 149 -38 149 86 239 86 274>
VStem: 96 74<156 178 178 448 448 458>
LayerCount: 2
Fore
SplineSet
170 520 m 1
 170 178 l 2
 170 67 188 17 212 10 c 0
 221 8 228 7 228 2 c 0
 228 -1 221 -2 216 -2 c 0
 199 -2 162 0 133 0 c 0
 82 0 61 -2 50 -2 c 0
 45 -2 42 -2 42 2 c 0
 42 7 49 10 59 14 c 0
 93 30 96 67 96 156 c 2
 96 448 l 2
 96 468 79 471 63 480 c 0
 58 482 54 483 54 486 c 0
 54 489 57 490 61 491 c 2
 170 520 l 1
118 686 m 1
 -3 583 l 1
 -38 583 l 1
 86 750 l 1
 149 750 l 1
 274 583 l 1
 239 583 l 1
 118 686 l 1
EndSplineSet
Validated: 1
EndChar

StartChar: idieresis
Encoding: -1 239 174
Width: 259
GlyphClass: 1
Flags: MW
HStem: -2 12 500 20G<170 170> 603 97<5 33 204 232>
VStem: -30 97<638 664> 96 74<156 178 178 448 448 458> 169 97<638 664>
LayerCount: 2
Fore
SplineSet
170 520 m 1xe8
 170 178 l 2
 170 67 188 17 212 10 c 0
 221 8 228 7 228 2 c 0
 228 -1 221 -2 216 -2 c 0
 199 -2 162 0 133 0 c 0
 82 0 61 -2 50 -2 c 0
 45 -2 42 -2 42 2 c 0
 42 7 49 10 59 14 c 0
 93 30 96 67 96 156 c 2
 96 448 l 2
 96 468 79 471 63 480 c 0
 58 482 54 483 54 486 c 0
 54 489 57 490 61 491 c 2
 170 520 l 1xe8
-30 651 m 0xf4
 -30 677 -9 700 19 700 c 0
 47 700 67 677 67 651 c 0
 67 625 47 603 19 603 c 0
 -9 603 -30 625 -30 651 c 0xf4
169 651 m 0
 169 677 190 700 218 700 c 0
 246 700 266 677 266 651 c 0
 266 625 246 603 218 603 c 0
 190 603 169 625 169 651 c 0
EndSplineSet
Validated: 1
EndChar

StartChar: eth
Encoding: -1 240 175
Width: 667
GlyphClass: 1
Flags: MW
HStem: -15 25<259 407 259 409> 510 25<259 351.5 257.5 407> 622 20G<358 358> 623 20G 641 20G<323 323> 704 20G<476 476> 705 20G<166 166>
VStem: 37 96<260 260> 533 96<260 260>
LayerCount: 2
Fore
SplineSet
133 260 m 0xcb80
 132 124 185 10 333 10 c 0
 481 10 534 124 533 260 c 0
 534 396 481 510 333 510 c 0
 185 510 132 396 133 260 c 0xcb80
138 708 m 1xd380
 166 725 l 1
 219 708 272 687 323 661 c 1xcb80
 476 724 l 1
 496 699 l 1
 358 642 l 1xe580
 512 555 630 424 629 260 c 0
 629 95 485 -15 333 -15 c 0
 182 -15 37 95 37 260 c 0
 37 425 182 535 333 535 c 0
 370 535 404 526 432 516 c 1
 434 518 l 1
 407 548 367 586 312 623 c 1
 170 564 l 1
 154 591 l 1
 280 643 l 1
 240 667 192 690 138 708 c 1xd380
EndSplineSet
Validated: 33
EndChar

StartChar: ntilde
Encoding: -1 241 176
Width: 648
GlyphClass: 1
Flags: MW
HStem: -2 21G<29.5 40.5 189.5 200.5 444 455 605.5 613> 500 20G<144 144> 510 25<308 375.5> 609 55<395.5 413.5> 654 55<233 254.5>
VStem: 78 74<158 294> 491 80<160 296 296 342>
LayerCount: 2
Fore
SplineSet
43 494 m 2xae
 144 520 l 1xd6
 144 405 l 1
 147 405 l 1
 175 490 263 535 353 535 c 0
 458 535 571 486 571 342 c 2
 571 146 l 2
 571 36 578 25 603 14 c 0
 614 9 621 4 621 2 c 0
 621 -1 615 -2 611 -2 c 0
 600 -2 563 0 531 0 c 0
 499 0 462 -2 448 -2 c 0
 440 -2 434 -1 434 1 c 0
 434 7 449 11 454 14 c 0
 486 32 491 86 491 160 c 2
 491 296 l 2
 491 466 418 510 333 510 c 0
 226 510 152 412 152 294 c 2
 152 140 l 2
 152 67 157 33 188 13 c 0
 198 7 206 3 206 1 c 0
 206 -2 203 -2 198 -2 c 0
 181 -2 144 0 115 0 c 0
 86 0 49 -2 32 -2 c 0
 27 -2 23 -1 23 3 c 0
 23 6 32 9 42 15 c 0
 73 33 78 102 78 158 c 2
 78 382 l 2
 78 458 62 472 44 478 c 0
 36 480 31 485 31 488 c 0
 31 492 39 493 43 494 c 2xae
461 714 m 1
 490 714 l 1
 478 653 447 609 380 609 c 0xb6
 353 609 329 620 306 632 c 0
 284 643 264 654 245 654 c 0
 217 654 197 635 190 609 c 1
 160 609 l 1
 173 664 202 709 264 709 c 0xae
 290 709 316 698 340 687 c 0
 364 675 386 664 405 664 c 0
 433 664 454 688 461 714 c 1
EndSplineSet
Validated: 1
EndChar

StartChar: ograve
Encoding: -1 242 177
Width: 667
GlyphClass: 1
Flags: MW
HStem: -15 25<259 407 259 408.5> 510 25<259 407>
VStem: 37 96<260 260> 533 96<260 260>
LayerCount: 2
Fore
SplineSet
133 260 m 0
 132 124 185 10 333 10 c 0
 481 10 534 124 533 260 c 0
 534 396 481 510 333 510 c 0
 185 510 132 396 133 260 c 0
37 260 m 0
 37 425 182 535 333 535 c 0
 484 535 629 425 629 260 c 0
 629 95 484 -15 333 -15 c 0
 182 -15 37 95 37 260 c 0
367 583 m 1
 219 678 l 2
 199 693 184 704 184 721 c 0
 184 745 201 755 216 755 c 0
 233 755 248 744 261 730 c 2
 409 583 l 1
 367 583 l 1
EndSplineSet
Validated: 33
EndChar

StartChar: oacute
Encoding: 21 243 178
Width: 667
GlyphClass: 1
Flags: MW
HStem: -15 25<259 407 259 408.5> 510 25<259 407>
VStem: 37 96<260 260> 533 96<260 260>
LayerCount: 2
Fore
SplineSet
133 260 m 0
 132 124 185 10 333 10 c 0
 481 10 534 124 533 260 c 0
 534 396 481 510 333 510 c 0
 185 510 132 396 133 260 c 0
37 260 m 0
 37 425 182 535 333 535 c 0
 484 535 629 425 629 260 c 0
 629 95 484 -15 333 -15 c 0
 182 -15 37 95 37 260 c 0
300 583 m 1
 258 583 l 1
 406 730 l 2
 419 744 434 755 451 755 c 0
 466 755 483 745 483 721 c 0
 483 704 468 693 448 678 c 2
 300 583 l 1
EndSplineSet
Validated: 33
EndChar

StartChar: ocircumflex
Encoding: -1 244 179
Width: 667
GlyphClass: 1
Flags: MW
HStem: -15 25<259 407 259 408.5> 510 25<259 407> 583 167<178 365 178 365 302 455 302 490>
VStem: 37 96<260 260> 533 96<260 260>
LayerCount: 2
Fore
SplineSet
133 260 m 0
 132 124 185 10 333 10 c 0
 481 10 534 124 533 260 c 0
 534 396 481 510 333 510 c 0
 185 510 132 396 133 260 c 0
37 260 m 0
 37 425 182 535 333 535 c 0
 484 535 629 425 629 260 c 0
 629 95 484 -15 333 -15 c 0
 182 -15 37 95 37 260 c 0
334 686 m 1
 213 583 l 1
 178 583 l 1
 302 750 l 1
 365 750 l 1
 490 583 l 1
 455 583 l 1
 334 686 l 1
EndSplineSet
Validated: 33
EndChar

StartChar: otilde
Encoding: -1 245 180
Width: 667
GlyphClass: 1
Flags: MW
HStem: -15 25<259 407 259 408.5> 510 25<259 407> 609 55<404.5 422.5> 654 55<242 263.5>
VStem: 37 96<260 260> 533 96<260 260>
LayerCount: 2
Fore
SplineSet
133 260 m 0xec
 132 124 185 10 333 10 c 0
 481 10 534 124 533 260 c 0
 534 396 481 510 333 510 c 0
 185 510 132 396 133 260 c 0xec
37 260 m 0
 37 425 182 535 333 535 c 0
 484 535 629 425 629 260 c 0
 629 95 484 -15 333 -15 c 0
 182 -15 37 95 37 260 c 0
470 714 m 1
 499 714 l 1
 487 653 456 609 389 609 c 0xec
 362 609 338 620 315 632 c 0
 293 643 273 654 254 654 c 0
 226 654 206 635 199 609 c 1
 169 609 l 1
 182 664 211 709 273 709 c 0xdc
 299 709 325 698 349 687 c 0
 373 675 395 664 414 664 c 0
 442 664 463 688 470 714 c 1
EndSplineSet
Validated: 33
EndChar

StartChar: odieresis
Encoding: -1 246 181
Width: 667
GlyphClass: 1
Flags: MW
HStem: -15 25<259 407 259 408.5> 510 25<259 407> 603 97<221 249 420 448>
VStem: 37 96<260 260> 186 97<638 664> 385 97<638 664> 533 96<260 260>
LayerCount: 2
Fore
SplineSet
133 260 m 0
 132 124 185 10 333 10 c 0
 481 10 534 124 533 260 c 0
 534 396 481 510 333 510 c 0
 185 510 132 396 133 260 c 0
37 260 m 0
 37 425 182 535 333 535 c 0
 484 535 629 425 629 260 c 0
 629 95 484 -15 333 -15 c 0
 182 -15 37 95 37 260 c 0
186 651 m 0
 186 677 207 700 235 700 c 0
 263 700 283 677 283 651 c 0
 283 625 263 603 235 603 c 0
 207 603 186 625 186 651 c 0
385 651 m 0
 385 677 406 700 434 700 c 0
 462 700 482 677 482 651 c 0
 482 625 462 603 434 603 c 0
 406 603 385 625 385 651 c 0
EndSplineSet
Validated: 33
EndChar

StartChar: divide
Encoding: -1 247 182
Width: 600
GlyphClass: 1
Flags: MW
HStem: 0 120<284 316> 231 58<41 559 41 559> 400 120<284 316>
VStem: 240 120<45 76 45 76.5 445 476>
CounterMasks: 1 e0
LayerCount: 2
Fore
SplineSet
559 231 m 1
 41 231 l 1
 41 289 l 1
 559 289 l 1
 559 231 l 1
240 460 m 0
 240 493 268 520 300 520 c 0
 332 520 360 492 360 460 c 0
 360 430 332 400 300 400 c 0
 268 400 240 428 240 460 c 0
240 60 m 0
 240 93 268 120 300 120 c 0
 332 120 360 92 360 60 c 0
 360 30 332 0 300 0 c 0
 268 0 240 28 240 60 c 0
EndSplineSet
Validated: 1
EndChar

StartChar: oslash
Encoding: -1 248 183
Width: 667
GlyphClass: 1
Flags: MW
HStem: -15 25<297.5 407 295 408.5> 510 25<259 367 257.5 368.5>
VStem: 37 96<234 260 234 342.5> 533 96<260 260>
LayerCount: 2
Fore
SplineSet
158 119 m 1
 485 441 l 1
 452 484 404 510 333 510 c 0
 185 510 132 396 133 260 c 0
 133 208 140 159 158 119 c 1
503 411 m 1
 175 88 l 1
 206 40 257 10 333 10 c 0
 481 10 534 124 533 260 c 0
 534 317 524 370 503 411 c 1
611 565 m 1
 660 565 l 1
 545 452 l 1
 597 404 629 338 629 260 c 0
 629 95 484 -15 333 -15 c 0
 262 -15 193 10 139 53 c 1
 35 -49 l 1
 -12 -49 l 1
 114 75 l 1
 67 121 37 185 37 260 c 0
 37 425 182 535 333 535 c 0
 401 535 468 512 519 474 c 1
 611 565 l 1
EndSplineSet
Validated: 33
EndChar

StartChar: ugrave
Encoding: -1 249 184
Width: 648
GlyphClass: 1
Flags: MW
HStem: -15 25<258.5 335.5> 0 21G<526 599 526 526> 500 20G<159 159 569 569>
VStem: 79 80<172 185 185 398 398 427> 495 74<272 370 370 407>
LayerCount: 2
Fore
SplineSet
43 489 m 2xb8
 159 520 l 1
 159 185 l 2
 159 93 201 10 316 10 c 0xb8
 440 10 495 131 495 272 c 2
 495 370 l 2
 495 444 487 461 463 473 c 0
 456 476 447 478 447 484 c 0
 447 486 449 487 456 489 c 2
 569 520 l 1
 569 185 l 2
 569 137 572 44 604 16 c 0
 611 9 615 7 615 4 c 0
 615 1 610 0 599 0 c 2
 526 0 l 1x78
 496 104 l 1
 443 20 389 -15 282 -15 c 0
 154 -15 79 62 79 172 c 2
 79 398 l 2
 79 456 70 468 50 472 c 0
 38 475 32 477 32 483 c 0
 32 486 37 488 43 489 c 2xb8
358 583 m 1
 210 678 l 2
 190 693 175 704 175 721 c 0
 175 745 192 755 207 755 c 0
 224 755 239 744 252 730 c 2
 400 583 l 1
 358 583 l 1
EndSplineSet
Validated: 1
EndChar

StartChar: uacute
Encoding: 26 250 185
Width: 648
GlyphClass: 1
Flags: MW
HStem: -15 25<258.5 335.5> 0 21G<526 599 526 526> 500 20G<159 159 569 569>
VStem: 79 80<172 185 185 398 398 427> 495 74<272 370 370 407>
LayerCount: 2
Fore
SplineSet
43 489 m 2xb8
 159 520 l 1
 159 185 l 2
 159 93 201 10 316 10 c 0xb8
 440 10 495 131 495 272 c 2
 495 370 l 2
 495 444 487 461 463 473 c 0
 456 476 447 478 447 484 c 0
 447 486 449 487 456 489 c 2
 569 520 l 1
 569 185 l 2
 569 137 572 44 604 16 c 0
 611 9 615 7 615 4 c 0
 615 1 610 0 599 0 c 2
 526 0 l 1x78
 496 104 l 1
 443 20 389 -15 282 -15 c 0
 154 -15 79 62 79 172 c 2
 79 398 l 2
 79 456 70 468 50 472 c 0
 38 475 32 477 32 483 c 0
 32 486 37 488 43 489 c 2xb8
291 583 m 1
 249 583 l 1
 397 730 l 2
 410 744 425 755 442 755 c 0
 457 755 474 745 474 721 c 0
 474 704 459 693 439 678 c 2
 291 583 l 1
EndSplineSet
Validated: 1
EndChar

StartChar: ucircumflex
Encoding: -1 251 186
Width: 648
GlyphClass: 1
Flags: MW
HStem: -15 25<258.5 335.5> 0 21G<526 599 526 526> 500 20G<159 159 569 569> 583 167<169 356 169 356 293 446 293 481>
VStem: 79 80<172 185 185 398 398 427> 495 74<272 370 370 407>
LayerCount: 2
Fore
SplineSet
43 489 m 2xbc
 159 520 l 1
 159 185 l 2
 159 93 201 10 316 10 c 0xbc
 440 10 495 131 495 272 c 2
 495 370 l 2
 495 444 487 461 463 473 c 0
 456 476 447 478 447 484 c 0
 447 486 449 487 456 489 c 2
 569 520 l 1
 569 185 l 2
 569 137 572 44 604 16 c 0
 611 9 615 7 615 4 c 0
 615 1 610 0 599 0 c 2
 526 0 l 1x7c
 496 104 l 1
 443 20 389 -15 282 -15 c 0
 154 -15 79 62 79 172 c 2
 79 398 l 2
 79 456 70 468 50 472 c 0
 38 475 32 477 32 483 c 0
 32 486 37 488 43 489 c 2xbc
325 686 m 1
 204 583 l 1
 169 583 l 1
 293 750 l 1
 356 750 l 1
 481 583 l 1
 446 583 l 1
 325 686 l 1
EndSplineSet
Validated: 1
EndChar

StartChar: udieresis
Encoding: -1 252 187
Width: 648
GlyphClass: 1
Flags: MW
HStem: -15 25<258.5 335.5> 0 21G<526 599 526 526> 500 20G<159 159 569 569> 603 97<212 240 411 439>
VStem: 79 80<172 185 185 398 398 427> 177 97<638 664> 376 97<638 664> 495 74<272 370 370 407>
LayerCount: 2
Fore
SplineSet
43 489 m 2xb9
 159 520 l 1
 159 185 l 2
 159 93 201 10 316 10 c 0xb9
 440 10 495 131 495 272 c 2
 495 370 l 2
 495 444 487 461 463 473 c 0
 456 476 447 478 447 484 c 0
 447 486 449 487 456 489 c 2
 569 520 l 1
 569 185 l 2
 569 137 572 44 604 16 c 0
 611 9 615 7 615 4 c 0
 615 1 610 0 599 0 c 2
 526 0 l 1x79
 496 104 l 1
 443 20 389 -15 282 -15 c 0
 154 -15 79 62 79 172 c 2
 79 398 l 2
 79 456 70 468 50 472 c 0
 38 475 32 477 32 483 c 0
 32 486 37 488 43 489 c 2xb9
177 651 m 0xbf
 177 677 198 700 226 700 c 0
 254 700 274 677 274 651 c 0
 274 625 254 603 226 603 c 0
 198 603 177 625 177 651 c 0xbf
376 651 m 0
 376 677 397 700 425 700 c 0
 453 700 473 677 473 651 c 0
 473 625 453 603 425 603 c 0
 397 603 376 625 376 651 c 0
EndSplineSet
Validated: 1
EndChar

StartChar: yacute
Encoding: 27 253 188
Width: 611
GlyphClass: 1
Flags: MW
HStem: -198 21G<60 60> -198 65 502 20G<460.5 465.5 592 598> 503 20G<17 27 158.5 172>
VStem: 8 597<514.5 517 514.5 518.5>
LayerCount: 2
Fore
SplineSet
476 318 m 2x98
 313 -13 l 2
 286 -64 263 -100 224 -138 c 0
 176 -184 126 -199 60 -198 c 1
 87 -111 l 2
 89 -105 91 -101 93 -101 c 0
 96 -101 97 -102 98 -103 c 0
 110 -124 133 -133 157 -133 c 0
 215 -133 278 -58 278 -2 c 0
 278 21 272 45 262 66 c 2
 102 390 l 2
 71 454 43 491 23 502 c 0
 15 506 8 513 8 516 c 0
 8 521 13 523 21 523 c 0
 33 523 55 520 93 520 c 0
 124 520 153 523 164 523 c 0
 180 523 183 519 183 516 c 0
 183 512 175 507 167 502 c 0
 160 496 151 488 151 471 c 0x58
 151 455 168 415 190 373 c 2
 336 93 l 1
 429 275 l 2
 467 348 502 421 502 457 c 0
 502 475 491 493 474 502 c 0
 468 506 455 513 455 515 c 0
 455 517 458 522 463 522 c 0
 468 522 502 520 529 520 c 0
 568 520 588 522 596 522 c 0
 600 522 605 518 605 516 c 0
 605 513 601 510 598 508 c 0xa8
 564 484 523 412 476 318 c 2x98
272 583 m 1
 230 583 l 1
 378 730 l 2
 391 744 406 755 423 755 c 0
 438 755 455 745 455 721 c 0
 455 704 440 693 420 678 c 2
 272 583 l 1
EndSplineSet
Validated: 33
EndChar

StartChar: thorn
Encoding: -1 254 189
Width: 667
GlyphClass: 1
Flags: MW
HStem: -196 21G<19 26.5 183.5 193> -15 25<347 417 266 432> 510 25<304.5 410> 705 20G<141 141>
VStem: 67 74<5 86 270 330 390 640 640 653.5> 536 96<201 335>
LayerCount: 2
Fore
SplineSet
343 510 m 0
 213 510 141 390 141 270 c 0
 142 145 189 10 343 10 c 0
 491 10 536 132 536 270 c 0
 536 400 477 510 343 510 c 0
30 698 m 2
 141 725 l 1
 141 390 l 1
 143 390 l 1
 180 478 253 535 356 535 c 0
 506 535 632 418 632 267 c 0
 632 112 517 -15 347 -15 c 0
 258 -12 170 40 143 86 c 1
 141 86 l 1
 141 -65 l 2
 141 -115 143 -156 180 -179 c 0
 191 -185 201 -187 201 -191 c 0
 201 -195 198 -196 188 -196 c 0
 179 -196 162 -193 109 -193 c 0
 44 -193 29 -196 24 -196 c 0
 14 -196 8 -194 8 -192 c 0
 8 -188 11 -186 34 -178 c 0
 54 -171 67 -96 67 5 c 2
 67 640 l 2
 67 667 53 679 30 689 c 0
 26 691 23 692 23 693 c 0
 23 696 26 697 30 698 c 2
EndSplineSet
Validated: 1
EndChar

StartChar: ydieresis
Encoding: -1 255 190
Width: 611
GlyphClass: 1
Flags: MW
HStem: -198 21G<60 60> -198 65 502 20G<460.5 465.5 592 598> 503 20G<17 27 158.5 172> 603 97<193 221 392 420>
VStem: 158 97<638 664> 357 97<638 664>
LayerCount: 2
Fore
SplineSet
476 318 m 2x9e
 313 -13 l 2
 286 -64 263 -100 224 -138 c 0
 176 -184 126 -199 60 -198 c 1
 87 -111 l 2
 89 -105 91 -101 93 -101 c 0
 96 -101 97 -102 98 -103 c 0
 110 -124 133 -133 157 -133 c 0
 215 -133 278 -58 278 -2 c 0
 278 21 272 45 262 66 c 2
 102 390 l 2
 71 454 43 491 23 502 c 0
 15 506 8 513 8 516 c 0
 8 521 13 523 21 523 c 0
 33 523 55 520 93 520 c 0
 124 520 153 523 164 523 c 0
 180 523 183 519 183 516 c 0
 183 512 175 507 167 502 c 0
 160 496 151 488 151 471 c 0x5e
 151 455 168 415 190 373 c 2
 336 93 l 1
 429 275 l 2
 467 348 502 421 502 457 c 0
 502 475 491 493 474 502 c 0
 468 506 455 513 455 515 c 0
 455 517 458 522 463 522 c 0
 468 522 502 520 529 520 c 0
 568 520 588 522 596 522 c 0
 600 522 605 518 605 516 c 0
 605 513 601 510 598 508 c 0xae
 564 484 523 412 476 318 c 2x9e
158 651 m 0
 158 677 179 700 207 700 c 0
 235 700 255 677 255 651 c 0
 255 625 235 603 207 603 c 0
 179 603 158 625 158 651 c 0
357 651 m 0
 357 677 378 700 406 700 c 0
 434 700 454 677 454 651 c 0
 454 625 434 603 406 603 c 0
 378 603 357 625 357 651 c 0
EndSplineSet
Validated: 33
EndChar

StartChar: dotlessi
Encoding: -1 305 191
Width: 259
GlyphClass: 1
Flags: MW
HStem: -2 12 500 20G<170 170>
VStem: 96 74<156 178 178 448 448 458>
LayerCount: 2
Fore
SplineSet
170 520 m 1
 170 178 l 2
 170 67 188 17 212 10 c 0
 221 8 228 7 228 2 c 0
 228 -1 221 -2 216 -2 c 0
 199 -2 162 0 133 0 c 0
 82 0 61 -2 50 -2 c 0
 45 -2 42 -2 42 2 c 0
 42 7 49 10 59 14 c 0
 93 30 96 67 96 156 c 2
 96 448 l 2
 96 468 79 471 63 480 c 0
 58 482 54 483 54 486 c 0
 54 489 57 490 61 491 c 2
 170 520 l 1
EndSplineSet
Validated: 1
EndChar

StartChar: Lslash
Encoding: -1 321 192
Width: 667
GlyphClass: 1
Flags: MW
HStem: -1 21G<57 63> 0 25<252.5 348.5 252.5 613> 624 20G<65.5 78 224.5 237>
VStem: 103 86<183 260 260 309 309 309 334 346 371 534 534 543>
LayerCount: 2
Fore
SplineSet
189 543 m 2x70
 189 371 l 1
 364 446 l 1
 364 421 l 1
 189 346 l 1
 189 260 l 2
 189 36 204 25 301 25 c 0
 396 25 564 36 632 119 c 0
 637 127 642 134 648 134 c 0
 652 134 653 131 653 127 c 0
 653 125 652 119 651 115 c 2
 613 0 l 1
 105 0 l 2x70
 84 0 69 -1 57 -1 c 0
 46 -2 40 -3 36 -3 c 0
 28 -3 25 -2 25 3 c 0
 25 7 31 9 39 11 c 0xb0
 89 26 103 64 103 183 c 2
 103 309 l 1
 28 277 l 1
 28 302 l 1
 103 334 l 1
 103 534 l 2
 103 602 90 622 62 630 c 0
 56 632 54 635 54 637 c 0
 54 641 59 644 72 644 c 0
 84 644 106 640 143 640 c 0
 186 640 214 644 235 644 c 0
 239 644 246 644 246 638 c 0
 246 634 242 633 238 631 c 0
 198 620 190 582 189 543 c 2x70
EndSplineSet
Validated: 1
EndChar

StartChar: lslash
Encoding: -1 322 193
Width: 259
GlyphClass: 1
Flags: MW
HStem: -2 21G<41 58.5 205 213.5> 705 20G<170 170>
VStem: 96 74<224 378 378 378 401 410 432 579 579 616.5>
LayerCount: 2
Fore
SplineSet
96 401 m 1
 96 579 l 2
 96 654 88 676 61 686 c 0
 54 688 51 690 51 692 c 0
 51 695 56 697 60 698 c 2
 170 725 l 1
 170 432 l 1
 237 460 l 1
 237 438 l 1
 170 410 l 1
 170 145 l 2
 170 87 175 28 207 15 c 0
 217 11 228 7 228 2 c 0
 228 -1 216 -2 211 -2 c 0
 199 -2 162 0 133 0 c 0
 104 0 67 -2 50 -2 c 0
 32 -2 28 -1 28 2 c 0
 28 7 41 11 55 17 c 0
 91 33 96 120 96 224 c 2
 96 378 l 1
 35 352 l 1
 35 376 l 1
 96 401 l 1
EndSplineSet
Validated: 1
EndChar

StartChar: OE
Encoding: -1 338 194
Width: 1000
GlyphClass: 1
Flags: MW
HStem: -6 25<279 369> 0 25<652 690 690 765> 331 25<588 669.5> 615 25<588 588 588 730> 621 25<284.5 374 259 442>
VStem: 42 92<241.5 391 236.5 410.5> 508 80<121.5 157 157 183>
LayerCount: 2
Fore
SplineSet
508 183 m 2x76
 509 530 l 2
 509 597 501 621 383 621 c 0
 186 621 134 466 134 316 c 0
 134 157 190 19 368 19 c 0xae
 494 19 508 33 508 183 c 2x76
588 615 m 1x76
 588 356 l 1
 756 356 812 367 829 386 c 0
 837 395 845 410 853 426 c 0
 855 429 857 431 860 431 c 0
 865 431 865 425 865 415 c 2
 865 268 l 2
 865 256 863 255 858 255 c 0
 854 255 850 263 848 269 c 0
 844 281 836 290 826 301 c 0
 807 321 751 331 588 331 c 1
 588 157 l 2
 588 86 588 25 652 25 c 2
 690 25 l 2
 840 25 917 70 960 125 c 0
 968 134 969 140 975 140 c 0
 978 140 981 137 981 134 c 0
 981 129 956 43 941 0 c 1
 539 0 l 2x76
 511 0 482 -1 451 -3 c 0
 420 -4 387 -6 351 -6 c 0
 140 -6 42 154 42 329 c 0
 42 492 166 646 352 646 c 0xae
 396 646 437 645 472 643 c 0
 507 642 537 640 559 640 c 2
 902 640 l 1
 920 582 l 2
 928 557 937 529 937 524 c 0
 937 521 934 518 931 518 c 0
 928 518 925 522 923 525 c 0
 872 593 806 615 730 615 c 2
 588 615 l 1x76
EndSplineSet
Validated: 1
EndChar

StartChar: oe
Encoding: -1 339 195
Width: 1000
GlyphClass: 1
Flags: MW
HStem: -15 25<218.5 336> 330 25<552 869 552 965 547 869> 510 25<218.5 335 215 367.5 669 760>
VStem: 21 96<208.5 316.5 208.5 337.5> 469 74<213 283.5 213 316.5> 869 96<330 406>
LayerCount: 2
Fore
SplineSet
293 510 m 0
 144 510 117 368 117 265 c 0
 117 152 144 10 293 10 c 0
 442 10 469 152 469 265 c 0
 469 368 442 510 293 510 c 0
965 330 m 1
 547 330 l 1
 545 312 543 293 543 274 c 0
 543 152 591 10 741 10 c 0
 872 10 940 154 946 187 c 0
 948 196 950 204 956 204 c 0
 962 204 967 201 967 194 c 0
 967 187 964 180 962 171 c 0
 936 70 818 -16 741 -15 c 0
 626 -13 553 32 503 103 c 1
 459 29 379 -15 293 -15 c 0
 137 -15 21 105 21 260 c 0
 21 415 137 535 293 535 c 0
 377 535 457 498 506 424 c 1
 544 481 628 535 710 535 c 0
 825 535 952 454 965 330 c 1
552 355 m 1
 869 355 l 1
 869 457 810 510 710 510 c 0
 609 510 570 446 552 355 c 1
EndSplineSet
Validated: 33
EndChar

StartChar: Scaron
Encoding: 9 352 196
Width: 667
GlyphClass: 1
Flags: MW
HStem: -20 25<269.5 363> 635 25<277.5 350> 684 167<180 368 180 305>
VStem: 60 86<456 526.5> 539 86<113.5 196.5>
LayerCount: 2
Fore
SplineSet
388 280 m 2
 262 305 l 2
 180 321 60 358 60 462 c 0
 60 591 188 660 344 660 c 0
 430 660 530 638 606 598 c 1
 578 516 l 2
 574 505 570 495 567 495 c 0
 564 495 562 504 558 516 c 0
 528 608 386 635 314 635 c 0
 241 635 146 604 146 504 c 0
 146 408 269 391 339 377 c 2
 457 355 l 2
 546 338 625 293 625 193 c 0
 625 34 420 -20 306 -20 c 0
 213 -20 95 12 15 50 c 0
 8 53 5 55 5 56 c 0
 5 57 6 60 7 62 c 2
 40 163 l 2
 41 167 44 170 48 170 c 0
 51 170 54 167 55 162 c 0
 68 50 221 5 318 5 c 0
 410 5 539 42 539 153 c 0
 539 240 471 263 388 280 c 2
336 748 m 1
 457 851 l 1
 492 851 l 1
 368 684 l 1
 305 684 l 1
 180 851 l 1
 215 851 l 1xf8
 336 748 l 1
EndSplineSet
Validated: 1
EndChar

StartChar: scaron
Encoding: 23 353 197
Width: 574
GlyphClass: 1
Flags: MW
HStem: -15 25<238.5 314 238.5 333> 510 25<254.5 321.5> 583 64<288 288 288 320 257 288> 583 167<132 320 132 257> 627 20G<288 288>
VStem: 65 80<356.5 435> 450 80<103.5 174>
LayerCount: 2
Fore
SplineSet
505 493 m 1xce
 479 413 l 2
 476 404 473 400 470 400 c 0
 465 400 463 407 458 423 c 0
 440 484 354 510 289 510 c 0
 220 510 145 479 145 406 c 0
 145 307 259 304 333 298 c 0
 417 290 530 279 530 168 c 0
 530 39 387 -15 279 -15 c 0
 191 -15 100 -6 22 38 c 1
 43 103 l 2
 51 129 55 137 61 137 c 0
 66 137 68 129 73 116 c 0
 101 33 200 10 277 10 c 0
 351 10 450 33 450 125 c 0
 450 223 338 224 258 229 c 0
 176 237 65 274 65 374 c 0
 65 496 205 535 304 535 c 0
 372 535 443 520 505 493 c 1xce
288 647 m 1
 409 750 l 1
 444 750 l 1xd6
 320 583 l 1
 257 583 l 1xe6
 132 750 l 1
 167 750 l 1xd6
 288 647 l 1
EndSplineSet
Validated: 1
EndChar

StartChar: Uring
Encoding: 11 366 198
Width: 778
Flags: HW
HStem: -20 25<484.5 639.5 484.5 648> 622 20G<908 914> 624 20G<212.5 229 360 382.5 756.5 762.5>
VStem: 252 86<214 237 237 488> 821 32<260 277 277 479>
LayerCount: 2
Fore
SplineSet
416 782 m 0
 471 782 516 738 516 683 c 0
 516 628 471 583 416 583 c 0
 362 583 317 628 317 683 c 0
 317 738 362 782 416 782 c 0
417 743 m 0
 382 743 356 719 356 683 c 0
 356 646 382 622 417 622 c 0
 451 622 477 646 477 683 c 0
 477 719 451 743 417 743 c 0
90 214 m 2xb8
 90 543 l 2
 90 614 72 622 59 628 c 0
 49 632 44 634 44 638 c 0
 44 641 46 644 55 644 c 0
 79 644 105 640 129 640 c 0
 153 640 179 644 217 644 c 0
 224 644 232 642 232 639 c 0
 232 637 229 632 218 628 c 0
 178 614 176 550 176 488 c 2
 176 237 l 2
 176 102 246 5 399 5 c 0
 556 5 659 54 659 260 c 2
 659 479 l 2
 659 566 644 607 604 625 c 0
 589 632 584 635 584 639 c 0
 584 643 593 644 596 644 c 0xb8
 605 644 619 640 677 640 c 0xd8
 690 640 706 641 719 641 c 0
 733 642 744 642 748 642 c 0
 756 642 759 640 759 638 c 0
 759 635 750 631 742 626 c 0
 704 604 691 579 691 479 c 2
 691 277 l 2
 691 32 578 -20 394 -20 c 0
 164 -20 90 62 90 214 c 2xb8
EndSplineSet
Validated: 1
EndChar

StartChar: uring
Encoding: 25 367 199
Width: 648
Flags: HW
HStem: 583 39<112.5 147 112.5 156.5> 743 39<112.5 147>
VStem: 30 39<664.5 701 664.5 710.5> 190 39<664.5 701>
LayerCount: 2
Fore
SplineSet
316 782 m 0
 371 782 416 738 416 683 c 0
 416 628 371 583 316 583 c 0
 262 583 217 628 217 683 c 0
 217 738 262 782 316 782 c 0
317 743 m 0
 282 743 256 719 256 683 c 0
 256 646 282 622 317 622 c 0
 351 622 377 646 377 683 c 0
 377 719 351 743 317 743 c 0
43 489 m 2xb8
 159 520 l 1
 159 185 l 2
 159 93 201 10 316 10 c 0xb8
 440 10 495 131 495 272 c 2
 495 370 l 2
 495 444 487 461 463 473 c 0
 456 476 447 478 447 484 c 0
 447 486 449 487 456 489 c 2
 569 520 l 1
 569 185 l 2
 569 137 572 44 604 16 c 0
 611 9 615 7 615 4 c 0
 615 1 610 0 599 0 c 2
 526 0 l 1x78
 496 104 l 1
 443 20 389 -15 282 -15 c 0
 154 -15 79 62 79 172 c 2
 79 398 l 2
 79 456 70 468 50 472 c 0
 38 475 32 477 32 483 c 0
 32 486 37 488 43 489 c 2xb8
EndSplineSet
Validated: 1
EndChar

StartChar: Ydieresis
Encoding: -1 376 200
Width: 704
GlyphClass: 1
Flags: MW
HStem: -2 21G<246.5 256 429 438.5> 624 20G<4 13.5 192 206.5 539 541 541 558.5 686 701 701 701> 704 97<242 270 441 469>
VStem: 207 97<739 765> 300 86<148 275 275 275> 406 97<739 765>
LayerCount: 2
Fore
SplineSet
386 285 m 1xe8
 386 148 l 2
 386 71 394 41 412 23 c 0
 429 9 446 4 446 2 c 0
 446 0 442 -2 435 -2 c 0
 423 -2 392 0 346 0 c 0
 293 0 262 -2 250 -2 c 0
 243 -2 241 1 241 2 c 0
 241 6 259 9 273 23 c 0
 291 41 300 71 300 148 c 2
 300 275 l 1
 149 475 l 2
 120 509 63 583 29 614 c 0
 20 622 -1 631 -1 638 c 0
 -1 642 2 644 6 644 c 0
 21 644 66 640 94 640 c 0
 129 640 180 644 204 644 c 0
 209 644 212 641 212 636 c 0
 212 633 204 633 197 630 c 0
 184 626 171 617 171 597 c 0
 171 571 192 537 231 491 c 2
 372 321 l 1
 485 451 l 2
 510 481 575 551 575 593 c 0
 575 616 556 627 543 631 c 0
 540 632 534 634 534 638 c 0
 534 641 535 644 539 644 c 2
 541 644 l 2
 576 644 597 641 616 641 c 0
 641 641 664 644 686 644 c 2
 701 644 l 2
 705 642 706 640 706 637 c 0
 706 634 704 631 699 627 c 0
 638 578 561 500 515 442 c 2
 386 285 l 1xe8
207 752 m 0xf4
 207 778 228 801 256 801 c 0
 284 801 304 778 304 752 c 0
 304 726 284 704 256 704 c 0
 228 704 207 726 207 752 c 0xf4
406 752 m 0
 406 778 427 801 455 801 c 0
 483 801 503 778 503 752 c 0
 503 726 483 704 455 704 c 0
 427 704 406 726 406 752 c 0
EndSplineSet
Validated: 1
EndChar

StartChar: Zcaron
Encoding: -1 381 201
Width: 630
GlyphClass: 1
Flags: MW
HStem: 0 25<283 366.5 283 574> 615 25<255 391.5> 684 167<162 350 162 287>
VStem: 20 595<0 128.5>
LayerCount: 2
Fore
SplineSet
597 640 m 1
 372 334 l 2
 278 206 191 78 191 53 c 0
 191 25 251 25 315 25 c 0
 418 25 514 41 590 116 c 0
 600 127 605 133 610 133 c 0
 614 133 615 130 615 127 c 0
 615 125 615 123 614 121 c 2
 574 0 l 1
 20 0 l 1
 260 312 l 2
 356 442 451 566 451 591 c 0
 451 606 438 615 345 615 c 0
 165 615 110 582 60 531 c 0
 51 522 49 517 44 517 c 0
 42 517 41 519 41 522 c 0
 41 527 46 543 47 547 c 2
 79 640 l 1
 597 640 l 1
318 748 m 1
 439 851 l 1
 474 851 l 1
 350 684 l 1
 287 684 l 1
 162 851 l 1
 197 851 l 1
 318 748 l 1
EndSplineSet
Validated: 1
EndChar

StartChar: zcaron
Encoding: -1 382 202
Width: 556
GlyphClass: 1
Flags: MW
HStem: 0 25<188 341 341 365.5 188 507> 495 25<208.5 256 256 386> 583 64<279 279 279 311 248 279> 583 167<123 311 123 248> 627 20G<279 279>
VStem: 30 515<1.5 119>
LayerCount: 2
Fore
SplineSet
80 65 m 2xcc
 392 457 l 2
 397 464 406 475 406 483 c 0
 406 495 399 495 386 495 c 2
 256 495 l 2
 161 495 112 456 69 407 c 0
 68 405 66 404 64 404 c 0
 61 404 59 407 59 409 c 0
 59 411 60 413 60 414 c 2
 96 520 l 1
 504 520 l 2
 517 520 520 517 520 513 c 0
 520 510 517 504 511 496 c 2
 181 63 l 2
 170 49 169 43 169 38 c 0
 169 27 176 25 188 25 c 2
 341 25 l 2
 390 25 478 58 530 115 c 0
 534 119 537 123 540 123 c 0
 543 123 545 120 545 118 c 0
 545 115 544 112 543 109 c 2
 507 0 l 1
 34 0 l 2
 31 0 30 1 30 2 c 0
 30 7 41 21 44 24 c 0
 56 38 68 51 80 65 c 2xcc
279 647 m 1
 400 750 l 1
 435 750 l 1xd4
 311 583 l 1
 248 583 l 1xe4
 123 750 l 1
 158 750 l 1xd4
 279 647 l 1
EndSplineSet
Validated: 1
EndChar

StartChar: florin
Encoding: -1 402 203
Width: 648
GlyphClass: 1
Flags: MW
HStem: -198 37 420 25<231 309 225 313 393 480> 664 42
VStem: 56 535
LayerCount: 2
Fore
SplineSet
393 445 m 1
 487 445 l 1
 480 420 l 1
 390 420 l 1
 347 76 l 2
 335 -8 310 -89 242 -146 c 0
 190 -189 122 -200 56 -198 c 1
 84 -141 l 2
 86 -137 90 -128 96 -128 c 0
 99 -128 102 -132 104 -134 c 0
 116 -146 133 -161 162 -161 c 0
 241 -161 253 -11 263 45 c 2
 309 420 l 1
 225 420 l 1
 231 445 l 1
 313 445 l 1
 323 607 429 711 591 706 c 1
 554 631 l 1
 531 650 515 664 485 664 c 0
 420 664 402 544 398 496 c 2
 393 445 l 1
EndSplineSet
Validated: 33
EndChar

StartChar: circumflex
Encoding: -1 710 204
Width: 259
GlyphClass: 1
Flags: MW
HStem: 583 167<-26 161 -26 161 98 251 98 286>
VStem: -26 312<583 583>
LayerCount: 2
Fore
SplineSet
130 686 m 1
 9 583 l 1
 -26 583 l 1
 98 750 l 1
 161 750 l 1
 286 583 l 1
 251 583 l 1
 130 686 l 1
EndSplineSet
Validated: 1
EndChar

StartChar: caron
Encoding: 28 711 205
Width: 259
GlyphClass: 1
Flags: MW
HStem: 583 64<130 130 130 162 99 130> 583 167<-26 162 -26 99> 627 20G<130 130>
VStem: -26 312<750 750>
LayerCount: 2
Fore
SplineSet
130 647 m 1x30
 251 750 l 1
 286 750 l 1x50
 162 583 l 1
 99 583 l 1x90
 -26 750 l 1
 9 750 l 1x50
 130 647 l 1x30
EndSplineSet
Validated: 1
EndChar

StartChar: uni02C9
Encoding: -1 713 206
Width: 259
GlyphClass: 1
Flags: MW
HStem: 624 53<-26 286 -26 286>
VStem: -26 312<624 677 624 677>
LayerCount: 2
Fore
SplineSet
286 624 m 1
 -26 624 l 1
 -26 677 l 1
 286 677 l 1
 286 624 l 1
EndSplineSet
Validated: 1
EndChar

StartChar: breve
Encoding: -1 728 207
Width: 259
GlyphClass: 1
Flags: MW
HStem: 583 61<97 163 97 176.5>
VStem: -11 30<701.5 741> 241 30<701.5 741>
LayerCount: 2
Fore
SplineSet
241 741 m 1
 271 741 l 1
 271 662 223 583 130 583 c 0
 37 583 -11 662 -11 741 c 1
 19 741 l 1
 29 677 64 644 130 644 c 0
 196 644 231 677 241 741 c 1
EndSplineSet
Validated: 1
EndChar

StartChar: dotaccent
Encoding: -1 729 208
Width: 259
GlyphClass: 1
Flags: MW
HStem: 603 97<115 143>
VStem: 80 97<638 664>
LayerCount: 2
Fore
SplineSet
80 651 m 0
 80 677 101 700 129 700 c 0
 157 700 177 677 177 651 c 0
 177 625 157 603 129 603 c 0
 101 603 80 625 80 651 c 0
EndSplineSet
Validated: 1
EndChar

StartChar: ring
Encoding: 30 730 209
Width: 259
GlyphClass: 1
Flags: MW
HStem: 583 39<112.5 147 112.5 156.5> 743 39<112.5 147>
VStem: 30 39<664.5 701 664.5 710.5> 190 39<664.5 701>
LayerCount: 2
Fore
SplineSet
129 782 m 0
 184 782 229 738 229 683 c 0
 229 628 184 583 129 583 c 0
 75 583 30 628 30 683 c 0
 30 738 75 782 129 782 c 0
130 743 m 0
 95 743 69 719 69 683 c 0
 69 646 95 622 130 622 c 0
 164 622 190 646 190 683 c 0
 190 719 164 743 130 743 c 0
EndSplineSet
Validated: 1
EndChar

StartChar: ogonek
Encoding: -1 731 210
Width: 259
GlyphClass: 1
Flags: MW
HStem: -216 44<116 122>
VStem: 2 75<-143 -92.5 -143 -85>
LayerCount: 2
Fore
SplineSet
227 13 m 1
 227 4 l 1
 171 -17 77 -57 77 -128 c 0
 77 -158 103 -172 129 -172 c 0
 163 -172 203 -148 231 -130 c 1
 244 -160 l 1
 198 -189 150 -216 94 -216 c 0
 45 -216 2 -183 2 -132 c 0
 2 -38 155 -2 227 13 c 1
EndSplineSet
Validated: 1
EndChar

StartChar: tilde
Encoding: -1 732 211
Width: 259
GlyphClass: 1
Flags: MW
HStem: 609 55<200.5 218.5> 654 55<38 59.5>
VStem: -35 330<609 714>
LayerCount: 2
Fore
SplineSet
266 714 m 1xa0
 295 714 l 1
 283 653 252 609 185 609 c 0xa0
 158 609 134 620 111 632 c 0
 89 643 69 654 50 654 c 0
 22 654 2 635 -5 609 c 1
 -35 609 l 1
 -22 664 7 709 69 709 c 0x60
 95 709 121 698 145 687 c 0
 169 675 191 664 210 664 c 0
 238 664 259 688 266 714 c 1xa0
EndSplineSet
Validated: 1
EndChar

StartChar: hungarumlaut
Encoding: -1 733 212
Width: 259
GlyphClass: 1
Flags: MW
HStem: 583 172<-25 135.5 -25 135.5 99 135.5 121 135.5 121 141>
VStem: -25 349<583 733>
LayerCount: 2
Fore
SplineSet
17 583 m 1
 -25 583 l 1
 83 730 l 2
 102 754 114 755 128 755 c 0
 143 755 160 745 160 721 c 0
 160 704 145 693 127 678 c 2
 17 583 l 1
141 583 m 1
 99 583 l 1
 247 730 l 2
 268 754 278 755 292 755 c 0
 307 755 324 745 324 721 c 0
 324 704 309 693 289 678 c 2
 141 583 l 1
EndSplineSet
Validated: 1
EndChar

StartChar: uni03A9
Encoding: -1 937 213
Width: 847
GlyphClass: 1
Flags: MW
HStem: 0 65<152 273 152 339 568 695 695 719.5> 600 31<359 480>
VStem: 88 108<263.5 424.5 259 425.5> 651 106
LayerCount: 2
Fore
SplineSet
807 139 m 1
 777 0 l 1
 504 0 l 1
 496 22 l 1
 545 76 652 184 651 335 c 0
 650 531 538 600 422 600 c 0
 296 600 196 520 196 329 c 0
 196 189 287 92 347 22 c 1
 339 0 l 1
 67 0 l 1
 40 139 l 1
 64 140 l 1
 90 78 105 65 152 65 c 2
 273 65 l 1
 200 113 88 191 88 336 c 0
 88 515 233 631 424 631 c 0
 621 631 757 524 757 346 c 0
 757 224 655 134 568 65 c 1
 695 65 l 2
 744 65 755 74 780 140 c 1
 807 139 l 1
EndSplineSet
Validated: 33
EndChar

StartChar: uni03BC
Encoding: -1 956 214
Width: 648
GlyphClass: 1
Flags: MW
HStem: -194 21G<22 32.5> -190 21G<106.5 114 114 153> -15 25<258.5 335.5> 0 21G<526 599 526 526> 500 20G<159 159 569 569>
VStem: 79 80<139 185 185 398 398 427> 495 74<272 370 370 407>
LayerCount: 2
Fore
SplineSet
159 520 m 1x6e
 159 185 l 2
 159 93 201 10 316 10 c 0x6e
 440 10 495 131 495 272 c 2
 495 370 l 2
 495 444 487 461 463 473 c 0
 456 476 447 478 447 484 c 0
 447 486 449 487 456 489 c 2
 569 520 l 1
 569 185 l 2
 569 137 572 44 604 16 c 0
 611 9 615 7 615 4 c 0
 615 1 610 0 599 0 c 2
 526 0 l 1x5e
 496 104 l 1
 443 20 389 -15 282 -15 c 0
 229 -15 185 -2 153 22 c 1
 153 -190 l 1
 114 -190 l 2x6e
 99 -190 84 -191 70 -192 c 0
 55 -193 40 -194 25 -194 c 0
 19 -194 14 -194 14 -190 c 0
 14 -186 18 -183 24 -180 c 0xae
 70 -157 79 -113 79 -65 c 2
 79 398 l 2
 79 456 70 468 50 472 c 0
 38 475 32 477 32 483 c 0
 32 486 37 488 43 489 c 2
 159 520 l 1x6e
EndSplineSet
Validated: 1
EndChar

StartChar: pi
Encoding: -1 960 215
Width: 626
GlyphClass: 1
Flags: MW
HStem: -11 55<449 535.5> 302 21G<35 35> 345 69<479 494> 348 70<145.5 233.5>
VStem: 176 37<305 331 331 348 228 350> 382 93<99.5 146.5>
LayerCount: 2
Fore
SplineSet
571 450 m 1xec
 595 439 l 1
 587 403 570 364 555 349 c 1
 538 346 509 345 479 345 c 1xec
 473 291 475 195 475 127 c 0
 475 72 492 44 524 44 c 0
 547 44 560 56 577 73 c 1
 591 51 l 1
 563 7 517 -11 477 -11 c 0
 421 -11 382 14 382 106 c 0
 382 187 388 281 393 346 c 1
 320 348 254 348 213 348 c 1
 213 331 l 2
 213 125 157 17 143 5 c 1
 124 -2 100 -9 84 -11 c 1
 77 6 l 1
 153 88 176 260 176 350 c 1xdc
 104 350 73 329 35 302 c 1
 20 324 l 1
 57 368 91 418 200 418 c 0
 279 417 401 414 505 414 c 0
 534 414 552 420 571 450 c 1xec
EndSplineSet
Validated: 33
EndChar

StartChar: endash
Encoding: -1 8211 216
Width: 500
GlyphClass: 1
Flags: MW
HStem: 237 46<0 500 0 500>
VStem: 0 500<237 283 237 283>
LayerCount: 2
Fore
SplineSet
500 237 m 1
 0 237 l 1
 0 283 l 1
 500 283 l 1
 500 237 l 1
EndSplineSet
Validated: 1
EndChar

StartChar: emdash
Encoding: -1 8212 217
Width: 1000
GlyphClass: 1
Flags: MW
HStem: 237 46<0 1000 0 1000>
VStem: 0 1000<237 283 237 283>
LayerCount: 2
Fore
SplineSet
1000 237 m 1
 0 237 l 1
 0 283 l 1
 1000 283 l 1
 1000 237 l 1
EndSplineSet
Validated: 1
EndChar

StartChar: quoteleft
Encoding: -1 8216 218
Width: 130
GlyphClass: 1
Flags: MW
HStem: 454 97<51 66 51 78> 640 20G<78 89>
VStem: 8 43<551 555>
LayerCount: 2
Fore
SplineSet
112 507 m 0
 112 478 96 454 60 454 c 0
 27 454 8 482 8 525 c 0
 8 585 68 660 88 660 c 0
 90 660 93 658 93 656 c 0
 93 654 92 651 91 650 c 0
 67 618 51 592 51 551 c 1
 81 551 112 541 112 507 c 0
EndSplineSet
Validated: 1
EndChar

StartChar: quoteright
Encoding: -1 8217 219
Width: 130
GlyphClass: 1
Flags: MW
HStem: 563 97<64 79> 640 20G<52 86.5>
VStem: 79 43<559 563>
LayerCount: 2
Fore
SplineSet
18 607 m 0xa0
 18 636 34 660 70 660 c 0
 103 660 122 632 122 589 c 0
 122 529 62 454 42 454 c 0
 40 454 37 456 37 458 c 0
 37 460 38 463 39 464 c 0
 63 496 79 522 79 563 c 1
 49 563 18 573 18 607 c 0xa0
EndSplineSet
Validated: 1
EndChar

StartChar: quotesinglbase
Encoding: -1 8218 220
Width: 130
GlyphClass: 1
Flags: MW
HStem: -12 21G<64 79> -12 97<64 79>
VStem: 79 43<-16 -12>
LayerCount: 2
Fore
SplineSet
18 32 m 0xa0
 18 61 34 85 70 85 c 0
 103 85 122 57 122 14 c 0x60
 122 -46 62 -121 42 -121 c 0
 40 -121 37 -119 37 -117 c 0
 37 -115 38 -112 39 -111 c 0
 63 -79 79 -53 79 -12 c 1
 49 -12 18 -2 18 32 c 0xa0
EndSplineSet
Validated: 1
EndChar

StartChar: quotedblleft
Encoding: -1 8220 221
Width: 296
GlyphClass: 1
Flags: MW
HStem: 454 97<69 84 69 96 217 232> 640 20G<96 107 244 255>
VStem: 26 43<551 555> 174 43<551 555>
LayerCount: 2
Fore
SplineSet
278 507 m 0
 278 478 262 454 226 454 c 0
 193 454 174 482 174 525 c 0
 174 585 234 660 254 660 c 0
 256 660 259 658 259 656 c 0
 259 654 258 651 257 650 c 0
 233 618 217 592 217 551 c 1
 247 551 278 541 278 507 c 0
130 507 m 0
 130 478 114 454 78 454 c 0
 45 454 26 482 26 525 c 0
 26 585 86 660 106 660 c 0
 108 660 111 658 111 656 c 0
 111 654 110 651 109 650 c 0
 85 618 69 592 69 551 c 1
 99 551 130 541 130 507 c 0
EndSplineSet
Validated: 1
EndChar

StartChar: quotedblright
Encoding: -1 8221 222
Width: 296
GlyphClass: 1
Flags: MW
HStem: 563 97<64 79 212 227>
VStem: 79 43<559 563> 227 43<559 563>
LayerCount: 2
Fore
SplineSet
18 607 m 0
 18 636 34 660 70 660 c 0
 103 660 122 632 122 589 c 0
 122 529 62 454 42 454 c 0
 40 454 37 456 37 458 c 0
 37 460 38 463 39 464 c 0
 63 496 79 522 79 563 c 1
 49 563 18 573 18 607 c 0
166 607 m 0
 166 636 182 660 218 660 c 0
 251 660 270 632 270 589 c 0
 270 529 210 454 190 454 c 0
 188 454 185 456 185 458 c 0
 185 460 186 463 187 464 c 0
 211 496 227 522 227 563 c 1
 197 563 166 573 166 607 c 0
EndSplineSet
Validated: 1
EndChar

StartChar: quotedblbase
Encoding: -1 8222 223
Width: 296
GlyphClass: 1
Flags: MW
HStem: -12 97<64 79 212 227>
VStem: 79 43<-16 -12> 227 43<-16 -12>
LayerCount: 2
Fore
SplineSet
18 32 m 0
 18 61 34 85 70 85 c 0
 103 85 122 57 122 14 c 0
 122 -46 62 -121 42 -121 c 0
 40 -121 37 -119 37 -117 c 0
 37 -115 38 -112 39 -111 c 0
 63 -79 79 -53 79 -12 c 1
 49 -12 18 -2 18 32 c 0
166 32 m 0
 166 61 182 85 218 85 c 0
 251 85 270 57 270 14 c 0
 270 -46 210 -121 190 -121 c 0
 188 -121 185 -119 185 -117 c 0
 185 -115 186 -112 187 -111 c 0
 211 -79 227 -53 227 -12 c 1
 197 -12 166 -2 166 32 c 0
EndSplineSet
Validated: 1
EndChar

StartChar: dagger
Encoding: -1 8224 224
Width: 556
GlyphClass: 1
Flags: MW
HStem: 363 44<160.5 245 182 245 310 373> 624 20G
VStem: 245 65<-22 363 407 533>
LayerCount: 2
Fore
SplineSet
245 407 m 1
 245 533 l 2
 245 570 244 607 243 644 c 1
 254 641 267 640 278 640 c 0
 290 640 302 642 312 644 c 1
 311 607 310 570 310 533 c 2
 310 407 l 1
 373 407 l 2
 416 407 459 409 502 417 c 1
 501 407 501 395 501 385 c 0
 501 376 501 366 502 353 c 1
 459 361 416 363 373 363 c 2
 310 363 l 1
 310 -22 l 2
 310 -61 312 -95 313 -129 c 1
 301 -128 289 -126 277 -126 c 0
 265 -126 254 -127 242 -129 c 1
 243 -95 245 -61 245 -22 c 2
 245 363 l 1
 182 363 l 2
 139 363 96 361 53 353 c 1
 54 366 54 376 54 385 c 0
 54 395 54 407 53 417 c 1
 96 409 139 407 182 407 c 2
 245 407 l 1
EndSplineSet
Validated: 1
EndChar

StartChar: daggerdbl
Encoding: -1 8225 225
Width: 556
GlyphClass: 1
Flags: MW
HStem: 100 44<186 244 186 244 153 244 309 367 367 389> 371 44<186 244 186 244 153 244 309 367 367 389> 624 20G
VStem: 244 65<-18 100 144 371 415 533>
LayerCount: 2
Fore
SplineSet
244 415 m 1
 244 533 l 2
 244 570 243 607 242 644 c 1
 253 641 266 640 277 640 c 0
 289 640 301 642 311 644 c 1
 310 607 309 570 309 533 c 2
 309 415 l 1
 367 415 l 2
 411 415 456 415 502 422 c 1
 501 412 501 403 501 393 c 0
 501 384 501 374 502 364 c 1
 467 367 434 369 400 371 c 2
 309 371 l 1
 309 144 l 1
 367 144 l 2
 411 144 456 144 502 151 c 1
 501 141 501 132 501 122 c 0
 501 113 501 103 502 93 c 1
 467 96 434 98 400 100 c 2
 309 100 l 1
 309 -18 l 2
 309 -55 310 -92 311 -129 c 1
 300 -126 287 -125 276 -125 c 0
 264 -125 252 -127 242 -129 c 1
 243 -92 244 -55 244 -18 c 2
 244 100 l 1
 153 100 l 2
 119 98 86 96 53 93 c 1
 54 103 54 113 54 122 c 0
 54 132 54 141 53 151 c 1
 97 144 142 144 186 144 c 2
 244 144 l 1
 244 371 l 1
 153 371 l 2
 119 369 86 367 53 364 c 1
 54 374 54 384 54 393 c 0
 54 403 54 412 53 422 c 1
 97 415 142 415 186 415 c 2
 244 415 l 1
EndSplineSet
Validated: 1
EndChar

StartChar: bullet
Encoding: -1 8226 226
Width: 500
GlyphClass: 1
Flags: MW
HStem: 159 322<205 295>
VStem: 89 322<275.5 364.5>
LayerCount: 2
Fore
SplineSet
250 159 m 0
 160 159 89 231 89 320 c 0
 89 409 160 481 250 481 c 0
 340 481 411 409 411 320 c 0
 411 231 340 159 250 159 c 0
EndSplineSet
Validated: 1
EndChar

StartChar: ellipsis
Encoding: -1 8230 227
Width: 1000
GlyphClass: 1
Flags: MW
HStem: -12 97<152 180 486 514 820 848>
VStem: 117 97<23 49> 451 97<23 49> 785 97<23 49>
CounterMasks: 1 70
LayerCount: 2
Fore
SplineSet
117 36 m 0
 117 62 138 85 166 85 c 0
 194 85 214 62 214 36 c 0
 214 10 194 -12 166 -12 c 0
 138 -12 117 10 117 36 c 0
451 36 m 0
 451 62 472 85 500 85 c 0
 528 85 548 62 548 36 c 0
 548 10 528 -12 500 -12 c 0
 472 -12 451 10 451 36 c 0
785 36 m 0
 785 62 806 85 834 85 c 0
 862 85 882 62 882 36 c 0
 882 10 862 -12 834 -12 c 0
 806 -12 785 10 785 36 c 0
EndSplineSet
Validated: 1
EndChar

StartChar: perthousand
Encoding: -1 8240 228
Width: 1000
GlyphClass: 1
Flags: MW
HStem: -15 21G<119 163 119 119> 0 19<461.5 539 461.5 549.5 800.5 878> 264 19<122.5 200 122.5 210.5> 332 19<460.5 539.5 799.5 878.5> 596 19<121.5 200.5> 610 20G<503 547 547 547>
VStem: 18 60<413 468 413 478> 243 60<403.5 465> 357 60<149 204 149 214> 582 60<139.5 201> 696 60<149 204 149 214> 921 60<139.5 201>
LayerCount: 2
Fore
SplineSet
696 171 m 0x5030
 696 257 744 351 841 351 c 0
 936 351 981 266 981 180 c 0
 981 88 938 0 839 0 c 0
 746 0 696 92 696 171 c 0x5030
839 19 m 0
 917 19 921 107 921 172 c 0
 921 230 918 332 839 332 c 0
 760 332 756 233 756 175 c 0
 756 123 762 19 839 19 c 0
18 435 m 0x2b
 18 521 66 615 163 615 c 0
 258 615 303 530 303 444 c 0
 303 352 260 264 161 264 c 0
 68 264 18 356 18 435 c 0x2b
161 283 m 0
 239 283 243 371 243 436 c 0
 243 494 240 596 161 596 c 0
 82 596 78 497 78 439 c 0
 78 387 84 283 161 283 c 0
357 171 m 0x50c0
 357 257 405 351 502 351 c 0
 597 351 642 266 642 180 c 0
 642 88 599 0 500 0 c 0
 407 0 357 92 357 171 c 0x50c0
500 19 m 0
 578 19 582 107 582 172 c 0
 582 230 579 332 500 332 c 0
 421 332 417 233 417 175 c 0
 417 123 423 19 500 19 c 0
503 630 m 1x8440
 547 630 l 1
 163 -15 l 1
 119 -15 l 1
 503 630 l 1x8440
EndSplineSet
Validated: 1
Ligature2: "Ligature Substitution lookup 6 subtable" zero fraction zero zero
Ligature2: "Ligature Substitution lookup 6 subtable" zero slash zero zero
EndChar

StartChar: guilsinglleft
Encoding: -1 8249 229
Width: 389
GlyphClass: 1
Flags: MW
HStem: 65 389
VStem: 105 180
LayerCount: 2
Fore
SplineSet
159 261 m 1
 281 97 l 1
 261 93 243 81 231 65 c 1
 195 134 152 199 105 261 c 1
 156 319 195 387 234 454 c 1
 248 441 265 426 285 424 c 1
 159 261 l 1
EndSplineSet
Validated: 1
EndChar

StartChar: guilsinglright
Encoding: -1 8250 230
Width: 389
GlyphClass: 1
Flags: MW
HStem: 65 389
VStem: 104 180
LayerCount: 2
Fore
SplineSet
230 258 m 1
 108 422 l 1
 128 426 146 438 158 454 c 1
 194 385 237 320 284 258 c 1
 233 200 194 132 155 65 c 1
 141 78 124 93 104 95 c 1
 230 258 l 1
EndSplineSet
Validated: 1
EndChar

StartChar: fraction
Encoding: -1 8260 231
Width: 167
GlyphClass: 1
Flags: MW
HStem: -15 21G<-167 -117 -167 -167> 610 20G<284 334 334 334>
VStem: -167 501
LayerCount: 2
Fore
SplineSet
284 630 m 1
 334 630 l 1
 -117 -15 l 1
 -167 -15 l 1
 284 630 l 1
EndSplineSet
Validated: 1
EndChar

StartChar: Euro
Encoding: -1 8364 232
Width: 648
GlyphClass: 1
Flags: MW
HStem: -15 25<349.5 440> 224 42<28 99 44 99 44 104 207 207 207 486> 349 42<47 101 31 108 206 535> 605 25<354 445>
VStem: 97 104<303.5 305>
LayerCount: 2
Fore
SplineSet
28 224 m 1
 44 266 l 1
 99 266 l 1
 98 276 97 286 97 296 c 0
 97 314 99 332 101 349 c 1
 31 349 l 1
 47 391 l 1
 108 391 l 1
 145 552 274 630 416 630 c 0
 489 630 560 610 621 561 c 1
 602 503 l 2
 592 473 590 466 585 466 c 0
 579 466 577 470 576 475 c 0
 543 591 475 605 415 605 c 0
 293 605 225 523 206 391 c 1
 552 391 l 1
 535 349 l 1
 202 349 l 1
 201 337 201 324 201 311 c 0
 201 296 201 281 203 266 c 1
 502 266 l 1
 486 224 l 1
 207 224 l 1
 226 96 290 10 409 10 c 0
 509 10 557 51 586 121 c 0
 590 130 593 137 598 137 c 0
 605 137 605 131 610 113 c 2
 624 51 l 1
 555 -8 466 -15 414 -15 c 0
 284 -15 138 59 104 224 c 1
 28 224 l 1
EndSplineSet
Validated: 1
EndChar

StartChar: uni2113
Encoding: -1 8467 233
Width: 447
GlyphClass: 1
Flags: MW
HStem: -13 52<250.5 283> 639 31<231 253.5>
VStem: 95 84<162 198 198 223 223 223 259 270 312 373 373 433> 287 59<496.5 564>
LayerCount: 2
Fore
SplineSet
407 117 m 1
 426 99 l 1
 380 25 323 -13 243 -13 c 0
 194 -13 160 0 136 23 c 0
 111 48 95 85 95 162 c 2
 95 223 l 1
 25 177 l 1
 13 201 l 1
 95 259 l 1
 95 373 l 2
 95 524 104 579 152 627 c 0
 183 661 214 670 248 670 c 0
 318 670 346 604 346 545 c 0
 346 439 279 355 179 270 c 1
 179 198 l 2
 179 77 219 39 282 39 c 0
 334 39 378 77 407 117 c 1
179 433 m 2
 179 312 l 1
 240 378 287 451 287 542 c 0
 287 586 272 639 235 639 c 0
 191 639 179 573 179 433 c 2
EndSplineSet
Validated: 1
EndChar

StartChar: trademark
Encoding: -1 8482 234
Width: 990
GlyphClass: 1
Flags: MW
HStem: 236 19<124 287 124 124> 621 19<102 123 123 174 237 288 237 237 420 434>
VStem: 36 19<552 640> 174 63<311 621> 356 19<552 640> 489 25<319 544> 834 63<311 547 547 547>
LayerCount: 2
Fore
SplineSet
237 621 m 1
 237 311 l 2
 237 260 235 261 287 255 c 1
 287 236 l 1
 124 236 l 1
 124 255 l 1
 175 261 174 260 174 311 c 2
 174 621 l 1
 123 621 l 2
 81 621 64 589 55 552 c 1
 36 552 l 1
 36 640 l 1
 375 640 l 1
 375 552 l 1
 356 552 l 1
 347 589 329 621 288 621 c 2
 237 621 l 1
668 233 m 1
 516 544 l 1
 514 544 l 1
 514 319 l 2
 514 276 523 260 566 255 c 1
 566 236 l 1
 436 236 l 1
 436 255 l 1
 480 260 489 276 489 319 c 2
 489 566 l 2
 489 610 448 621 420 621 c 1
 420 640 l 1
 535 640 l 1
 692 325 l 1
 856 640 l 1
 954 640 l 1
 954 621 l 1
 911 619 897 599 897 564 c 2
 897 311 l 2
 897 260 895 261 947 255 c 1
 947 236 l 1
 784 236 l 1
 784 255 l 1
 836 261 834 260 834 311 c 2
 834 547 l 1
 832 547 l 1
 677 233 l 1
 668 233 l 1
EndSplineSet
Validated: 33
EndChar

StartChar: Omega
Encoding: -1 8486 235
Width: 847
GlyphClass: 1
Flags: MW
HStem: 0 65<152 273 152 339 568 695 695 719.5> 600 31<359 480>
VStem: 88 108<263.5 424.5 259 425.5> 651 106
LayerCount: 2
Fore
SplineSet
807 139 m 1
 777 0 l 1
 504 0 l 1
 496 22 l 1
 545 76 652 184 651 335 c 0
 650 531 538 600 422 600 c 0
 296 600 196 520 196 329 c 0
 196 189 287 92 347 22 c 1
 339 0 l 1
 67 0 l 1
 40 139 l 1
 64 140 l 1
 90 78 105 65 152 65 c 2
 273 65 l 1
 200 113 88 191 88 336 c 0
 88 515 233 631 424 631 c 0
 621 631 757 524 757 346 c 0
 757 224 655 134 568 65 c 1
 695 65 l 2
 744 65 755 74 780 140 c 1
 807 139 l 1
EndSplineSet
Validated: 33
EndChar

StartChar: estimated
Encoding: -1 8494 236
Width: 776
GlyphClass: 1
Flags: MW
HStem: -14 18<345 434.5 345 445> 298 17<164.5 610 166 610 610 611.5 166 745> 609 20<345.5 430.5>
VStem: 30 131<218 294 320 321 321 396> 614 131<298 497>
LayerCount: 2
Fore
SplineSet
745 298 m 1
 166 298 l 2
 163 298 161 297 161 294 c 2
 161 119 l 2
 161 111 164 105 169 99 c 0
 225 41 302 4 388 4 c 0
 481 4 563 45 619 110 c 1
 670 110 l 1
 606 35 503 -14 387 -14 c 0
 190 -14 30 129 30 307 c 0
 30 485 190 629 387 629 c 0
 585 629 745 485 745 307 c 2
 745 298 l 1
614 321 m 2
 614 497 l 2
 614 505 611 512 605 518 c 0
 549 573 473 609 388 609 c 0
 303 609 226 572 170 515 c 0
 164 509 161 502 161 493 c 2
 161 321 l 2
 161 319 163 315 166 315 c 2
 610 315 l 2
 613 315 614 319 614 321 c 2
EndSplineSet
Validated: 1
EndChar

StartChar: partialdiff
Encoding: -1 8706 237
Width: 588
GlyphClass: 1
Flags: MW
HStem: -14 33<218.5 285.5 218.5 307> 361 41<289.5 312 312 313> 661 40<253.5 304 213.5 312.5>
VStem: 47 94<124 185 117 214.5> 451 82<330 444.5>
LayerCount: 2
Fore
SplineSet
285 402 m 2
 286 402 l 2
 341 402 409 376 444 326 c 1
 447 356 451 388 451 420 c 0
 451 469 444 520 420 569 c 0
 398 614 342 661 283 661 c 0
 224 661 166 628 126 596 c 1
 107 594 77 635 90 659 c 1
 128 680 177 701 250 701 c 0
 358 701 426 652 478 572 c 0
 523 502 533 416 533 365 c 0
 533 295 521 204 479 128 c 0
 431 44 361 -14 253 -14 c 0
 128 -14 47 66 47 182 c 0
 47 247 75 300 111 335 c 0
 153 377 217 402 285 402 c 2
313 361 m 2
 312 361 l 2
 267 361 224 350 188 308 c 0
 154 267 141 215 141 155 c 0
 141 79 183 19 254 19 c 0
 317 19 357 62 382 109 c 0
 414 166 424 213 437 287 c 1
 421 314 373 361 313 361 c 2
EndSplineSet
Validated: 33
EndChar

StartChar: Delta
Encoding: -1 8710 238
Width: 706
GlyphClass: 1
Flags: MW
HStem: 0 45<97 551 97 666> 610 20G<372 372>
VStem: 39 627<0 23 0 23>
LayerCount: 2
Fore
SplineSet
666 0 m 1
 39 0 l 1
 39 23 l 1
 326 618 l 1
 372 630 l 1
 666 23 l 1
 666 0 l 1
551 45 m 1
 322 535 l 1
 97 45 l 1
 551 45 l 1
EndSplineSet
Validated: 1
EndChar

StartChar: product
Encoding: -1 8719 239
Width: 757
GlyphClass: 1
Flags: MW
HStem: -75 25<33 306 33 33> 596 34<239.5 254 254 500> 605 25<30 725 30 725>
VStem: 128 92<22 545 545 570> 537 91<22 545>
LayerCount: 2
Fore
SplineSet
725 630 m 1xd8
 725 605 l 1
 632 599 628 593 628 545 c 2xb8
 628 22 l 2
 628 -37 634 -44 724 -50 c 1
 724 -75 l 1
 442 -75 l 1
 442 -50 l 1
 531 -44 537 -42 537 22 c 2
 537 566 l 2
 537 595 530 596 500 596 c 2
 254 596 l 2
 225 596 220 593 220 570 c 2xd8
 220 22 l 2
 220 -38 222 -43 306 -50 c 1
 306 -75 l 1
 33 -75 l 1
 33 -50 l 1
 120 -44 128 -38 128 22 c 2
 128 545 l 2
 128 595 122 599 30 605 c 1xb8
 30 630 l 1
 725 630 l 1xd8
EndSplineSet
Validated: 1
EndChar

StartChar: summation
Encoding: -1 8721 240
Width: 615
GlyphClass: 1
Flags: MW
HStem: -79 73<112 410 410 456.5 112 541> 599 31<153 378 153 153>
VStem: 28 560<-79 111 -53 111>
LayerCount: 2
Fore
SplineSet
588 111 m 1
 541 -79 l 1
 28 -79 l 1
 28 -53 l 1
 270 264 l 1
 36 605 l 1
 36 630 l 1
 539 630 l 1
 540 615 547 532 553 467 c 1
 526 460 l 1
 516 512 500 553 487 570 c 0
 473 590 459 599 378 599 c 2
 153 599 l 1
 350 310 l 1
 112 -6 l 1
 410 -6 l 2
 503 -6 512 -3 561 118 c 1
 588 111 l 1
EndSplineSet
Validated: 1
EndChar

StartChar: minus
Encoding: -1 8722 241
Width: 600
GlyphClass: 1
Flags: MW
HStem: 231 58<41 559 41 559>
VStem: 41 518<231 289 231 289>
LayerCount: 2
Fore
SplineSet
559 231 m 1
 41 231 l 1
 41 289 l 1
 559 289 l 1
 559 231 l 1
EndSplineSet
Validated: 1
EndChar

StartChar: uni2215
Encoding: -1 8725 242
Width: 167
GlyphClass: 1
Flags: MW
HStem: -15 21G<-167 -117 -167 -167> 610 20G<284 334 334 334>
VStem: -167 501
LayerCount: 2
Fore
SplineSet
284 630 m 1
 334 630 l 1
 -117 -15 l 1
 -167 -15 l 1
 284 630 l 1
EndSplineSet
Validated: 1
EndChar

StartChar: uni2219
Encoding: -1 8729 243
Width: 324
GlyphClass: 1
Flags: MW
HStem: 212 97<148 176>
VStem: 113 97<247 273>
LayerCount: 2
Fore
SplineSet
113 260 m 0
 113 286 134 309 162 309 c 0
 190 309 210 286 210 260 c 0
 210 234 190 212 162 212 c 0
 134 212 113 234 113 260 c 0
EndSplineSet
Validated: 1
EndChar

StartChar: radical
Encoding: -1 8730 244
Width: 586
GlyphClass: 1
Flags: MW
HStem: -135 953<373 531>
VStem: 31 539<354 808>
LayerCount: 2
Fore
SplineSet
570 808 m 1
 396 -122 l 1
 373 -135 l 1
 136 369 l 1
 44 322 l 1
 31 354 l 1
 195 437 l 1
 385 19 l 1
 387 19 l 1
 531 818 l 1
 570 808 l 1
EndSplineSet
Validated: 1
EndChar

StartChar: infinity
Encoding: -1 8734 245
Width: 776
GlyphClass: 1
Flags: MW
HStem: 96 53<208 209 209 240 208 241.5 549 604.5> 251 21G 362 51<173.5 238>
VStem: 49 57<224 282 224 299.5> 670 56<228 257 257 258 207 286.5>
LayerCount: 2
Fore
SplineSet
726 258 m 2
 726 257 l 2
 726 157 651 96 571 96 c 0
 512 96 458 132 388 213 c 1
 336 152 282 96 201 96 c 0
 120 96 49 162 49 253 c 0
 49 346 118 413 209 413 c 0
 284 413 341 359 394 296 c 1
 442 351 493 414 578 413 c 0
 665 412 726 350 726 258 c 2
208 149 m 2
 209 149 l 2
 271 149 320 210 358 251 c 1
 316 304 273 362 203 362 c 0
 144 362 106 312 106 252 c 0
 106 196 147 149 208 149 c 2
572 362 m 2
 571 362 l 2
 507 362 455 291 421 256 c 1
 486 182 524 149 574 149 c 0
 635 149 670 203 670 253 c 0
 670 320 628 362 572 362 c 2
EndSplineSet
Validated: 33
EndChar

StartChar: integral
Encoding: -1 8747 246
Width: 386
GlyphClass: 1
Flags: MW
HStem: -190 41<114 131> 738 38<257 277>
VStem: 148 84 157.5 83.5
LayerCount: 2
Fore
SplineSet
167 17 m 2xd0
 148 388 l 2xe0
 132 699 214 776 300 776 c 0
 325 776 360 762 361 733 c 0
 361 705 341 690 320 690 c 0
 289 690 288 738 266 738 c 0
 245 738 217 708 223 576 c 2
 241 217 l 2
 258 -119 174 -190 88 -190 c 0
 52 -190 27 -168 26 -144 c 0
 25 -121 50 -100 77 -100 c 0
 103 -100 103 -149 125 -149 c 0
 157 -149 173 -81 167 17 c 2xd0
EndSplineSet
Validated: 33
EndChar

StartChar: approxequal
Encoding: -1 8776 247
Width: 597
GlyphClass: 1
Flags: MW
HStem: 103 56<389 431.5 389 440.5> 176 56<165 207.5> 277 56<390.5 431 390.5 440.5> 350 56<165.5 208>
VStem: 44 507<140 193 193 314>
LayerCount: 2
Fore
SplineSet
514 404 m 1
 551 367 l 1
 515 313 470 277 411 277 c 0xf8
 365 277 336 293 286 318 c 0
 257 333 226 350 190 350 c 0
 141 350 109 316 80 278 c 1
 44 314 l 1
 77 369 134 406 195 406 c 0x58
 244 406 280 383 311 367 c 0
 350 346 371 333 410 333 c 0
 452 333 482 356 514 404 c 1
514 230 m 1
 551 193 l 1
 515 140 471 103 410 103 c 0xd8
 365 103 335 120 286 144 c 0
 256 160 225 176 190 176 c 0
 140 176 109 142 80 104 c 1
 44 140 l 1
 77 195 134 232 195 232 c 0x58
 244 232 280 210 310 194 c 0
 343 177 368 159 410 159 c 0
 453 159 481 181 514 230 c 1
EndSplineSet
Validated: 1
EndChar

StartChar: notequal
Encoding: -1 8800 248
Width: 597
GlyphClass: 1
Flags: MW
HStem: 127 55<52 207 52 233 289 545 52 263> 323 55<52 300 52 325 382 545 52 357>
VStem: 52 493<127 182 127 182 323 378 127 378>
LayerCount: 2
Fore
SplineSet
427 473 m 1
 382 378 l 1
 545 378 l 1
 545 323 l 1
 357 323 l 1
 289 182 l 1
 545 182 l 1
 545 127 l 1
 263 127 l 1
 206 6 l 1
 160 28 l 1
 207 127 l 1
 52 127 l 1
 52 182 l 1
 233 182 l 1
 300 323 l 1
 52 323 l 1
 52 378 l 1
 325 378 l 1
 381 495 l 1
 427 473 l 1
EndSplineSet
Validated: 1
EndChar

StartChar: lessequal
Encoding: -1 8804 249
Width: 597
GlyphClass: 1
Flags: MW
HStem: -5 56<52 545 52 545> 304 21G<57 57>
VStem: 52 493<-5 51 -5 51> 57 64<333 335 333 363 333 363>
LayerCount: 2
Fore
SplineSet
543 88 m 1xe0
 57 304 l 1
 57 363 l 1
 542 579 l 1
 542 516 l 1
 121 335 l 1
 121 333 l 1xd0
 543 151 l 1
 543 88 l 1xe0
545 -5 m 1
 52 -5 l 1
 52 51 l 1
 545 51 l 1
 545 -5 l 1
EndSplineSet
Validated: 1
EndChar

StartChar: greaterequal
Encoding: -1 8805 250
Width: 597
GlyphClass: 1
Flags: MW
HStem: -5 56<53 542 53 542> 304 21G<543 543>
VStem: 53 490<-5 363 51 363> 478 65<333 335 335 335>
LayerCount: 2
Fore
SplineSet
57 579 m 1xe0
 543 363 l 1
 543 304 l 1
 57 88 l 1
 57 151 l 1
 478 333 l 1
 478 335 l 1xd0
 57 516 l 1
 57 579 l 1xe0
542 -5 m 1
 53 -5 l 1
 53 51 l 1
 542 51 l 1
 542 -5 l 1
EndSplineSet
Validated: 1
EndChar

StartChar: lozenge
Encoding: -1 9674 251
Width: 605
GlyphClass: 1
Flags: MW
HStem: -73 56<302 304 302 334 271 304> 300 21G<115 115> 614 59<301 305 301 301>
VStem: 48 509<298 298>
LayerCount: 2
Fore
SplineSet
557 298 m 1
 334 -73 l 1
 271 -73 l 1
 48 298 l 1
 272 673 l 1
 334 673 l 1
 557 298 l 1
490 298 m 1
 305 614 l 1
 301 614 l 1
 115 300 l 1
 302 -17 l 1
 304 -17 l 1
 490 298 l 1
EndSplineSet
Validated: 1
EndChar

StartChar: uniFB01
Encoding: -1 64257 252
Width: 574
GlyphClass: 1
Flags: MW
HStem: -2 12 465 25<19 100 26 100 26 100 174 259> 500 20G<485 485> 594 96<437 459> 705 20G<326 326>
VStem: 100 74<170.5 225 225 465 490 538 538 601> 401 94<627 657> 411 74<156 178 178 448 448 458>
LayerCount: 2
Fore
SplineSet
19 465 m 1xdd
 26 490 l 1
 100 490 l 1
 100 538 l 2
 100 664 216 709 326 725 c 1
 299 641 l 1
 285 659 264 678 231 678 c 0
 201 678 174 651 174 612 c 2
 174 490 l 1
 266 490 l 1
 259 465 l 1
 174 465 l 1
 174 225 l 2
 174 116 185 42 213 19 c 0
 222 11 237 7 237 2 c 0
 237 -1 233 -2 227 -2 c 0
 221 -2 200 0 137 0 c 0
 108 0 80 -2 66 -2 c 0
 58 -2 55 -1 55 1 c 0
 55 4 62 6 69 12 c 0
 95 33 100 67 100 100 c 2
 100 465 l 1
 19 465 l 1xdd
485 520 m 1xfd
 485 178 l 2
 485 67 503 17 527 10 c 0
 536 8 543 7 543 2 c 0
 543 -1 536 -2 531 -2 c 0
 514 -2 477 0 448 0 c 0
 397 0 376 -2 365 -2 c 0
 360 -2 357 -2 357 2 c 0
 357 7 364 10 374 14 c 0
 408 30 411 67 411 156 c 2
 411 448 l 2
 411 468 394 471 378 480 c 0
 373 482 369 483 369 486 c 0
 369 489 372 490 376 491 c 2
 485 520 l 1xfd
448 690 m 0xde
 470 690 495 672 495 642 c 0
 495 612 470 594 448 594 c 0
 426 594 401 612 401 642 c 0
 401 672 426 690 448 690 c 0xde
EndSplineSet
Validated: 1
Ligature2: "'liga' Standard Ligatures in Latin lookup 3 subtable" f i
EndChar

StartChar: uniFB02
Encoding: -1 64258 253
Width: 574
GlyphClass: 1
Flags: MW
HStem: -2 21G<62 73 224 230 356 373.5 520 528.5> 465 25<19 100 26 100 26 100 174 259> 705 20G<326 326 485 485>
VStem: 100 74<170.5 225 225 465 490 538 538 601> 411 74<224 579 579 616.5>
LayerCount: 2
Fore
SplineSet
19 465 m 1
 26 490 l 1
 100 490 l 1
 100 538 l 2
 100 664 216 709 326 725 c 1
 299 641 l 1
 285 659 264 678 231 678 c 0
 201 678 174 651 174 612 c 2
 174 490 l 1
 266 490 l 1
 259 465 l 1
 174 465 l 1
 174 225 l 2
 174 116 185 42 213 19 c 0
 222 11 237 7 237 2 c 0
 237 -1 233 -2 227 -2 c 0
 221 -2 200 0 137 0 c 0
 108 0 80 -2 66 -2 c 0
 58 -2 55 -1 55 1 c 0
 55 4 62 6 69 12 c 0
 95 33 100 67 100 100 c 2
 100 465 l 1
 19 465 l 1
485 725 m 1
 485 145 l 2
 485 87 490 28 522 15 c 0
 532 11 543 7 543 2 c 0
 543 -1 531 -2 526 -2 c 0
 514 -2 477 0 448 0 c 0
 419 0 382 -2 365 -2 c 0
 347 -2 343 -1 343 2 c 0
 343 7 356 11 370 17 c 0
 406 33 411 120 411 224 c 2
 411 579 l 2
 411 654 403 676 376 686 c 0
 369 688 366 690 366 692 c 0
 366 695 371 697 375 698 c 2
 485 725 l 1
EndSplineSet
Validated: 1
Ligature2: "'liga' Standard Ligatures in Latin lookup 3 subtable" f l
EndChar

StartChar: u10000
Encoding: -1 65536 254
Width: 500
GlyphClass: 1
Flags: MW
HStem: 0 50<80 420 80 500> 650 50<80 420 80 80>
VStem: 0 50<95 605 95 700> 450 50<95 605 605 605>
LayerCount: 2
Fore
SplineSet
0 0 m 1
 0 700 l 1
 500 700 l 1
 500 0 l 1
 0 0 l 1
250 395 m 1
 420 650 l 1
 80 650 l 1
 250 395 l 1
280 350 m 1
 450 95 l 1
 450 605 l 1
 280 350 l 1
80 50 m 1
 420 50 l 1
 250 305 l 1
 80 50 l 1
50 605 m 1
 50 95 l 1
 220 350 l 1
 50 605 l 1
EndSplineSet
Validated: 1
EndChar

StartChar: Ccaron
Encoding: 1 268 255
Width: 759
Flags: HW
HStem: 583 64<130 130 130 162 99 130> 583 167<-26 162 -26 99> 627 20G<130 130>
VStem: -26 312<750 750>
LayerCount: 2
Fore
SplineSet
418 756 m 5x30
 539 859 l 5
 574 859 l 5x50
 450 692 l 5
 387 692 l 5x90
 262 859 l 5
 297 859 l 5x50
 418 756 l 5x30
718 571 m 1
 699 513 l 2
 691 490 686 476 681 476 c 0
 679 476 675 480 674 485 c 0
 634 601 536 635 434 635 c 0
 252 635 149 504 149 326 c 0
 149 152 245 5 433 5 c 0
 566 5 651 66 686 136 c 0
 690 145 692 152 697 152 c 0
 700 152 702 146 707 128 c 2
 723 66 l 1
 641 7 539 -20 438 -20 c 0
 244 -20 42 95 42 311 c 0
 42 536 228 660 435 660 c 0
 544 660 640 630 718 571 c 1
EndSplineSet
Validated: 1
EndChar

